<svg width="52" height="52" viewBox="0 0 52 52" fill="none" xmlns="http://www.w3.org/2000/svg">
<path d="M9.54582 36.364H42.6272C43.9349 36.364 44.9902 35.3055 44.9902 34.001V10.3709C44.9902 8.63094 43.5808 7.2207 41.8417 7.2207H10.333C8.59304 7.2207 7.18359 8.63094 7.18359 10.3709V34.001C7.18359 35.3055 8.24206 36.364 9.54582 36.364ZM11.1272 11.1643H41.0466V32.4204H11.1272V11.1643Z" fill="white"/>
<path d="M46.4784 37.812H5.69595C5.25979 37.812 4.90723 38.1646 4.90723 38.6007C4.90723 39.3682 4.90723 40.5568 4.90723 41.5198C4.90723 43.0807 6.49177 44.3434 8.44544 44.3434H43.7282C45.6818 44.3434 47.2664 43.0799 47.2664 41.5198V38.6007C47.2672 38.1646 46.9138 37.812 46.4784 37.812ZM31.0069 41.8668H21.166C20.7306 41.8668 20.3772 41.5143 20.3772 41.0781C20.3772 40.642 20.7306 40.2894 21.166 40.2894H31.0069C31.443 40.2894 31.7956 40.642 31.7956 41.0781C31.7956 41.5143 31.443 41.8668 31.0069 41.8668Z" fill="white"/>
<g clip-path="url(#clip0)">
<path d="M23.0982 26.4502L15.9912 22.7517V21.1335L23.0982 17.4199V19.5135L18.128 21.9674L23.0982 24.355V26.4502ZM34.0463 21.9674L29.0755 19.5138V17.4202L36.1825 21.1335V22.7517L29.0755 26.4502V24.355L34.0463 21.9674Z" fill="white"/>
</g>
<defs>
<clipPath id="clip0">
<rect width="20.1913" height="20.1913" fill="white" transform="translate(15.9912 11.6487)"/>
</clipPath>
</defs>
</svg>
