<svg width="27" height="27" viewBox="0 0 27 27" fill="none" xmlns="http://www.w3.org/2000/svg">
<path d="M10.908 11.961C10.9755 11.5155 11.124 11.124 11.313 10.7865C11.502 10.449 11.772 10.1655 12.1095 9.9495C12.4335 9.747 12.8385 9.6525 13.338 9.639C13.6485 9.6525 13.932 9.7065 14.1885 9.8145C14.4585 9.936 14.7015 10.098 14.8905 10.3005C15.0795 10.503 15.228 10.746 15.3495 11.016C15.471 11.286 15.525 11.583 15.5385 11.88H17.955C17.928 11.2455 17.8065 10.665 17.577 10.1385C17.3475 9.612 17.037 9.153 16.632 8.775C16.227 8.397 15.741 8.1 15.174 7.884C14.607 7.668 13.986 7.5735 13.2975 7.5735C12.42 7.5735 11.6505 7.722 11.0025 8.0325C10.3545 8.343 9.8145 8.748 9.3825 9.2745C8.9505 9.801 8.6265 10.4085 8.424 11.1105C8.2215 11.8125 8.1 12.5415 8.1 13.3245V13.689C8.1 14.472 8.208 15.201 8.4105 15.903C8.613 16.605 8.937 17.2125 9.369 17.7255C9.801 18.2385 10.341 18.657 10.989 18.954C11.637 19.251 12.4065 19.413 13.284 19.413C13.9185 19.413 14.5125 19.305 15.066 19.1025C15.6195 18.9 16.1055 18.6165 16.524 18.252C16.9425 17.8875 17.28 17.469 17.523 16.983C17.766 16.497 17.9145 15.984 17.928 15.4305H15.5115C15.498 15.714 15.4305 15.9705 15.309 16.2135C15.1875 16.4565 15.0255 16.659 14.823 16.8345C14.6205 17.01 14.391 17.145 14.121 17.2395C13.8645 17.334 13.5945 17.361 13.311 17.3745C12.825 17.361 12.42 17.2665 12.1095 17.064C11.772 16.848 11.502 16.5645 11.313 16.227C11.124 15.8895 10.9755 15.4845 10.908 15.039C10.8405 14.5935 10.8 14.1345 10.8 13.689V13.3245C10.8 12.852 10.8405 12.4065 10.908 11.961ZM13.5 0C6.048 0 0 6.048 0 13.5C0 20.952 6.048 27 13.5 27C20.952 27 27 20.952 27 13.5C27 6.048 20.952 0 13.5 0ZM13.5 24.3C7.5465 24.3 2.7 19.4535 2.7 13.5C2.7 7.5465 7.5465 2.7 13.5 2.7C19.4535 2.7 24.3 7.5465 24.3 13.5C24.3 19.4535 19.4535 24.3 13.5 24.3Z" fill="#1B2EDA"/>
</svg>
