<svg width="48" height="48" viewBox="0 0 48 48" fill="none" xmlns="http://www.w3.org/2000/svg">
<path d="M19.3574 41.8472H28.121" stroke="white" stroke-width="1.86957" stroke-miterlimit="10" stroke-linejoin="round"/>
<path d="M23.7392 15.4104L14.9756 27.9715C17.3125 30.4546 19.0653 33.6679 19.9416 37.3194H23.7392H27.5367C28.4131 33.6679 30.1658 30.3085 32.5028 27.9715L23.7392 15.4104Z" stroke="white" stroke-width="1.86957" stroke-miterlimit="10" stroke-linejoin="round"/>
<path d="M23.7393 28.5558V15.8486" stroke="white" stroke-width="1.86957" stroke-miterlimit="10" stroke-linejoin="round"/>
<path d="M6.21191 25.6346C6.21191 15.9947 14.0991 8.10742 23.7391 8.10742C33.379 8.10742 41.2663 15.9947 41.2663 25.6346" stroke="white" stroke-width="1.86957" stroke-miterlimit="10" stroke-linejoin="round"/>
<path d="M7.67266 24.1741H4.75146V27.0953H7.67266V24.1741Z" stroke="white" stroke-width="1.86957" stroke-miterlimit="10" stroke-linejoin="round"/>
<path d="M42.7269 24.1741H39.8057V27.0953H42.7269V24.1741Z" stroke="white" stroke-width="1.86957" stroke-miterlimit="10" stroke-linejoin="round"/>
<path d="M25.2 6.64673H22.2788V9.56792H25.2V6.64673Z" stroke="white" stroke-width="1.86957" stroke-miterlimit="10" stroke-linejoin="round"/>
<path d="M6.21206 9.56792C7.01873 9.56792 7.67266 8.91399 7.67266 8.10733C7.67266 7.30066 7.01873 6.64673 6.21206 6.64673C5.4054 6.64673 4.75146 7.30066 4.75146 8.10733C4.75146 8.91399 5.4054 9.56792 6.21206 9.56792Z" stroke="white" stroke-width="1.86957" stroke-miterlimit="10" stroke-linejoin="round"/>
<path d="M41.2663 9.56792C42.0729 9.56792 42.7269 8.91399 42.7269 8.10733C42.7269 7.30066 42.0729 6.64673 41.2663 6.64673C40.4596 6.64673 39.8057 7.30066 39.8057 8.10733C39.8057 8.91399 40.4596 9.56792 41.2663 9.56792Z" stroke="white" stroke-width="1.86957" stroke-miterlimit="10" stroke-linejoin="round"/>
<path d="M6.21191 8.10742H41.2663" stroke="white" stroke-width="1.86957" stroke-miterlimit="10" stroke-linejoin="round"/>
</svg>
