<svg width="55" height="47" viewBox="0 0 55 47" fill="none" xmlns="http://www.w3.org/2000/svg">
<path d="M21.9422 8.05444V8.83495C20.6847 9.01924 19.7573 9.42304 19.16 10.0464C18.5627 10.6697 18.264 11.3337 18.264 12.0383C18.264 12.7863 18.4087 13.7131 18.6979 14.8188C19.0122 16.0004 19.1694 16.9923 19.1694 17.7945C19.1694 18.6834 18.8802 19.5398 18.3018 20.3637C17.7233 21.1876 17.038 21.8136 16.2458 22.2418C15.4536 22.67 14.3784 23.0521 13.0203 23.3882C15.3593 24.0061 16.9751 24.8435 17.8679 25.9004C18.7608 26.9574 19.2072 28.0061 19.2072 29.0468C19.2072 29.6756 19.0563 30.5645 18.7545 31.7136C18.4401 32.8626 18.2829 33.8329 18.2829 34.6242C18.2829 36.5104 19.5027 37.6378 21.9422 38.0064V38.7869C20.823 38.7869 19.9145 38.7164 19.2166 38.5755C18.5187 38.4346 17.7422 38.1067 16.8871 37.5918C16.032 37.0768 15.3624 36.4345 14.8783 35.6649C14.3941 34.8952 14.1521 34.1147 14.1521 33.3234C14.1521 32.597 14.347 31.5455 14.7368 30.1688C15.026 29.139 15.1706 28.2501 15.1706 27.5021C15.1706 25.4858 13.9383 24.2933 11.4736 23.9248V22.9003C12.794 22.7269 13.7402 22.2716 14.3124 21.5344C14.8846 20.7973 15.1706 20.0114 15.1706 19.1767C15.1706 18.4395 15.0323 17.5886 14.7557 16.6238C14.3658 15.2579 14.1709 14.2389 14.1709 13.5668C14.1709 12.2551 14.8342 11.0166 16.1609 9.85124C17.4876 8.68589 19.4146 8.08696 21.9422 8.05444Z" fill="white"/>
<path d="M33.5674 8.05444V8.83495C34.8249 9.01924 35.7523 9.42304 36.3496 10.0464C36.9469 10.6697 37.2455 11.3337 37.2455 12.0383C37.2455 12.7863 37.1009 13.7131 36.8117 14.8188C36.4973 16.0004 36.3401 16.9923 36.3401 17.7945C36.3401 18.6834 36.6294 19.5398 37.2078 20.3637C37.7862 21.1876 38.4716 21.8136 39.2638 22.2418C40.056 22.67 41.1311 23.0521 42.4892 23.3882C40.1503 24.0061 38.5344 24.8435 37.6416 25.9004C36.7488 26.9574 36.3024 28.0061 36.3024 29.0468C36.3024 29.6756 36.4533 30.5645 36.7551 31.7136C37.0695 32.8626 37.2267 33.8329 37.2267 34.6242C37.2267 36.5104 36.0069 37.6378 33.5674 38.0064V38.7869C34.6865 38.7869 35.5951 38.7164 36.293 38.5755C36.9909 38.4346 37.7674 38.1067 38.6225 37.5918C39.4776 37.0768 40.1472 36.4345 40.6313 35.6649C41.1154 34.8952 41.3575 34.1147 41.3575 33.3234C41.3575 32.597 41.1626 31.5455 40.7728 30.1688C40.4835 29.139 40.3389 28.2501 40.3389 27.5021C40.3389 25.4858 41.5713 24.2933 44.0359 23.9248V22.9003C42.7156 22.7269 41.7693 22.2716 41.1972 21.5344C40.625 20.7973 40.3389 20.0114 40.3389 19.1767C40.3389 18.4395 40.4773 17.5886 40.7539 16.6238C41.1437 15.2579 41.3386 14.2389 41.3386 13.5668C41.3386 12.2551 40.6753 11.0166 39.3487 9.85124C38.022 8.68589 36.0949 8.08696 33.5674 8.05444Z" fill="white"/>
</svg>
