<svg width="1270" height="904" viewBox="0 0 1270 904" fill="none" xmlns="http://www.w3.org/2000/svg">
<g id="Illustration 18">
<g id="Background">
<g id="Background Object / Lamp">
<g id="Group 17">
<path id="Stroke 1" d="M721.943 466.977C721.943 466.977 724.079 455.85 731.374 456.562C746.593 458.051 727.952 506.966 759.269 510.108C790.585 513.249 793.838 464.248 793.838 464.248" stroke="#3553E2" stroke-width="7"/>
<path id="Stroke 3" d="M723.069 434.404V720.463" stroke="#3553E2" stroke-width="15"/>
<path id="Stroke 5" d="M793.837 464.248L606.957 383.665" stroke="#3553E2" stroke-width="15"/>
<path id="Fill 7" fill-rule="evenodd" clip-rule="evenodd" d="M687.079 720.463H759.06V716.918C759.06 712.334 755.344 708.617 750.761 708.617H695.377C690.794 708.617 687.079 712.334 687.079 716.918V720.463Z" fill="#3553E2"/>
<path id="Fill 10" fill-rule="evenodd" clip-rule="evenodd" d="M567.789 424.768L629.031 438.105L631.011 420.988L573.102 408.376L567.789 424.768Z" fill="#3553E2"/>
<path id="Fill 12" fill-rule="evenodd" clip-rule="evenodd" d="M595.164 399.124L613.422 403.1L618.635 379.15C619.677 374.361 616.64 369.632 611.852 368.589L610.933 368.389C606.145 367.346 601.418 370.384 600.376 375.174L595.164 399.124Z" fill="#3553E2"/>
<path id="Fill 15" fill-rule="evenodd" clip-rule="evenodd" d="M631.011 420.988L612.843 397.154L599.531 394.255L573.102 408.376L631.011 420.988Z" fill="#3553E2"/>
</g>
</g>
<g id="Background Object / Closet / 3">
<g id="Group 45">
<path id="Fill 1" fill-rule="evenodd" clip-rule="evenodd" d="M1123.63 421.244H1115.99C1109.39 421.244 1104.04 415.9 1104.04 409.307V389.225C1104.04 387.24 1105.65 385.631 1107.64 385.631H1131.97C1133.96 385.631 1135.57 387.24 1135.57 389.225V409.307C1135.57 415.9 1130.22 421.244 1123.63 421.244Z" fill="#3553E2"/>
<path id="Fill 3" fill-rule="evenodd" clip-rule="evenodd" d="M1111.63 403.437H1127.98V371.257H1111.63V403.437Z" fill="#3553E2"/>
<path id="Fill 5" fill-rule="evenodd" clip-rule="evenodd" d="M1032.97 400.646C1032.97 403.627 1035.39 406.044 1038.37 406.044H1086.96V395.247H1038.37C1035.39 395.247 1032.97 397.664 1032.97 400.646Z" fill="#3553E2"/>
<path id="Fill 6" fill-rule="evenodd" clip-rule="evenodd" d="M1065.65 400.646C1065.65 402.372 1067.05 403.771 1068.78 403.771H1086.83C1086.9 403.771 1086.96 403.713 1086.96 403.641V397.65C1086.96 397.578 1086.9 397.52 1086.83 397.52H1068.78C1067.05 397.52 1065.65 398.919 1065.65 400.646Z" fill="#3553E2"/>
<path id="Fill 7_2" fill-rule="evenodd" clip-rule="evenodd" d="M1026.19 406.044V416.842H1079.23C1082.21 416.842 1084.63 414.425 1084.63 411.443C1084.63 408.462 1082.21 406.044 1079.23 406.044H1026.19Z" fill="#3553E2"/>
<path id="Fill 8" fill-rule="evenodd" clip-rule="evenodd" d="M1026.19 408.348V414.538H1048C1049.71 414.538 1051.09 413.152 1051.09 411.443C1051.09 409.733 1049.71 408.348 1048 408.348H1026.19Z" fill="#3553E2"/>
<path id="Fill 9" fill-rule="evenodd" clip-rule="evenodd" d="M1046.57 388.664L1050.01 355.06H1060.8L1064.25 388.664C1064.61 392.186 1061.85 395.247 1058.31 395.247H1052.51C1048.97 395.247 1046.2 392.186 1046.57 388.664Z" fill="#3553E2"/>
<path id="Fill 10_2" fill-rule="evenodd" clip-rule="evenodd" d="M958.024 706.522H1118.03V421.667H958.024V706.522Z" fill="#E6F4FF"/>
<path id="Fill 11" fill-rule="evenodd" clip-rule="evenodd" d="M958.025 726.943H967.238V421.667H958.025V726.943Z" fill="#E6F4FF"/>
<path id="Fill 12_2" fill-rule="evenodd" clip-rule="evenodd" d="M967.238 726.943H976.45V706.522H967.238V726.943Z" fill="#3553E2"/>
<path id="Fill 13" fill-rule="evenodd" clip-rule="evenodd" d="M1023.32 726.943H1032.53V706.522H1023.32V726.943Z" fill="#3553E2"/>
<path id="Fill 14" fill-rule="evenodd" clip-rule="evenodd" d="M1118.03 726.943H1127.24V706.522H1118.03V726.943Z" fill="#3553E2"/>
<path id="Fill 15_2" fill-rule="evenodd" clip-rule="evenodd" d="M1155.68 726.943H1164.89V706.522H1155.68V726.943Z" fill="#C5E0FC"/>
<path id="Fill 16" fill-rule="evenodd" clip-rule="evenodd" d="M1108.81 726.943H1118.03V421.667H1108.81V726.943Z" fill="#E6F4FF"/>
<path id="Fill 17" fill-rule="evenodd" clip-rule="evenodd" d="M1164.9 727.225H1174.11V706.522H1164.9V727.225Z" fill="#3553E2"/>
<path id="Fill 18" fill-rule="evenodd" clip-rule="evenodd" d="M1014.11 726.943H1023.32V706.522H1014.11V726.943Z" fill="#C5E0FC"/>
<path id="Fill 19" fill-rule="evenodd" clip-rule="evenodd" d="M967.237 693.879H1031.92V639.216H967.237V693.879Z" fill="#3553E2"/>
<path id="Fill 20" fill-rule="evenodd" clip-rule="evenodd" d="M1044.13 693.88H1108.82V639.217H1044.13V693.88Z" fill="#3553E2"/>
<path id="Fill 21" fill-rule="evenodd" clip-rule="evenodd" d="M967.237 627.007H1031.92V572.348H967.237V627.007Z" fill="#3553E2"/>
<path id="Fill 22" fill-rule="evenodd" clip-rule="evenodd" d="M1044.13 627.007H1108.82V572.348H1044.13V627.007Z" fill="#3553E2"/>
<path id="Fill 23" fill-rule="evenodd" clip-rule="evenodd" d="M967.238 560.138H1108.81V505.478H967.238V560.138Z" fill="#3553E2"/>
<path id="Fill 24" fill-rule="evenodd" clip-rule="evenodd" d="M967.238 560.138H1011.04V505.478H967.238V560.138Z" fill="#3553E2"/>
<path id="Fill 25" fill-rule="evenodd" clip-rule="evenodd" d="M967.238 493.268H1108.81V438.608H967.238V493.268Z" fill="#3553E2"/>
<path id="Fill 26" fill-rule="evenodd" clip-rule="evenodd" d="M967.238 493.268H1011.04V438.608H967.238V493.268Z" fill="#3553E2"/>
<path id="Fill 27" fill-rule="evenodd" clip-rule="evenodd" d="M1118.03 706.522H1174.11V421.667H1118.03V706.522Z" fill="#3553E2"/>
<path id="Fill 28" fill-rule="evenodd" clip-rule="evenodd" d="M1116.19 425.752H954.49C949.791 425.752 945.982 421.945 945.982 417.248V416.736H1116.19V425.752Z" fill="#E6F4FF"/>
<path id="Fill 29" fill-rule="evenodd" clip-rule="evenodd" d="M1177.55 425.752H1116.19V416.736H1186.05V417.248C1186.05 421.945 1182.25 425.752 1177.55 425.752Z" fill="#3553E2"/>
<path id="Fill 30" fill-rule="evenodd" clip-rule="evenodd" d="M958.024 429.697H1118.03V425.752H958.024V429.697Z" fill="#3553E2"/>
<path id="Fill 31" fill-rule="evenodd" clip-rule="evenodd" d="M998.959 493.269H1007.65V460.068H998.959V493.269Z" fill="#3553E2"/>
<path id="Fill 32" fill-rule="evenodd" clip-rule="evenodd" d="M990.265 493.269H998.959V460.068H990.265V493.269Z" fill="#3553E2"/>
<path id="Fill 33" fill-rule="evenodd" clip-rule="evenodd" d="M1007.65 493.269H1016.35V460.068H1007.65V493.269Z" fill="#3553E2"/>
<path id="Fill 34" fill-rule="evenodd" clip-rule="evenodd" d="M1039.25 493.268H1016.35V460.068H1039.25C1040.48 460.068 1041.47 461.059 1041.47 462.283V491.054C1041.47 492.277 1040.48 493.268 1039.25 493.268Z" fill="#3553E2"/>
<path id="Fill 35" fill-rule="evenodd" clip-rule="evenodd" d="M1020.07 468.192H1037.75V464.905H1020.07V468.192Z" fill="#3553E2"/>
<path id="Fill 36" fill-rule="evenodd" clip-rule="evenodd" d="M1024.01 473.264H1033.81V469.977H1024.01V473.264Z" fill="#3553E2"/>
<path id="Fill 37" fill-rule="evenodd" clip-rule="evenodd" d="M1093.05 541.084V541.792C1093.05 545.039 1090.42 547.671 1087.17 547.671H1036.21V535.205H1087.17C1090.42 535.205 1093.05 537.837 1093.05 541.084Z" fill="#3553E2"/>
<path id="Fill 38" fill-rule="evenodd" clip-rule="evenodd" d="M1058.64 541.233V541.643C1058.64 543.523 1057.12 545.047 1055.24 545.047H1036.28C1036.24 545.047 1036.21 545.015 1036.21 544.976V537.9C1036.21 537.861 1036.24 537.829 1036.28 537.829H1055.24C1057.12 537.829 1058.64 539.353 1058.64 541.233Z" fill="#3553E2"/>
<path id="Fill 39" fill-rule="evenodd" clip-rule="evenodd" d="M1100.19 547.671V560.138H1044.55C1041.3 560.138 1038.67 557.506 1038.67 554.258V553.551C1038.67 550.304 1041.3 547.671 1044.55 547.671H1100.19Z" fill="#3553E2"/>
<path id="Fill 40" fill-rule="evenodd" clip-rule="evenodd" d="M1100.19 550.331V557.479H1077.34C1075.48 557.479 1073.97 555.97 1073.97 554.107V553.702C1073.97 551.84 1075.48 550.331 1077.34 550.331H1100.19Z" fill="#3553E2"/>
<path id="Fill 41" fill-rule="evenodd" clip-rule="evenodd" d="M1015.41 643.536H983.749C981.363 643.536 979.429 641.602 979.429 639.216H1019.73C1019.73 641.602 1017.79 643.536 1015.41 643.536Z" fill="#3553E2"/>
<path id="Fill 42" fill-rule="evenodd" clip-rule="evenodd" d="M1092.3 643.536H1060.64C1058.26 643.536 1056.32 641.602 1056.32 639.216H1096.62C1096.62 641.602 1094.69 643.536 1092.3 643.536Z" fill="#3553E2"/>
<path id="Fill 43" fill-rule="evenodd" clip-rule="evenodd" d="M1092.3 576.667H1060.64C1058.26 576.667 1056.32 574.733 1056.32 572.348H1096.62C1096.62 574.733 1094.69 576.667 1092.3 576.667Z" fill="#3553E2"/>
<path id="Fill 44" fill-rule="evenodd" clip-rule="evenodd" d="M1015.41 576.667H983.749C981.363 576.667 979.429 574.733 979.429 572.348H1019.73C1019.73 574.733 1017.79 576.667 1015.41 576.667Z" fill="#3553E2"/>
</g>
</g>
<g id="Background Object / Bedside-table / 4">
<g id="Group 34">
<path id="Fill 1_2" fill-rule="evenodd" clip-rule="evenodd" d="M482.593 615.306H519.912V540.007C519.912 536.809 517.32 534.218 514.123 534.218H488.382C485.185 534.218 482.593 536.809 482.593 540.007V615.306Z" fill="#3553E2"/>
<path id="Fill 3_2" fill-rule="evenodd" clip-rule="evenodd" d="M433.941 605.563C433.941 609.267 435.264 612.664 437.467 615.305H460.869C463.072 612.664 464.395 609.267 464.395 605.563C464.395 597.149 457.576 590.328 449.165 590.328C440.76 590.328 433.941 597.149 433.941 605.563Z" fill="#3553E2"/>
<path id="Fill 5_2" fill-rule="evenodd" clip-rule="evenodd" d="M454.428 594.762H443.908V585.789H454.428V594.762Z" fill="#3553E2"/>
<path id="Fill 7_3" fill-rule="evenodd" clip-rule="evenodd" d="M457.197 585.789H441.14V581.136H457.197V585.789Z" fill="#3553E2"/>
<path id="Fill 8_2" fill-rule="evenodd" clip-rule="evenodd" d="M455.373 615.306H477.847L466.61 597.728L455.373 615.306Z" fill="#3553E2"/>
<path id="Fill 9_2" fill-rule="evenodd" clip-rule="evenodd" d="M519.912 605.437H482.593V561.334H519.912V605.437Z" fill="#3553E2"/>
<path id="Fill 10_3" fill-rule="evenodd" clip-rule="evenodd" d="M514.485 612.32H501.681V609.329H514.485V612.32Z" fill="#3553E2"/>
<path id="Fill 11_2" fill-rule="evenodd" clip-rule="evenodd" d="M519.912 543.236H482.593V542.226H519.912V543.236Z" fill="#3553E2"/>
<path id="Stroke 13" d="M403.171 698.223V724.01" stroke="#3553E2" stroke-width="11"/>
<path id="Stroke 16" d="M444.035 698.223V724.01" stroke="#3553E2" stroke-width="11"/>
<path id="Stroke 19" d="M622.102 698.223V724.01" stroke="#3553E2" stroke-width="11"/>
<path id="Stroke 22" d="M662.964 698.223V724.01" stroke="#3553E2" stroke-width="11"/>
<path id="Fill 24_2" fill-rule="evenodd" clip-rule="evenodd" d="M681.292 698.223H462.029V615.306H681.292V698.223Z" fill="#3553E2"/>
<path id="Fill 25_2" fill-rule="evenodd" clip-rule="evenodd" d="M668.668 688.98H577.198V624.508H668.668V688.98Z" fill="#3553E2"/>
<path id="Fill 26_2" fill-rule="evenodd" clip-rule="evenodd" d="M566.124 688.98H474.653V624.508H566.124V688.98Z" fill="#3553E2"/>
<path id="Fill 27_2" fill-rule="evenodd" clip-rule="evenodd" d="M462.029 698.223H385.177V615.306H462.029V698.223Z" fill="#3553E2"/>
<path id="Fill 28_2" fill-rule="evenodd" clip-rule="evenodd" d="M627.139 595.053V595.054C627.139 598.782 624.117 601.804 620.39 601.804H559.673V588.303H620.39C624.117 588.303 627.139 591.326 627.139 595.053Z" fill="#3553E2"/>
<path id="Fill 29_2" fill-rule="evenodd" clip-rule="evenodd" d="M586.301 595.053V595.054C586.301 597.212 584.552 598.962 582.394 598.962H559.836C559.746 598.962 559.673 598.889 559.673 598.8V591.308C559.673 591.218 559.746 591.146 559.836 591.146H582.394C584.552 591.146 586.301 592.895 586.301 595.053Z" fill="#3553E2"/>
<path id="Fill 30_2" fill-rule="evenodd" clip-rule="evenodd" d="M635.612 601.804V615.306H569.341C565.614 615.306 562.592 612.283 562.592 608.555C562.592 604.827 565.614 601.804 569.341 601.804H635.612Z" fill="#3553E2"/>
<path id="Fill 31_2" fill-rule="evenodd" clip-rule="evenodd" d="M635.612 604.685V612.426H608.364C606.227 612.426 604.494 610.693 604.494 608.556C604.494 606.418 606.227 604.685 608.364 604.685H635.612Z" fill="#3553E2"/>
<path id="Fill 32_2" fill-rule="evenodd" clip-rule="evenodd" d="M604.176 624.508C604.176 629.433 608.167 633.426 613.091 633.426H632.775C637.698 633.426 641.689 629.433 641.689 624.508H604.176Z" fill="#3553E2"/>
<path id="Fill 33_2" fill-rule="evenodd" clip-rule="evenodd" d="M501.632 624.508C501.632 629.433 505.623 633.426 510.547 633.426H530.231C535.154 633.426 539.146 629.433 539.146 624.508H501.632Z" fill="#3553E2"/>
</g>
</g>
<g id="Background Object / Ladder">
<g id="Group 39">
<path id="Stroke 1_2" d="M317.557 723.773L290.398 386.788" stroke="#3553E2" stroke-width="18"/>
<path id="Stroke 3_2" d="M180.994 723.773L208.152 386.788" stroke="#3553E2" stroke-width="18"/>
<path id="Stroke 5_2" d="M308.152 401.087H193.493" stroke="#3553E2" stroke-width="18"/>
<path id="Stroke 7" d="M315.937 474.865H185.708" stroke="#3553E2" stroke-width="18"/>
<path id="Stroke 9" d="M322.083 563.265H179.562" stroke="#3553E2" stroke-width="18"/>
<path id="Stroke 11" d="M332.548 643.025H169.098" stroke="#3553E2" stroke-width="18"/>
<path id="Fill 14_2" fill-rule="evenodd" clip-rule="evenodd" d="M226.048 535.058H263.72C265.427 535.058 266.811 533.674 266.811 531.967V472.708C266.811 471.001 265.427 469.616 263.72 469.616H226.048C224.342 469.616 222.958 471.001 222.958 472.708V531.967C222.958 533.674 224.342 535.058 226.048 535.058Z" fill="#3553E2"/>
<path id="Fill 16_2" fill-rule="evenodd" clip-rule="evenodd" d="M251.214 617.479H288.885C290.592 617.479 291.976 616.095 291.976 614.387V560.861C291.976 559.154 290.592 557.77 288.885 557.77H251.214C249.507 557.77 248.123 559.154 248.123 560.861V614.387C248.123 616.095 249.507 617.479 251.214 617.479Z" fill="#3553E2"/>
<path id="Stroke 18" d="M327.273 723.773L300.115 386.788" stroke="#3553E2" stroke-width="30"/>
<path id="Stroke 20" d="M190.71 723.773L217.869 386.788" stroke="#3553E2" stroke-width="30"/>
<path id="Stroke 22_2" d="M316.25 401.087H201.591" stroke="#3553E2" stroke-width="18"/>
<path id="Stroke 24" d="M324.035 474.865H193.807" stroke="#3553E2" stroke-width="18"/>
<path id="Stroke 26" d="M330.181 563.265H187.66" stroke="#3553E2" stroke-width="18"/>
<path id="Stroke 28" d="M340.646 643.025H177.195" stroke="#3553E2" stroke-width="18"/>
<path id="Fill 30_3" fill-rule="evenodd" clip-rule="evenodd" d="M257.924 599.307H295.132C296.967 599.307 298.454 597.819 298.454 595.984V561.094C298.454 559.258 296.967 557.77 295.132 557.77H254.602V595.984C254.602 597.819 256.089 599.307 257.924 599.307Z" fill="#ECF6FF"/>
<path id="Fill 32_3" fill-rule="evenodd" clip-rule="evenodd" d="M298.454 592.222H254.602V581.224H298.454V592.222Z" fill="#3553E2"/>
<path id="Fill 34_2" fill-rule="evenodd" clip-rule="evenodd" d="M251.363 557.773C253.151 557.773 254.603 559.22 254.603 561.013V557.773H251.363Z" fill="#ECF6FF"/>
<path id="Fill 35_2" fill-rule="evenodd" clip-rule="evenodd" d="M232.759 515.141H269.967C271.802 515.141 273.289 513.653 273.289 511.818V472.94C273.289 471.104 271.802 469.616 269.967 469.616H229.437V511.818C229.437 513.653 230.924 515.141 232.759 515.141Z" fill="#ECF6FF"/>
<path id="Fill 36_2" fill-rule="evenodd" clip-rule="evenodd" d="M273.288 507.376H229.436V502.338H273.288V507.376Z" fill="#3553E2"/>
<path id="Fill 37_2" fill-rule="evenodd" clip-rule="evenodd" d="M273.288 497.417H229.436V492.379H273.288V497.417Z" fill="#3553E2"/>
<path id="Fill 38_2" fill-rule="evenodd" clip-rule="evenodd" d="M226.198 469.619C227.985 469.619 229.438 471.205 229.438 473.171V469.619H226.198Z" fill="#ECF6FF"/>
</g>
</g>
<g id="Background Object / Pluteus / 2">
<g id="Group 21">
<path id="Fill 1_3" fill-rule="evenodd" clip-rule="evenodd" d="M1072.02 164.65C1070.14 180.414 1056.72 192.644 1040.45 192.644C1024.18 192.644 1010.76 180.414 1008.88 164.65H1072.02Z" fill="#ECF6FF"/>
<g id="Group 5">
<path id="Fill 3_3" fill-rule="evenodd" clip-rule="evenodd" d="M949.801 145.49C947.922 161.253 934.505 173.483 918.233 173.483C901.962 173.483 888.544 161.253 886.666 145.49H949.801Z" fill="#ECF6FF"/>
</g>
<path id="Fill 6_2" fill-rule="evenodd" clip-rule="evenodd" d="M949.801 164.65C947.922 180.414 934.505 192.644 918.233 192.644C901.962 192.644 888.544 180.414 886.666 164.65H949.801Z" fill="#ECF6FF"/>
<path id="Fill 8_3" fill-rule="evenodd" clip-rule="evenodd" d="M969.61 169.089H995.385L988.445 191.92H976.551L969.61 169.089Z" fill="#3553E2"/>
<path id="Fill 10_4" fill-rule="evenodd" clip-rule="evenodd" d="M844.697 169.089H870.472L863.532 191.92H851.638L844.697 169.089Z" fill="#3553E2"/>
<path id="Fill 12_3" fill-rule="evenodd" clip-rule="evenodd" d="M969.61 154.181H995.385L988.445 177.012H976.551L969.61 154.181Z" fill="#3553E2"/>
<path id="Fill 14_3" fill-rule="evenodd" clip-rule="evenodd" d="M823.408 197.358H1051.86V187.761H823.408V197.358Z" fill="#3553E2"/>
<path id="Fill 16_3" fill-rule="evenodd" clip-rule="evenodd" d="M1051.86 197.358H1089.44V187.761H1051.86V197.358Z" fill="#3553E2"/>
<path id="Fill 17_2" fill-rule="evenodd" clip-rule="evenodd" d="M879.089 197.358L896.929 225.347V197.358H879.089Z" fill="#3553E2"/>
<path id="Fill 18_2" fill-rule="evenodd" clip-rule="evenodd" d="M869.216 197.358L887.056 225.347H896.929L879.089 197.358H869.216Z" fill="#3553E2"/>
<path id="Fill 19_2" fill-rule="evenodd" clip-rule="evenodd" d="M1009.94 197.358L1027.78 225.347V197.358H1009.94Z" fill="#3553E2"/>
<path id="Fill 20_2" fill-rule="evenodd" clip-rule="evenodd" d="M1000.06 197.358L1017.9 225.347H1027.78L1009.94 197.358H1000.06Z" fill="#3553E2"/>
</g>
</g>
<g id="Background Object / Picture / 6">
<g id="Group 8">
<path id="Fill 1_4" fill-rule="evenodd" clip-rule="evenodd" d="M466.813 147.94H518.179V88.0635H466.813V147.94Z" fill="#3553E2"/>
<path id="Stroke 2" fill-rule="evenodd" clip-rule="evenodd" d="M466.813 147.94H518.179V88.0635H466.813V147.94Z" stroke="#3553E2" stroke-width="5"/>
<path id="Fill 4" fill-rule="evenodd" clip-rule="evenodd" d="M463.26 147.94H515.581V88.0635H463.26V147.94Z" fill="white"/>
<path id="Stroke 5_3" fill-rule="evenodd" clip-rule="evenodd" d="M463.26 147.94H515.581V88.0635H463.26V147.94Z" stroke="#3553E2" stroke-width="5"/>
<path id="Fill 7_4" fill-rule="evenodd" clip-rule="evenodd" d="M475.644 132.359H500.786V103.535H475.644V132.359Z" fill="#3553E2"/>
</g>
</g>
<g id="Background Object / Picture / 2">
<g id="Group 8_2">
<path id="Fill 1_5" fill-rule="evenodd" clip-rule="evenodd" d="M531.759 195.733H616.282V86.0388H531.759V195.733Z" fill="#3553E2"/>
<path id="Stroke 2_2" fill-rule="evenodd" clip-rule="evenodd" d="M531.759 195.733H616.282V86.0388H531.759V195.733Z" stroke="#3553E2" stroke-width="5"/>
<path id="Fill 4_2" fill-rule="evenodd" clip-rule="evenodd" d="M527.367 195.733H610.249V86.0388H527.367V195.733Z" fill="white"/>
<path id="Stroke 5_4" fill-rule="evenodd" clip-rule="evenodd" d="M527.367 195.733H610.249V86.0388H527.367V195.733Z" stroke="#3553E2" stroke-width="5"/>
<path id="Fill 7_5" fill-rule="evenodd" clip-rule="evenodd" d="M544.623 175.022H589.174V106.549H544.623V175.022Z" fill="#3553E2"/>
</g>
</g>
</g>
<g id="Person / Woman / 6">
<g id="Girl / Head / 1">
<g id="Group 21_2">
<g id="Hair color">
<path id="Hair" d="M450.364 249.472C450.364 254.607 449.831 259.621 448.812 264.459C441.909 297.404 412.69 308.646 377.687 308.646C337.555 308.646 305.016 289.61 305.016 249.472C305.016 209.334 337.555 176.801 377.687 176.801C405.279 176.801 429.283 192.173 441.592 214.827C447.185 225.124 450.364 236.927 450.364 249.472Z" fill="#F6B852"/>
<mask id="mask0" mask-type="alpha" maskUnits="userSpaceOnUse" x="305" y="176" width="146" height="133">
<path id="Hair_2" d="M450.364 249.472C450.364 254.607 449.831 259.621 448.812 264.459C441.909 297.404 412.69 308.646 377.687 308.646C337.555 308.646 305.016 289.61 305.016 249.472C305.016 209.334 337.555 176.801 377.687 176.801C405.279 176.801 429.283 192.173 441.592 214.827C447.185 225.124 450.364 236.927 450.364 249.472Z" fill="white"/>
</mask>
<g mask="url(#mask0)">
</g>
</g>
<path id="Fill 4_3" fill-rule="evenodd" clip-rule="evenodd" d="M390.149 297.822C390.149 297.822 381.423 298.08 377.704 296.048L389.685 303.571L390.149 297.822Z" fill="#CF3E83"/>
<g id="Face color">
<path id="Face" d="M387.232 242.659C395.73 249.97 408.308 256.767 423.073 261.389C422.133 271.393 419.012 288.636 409.597 294.899C405.149 297.856 397.049 298.221 390.149 297.822L388.567 317.421L368.057 309.389C368.057 309.389 373.176 285.569 370.435 281.192C366.754 275.294 356.905 273.394 356.894 265.244C356.89 262.831 358.301 258.652 363.511 258.643C370.505 258.633 369.508 267.012 369.508 267.012C375.941 269.514 382.499 252.372 387.232 242.659V242.659Z" fill="#5E93D1"/>
</g>
<path id="Fill 9_3" fill-rule="evenodd" clip-rule="evenodd" d="M409.117 266.996L414.111 279.102L408.317 278.986L409.117 266.996Z" fill="#2437A8"/>
<path id="Fill 11_3" fill-rule="evenodd" clip-rule="evenodd" d="M403.801 267.521C403.676 269.94 402.255 271.824 400.624 271.73C398.994 271.636 397.773 269.6 397.897 267.181C398.022 264.763 399.445 262.878 401.074 262.972C402.705 263.066 403.926 265.103 403.801 267.521Z" fill="#1D1D23"/>
<path id="Fill 13_2" fill-rule="evenodd" clip-rule="evenodd" d="M419.11 267.135C418.985 269.553 417.564 271.437 415.933 271.344C414.303 271.25 413.082 269.213 413.207 266.795C413.332 264.376 414.754 262.491 416.384 262.586C418.014 262.68 419.235 264.716 419.11 267.135Z" fill="#1D1D23"/>
<path id="Stroke 15" d="M406.896 284.785C406.896 284.785 403.121 286.003 399.339 281.798" stroke="#24242B" stroke-width="3"/>
<path id="Fill 17_3" opacity="0.399019" fill-rule="evenodd" clip-rule="evenodd" d="M390.134 297.822C390.134 297.822 381.408 298.08 377.689 296.049L389.671 303.571L390.134 297.822Z" fill="black"/>
</g>
</g>
<g id="Girl / Body / 2">
<g id="Group 39_2">
<g id="Skin color">
<path id="Skin" fill-rule="evenodd" clip-rule="evenodd" d="M400.405 319.989C396.345 313.121 390.91 309.28 390.91 309.28L366.072 308.082C366.072 308.082 368.187 313.534 370.427 320.545C374.855 334.406 385.357 337.521 394.508 337.505C403.056 337.492 405.961 329.385 400.405 319.989ZM461.595 360.257C461.149 355.892 460.975 350.67 462.362 348.8C464.906 345.368 477.488 334.993 477.488 334.993L478.159 343.651L481.137 333.486C481.137 333.486 484.436 334.464 487.628 336.134C489.93 337.339 492.136 338.971 493.522 339.997C493.851 340.24 494.134 340.45 494.36 340.611C496.052 341.814 491.134 360.316 487.628 363.645C485.221 365.93 478.124 367.702 473.912 368.589C465.868 381.579 444.429 414.038 432.585 411.36C420.281 408.578 408.865 365.567 408.865 365.567L429.619 355.457L438.655 383.309L461.595 360.257ZM320.567 454.516L325.619 467.435C325.619 467.435 326.386 470.761 326.815 474.691L326.872 475.216C327.263 478.846 327.525 481.28 330.01 486.911C331.824 491.021 325.954 489.793 324.29 487.497C323.675 486.65 323.17 484.862 322.644 483.005C321.701 479.671 320.694 476.11 318.88 477.344C316.054 479.264 315.203 489.033 315.835 498.258C315.934 499.706 314.928 500.889 314.209 501.306C313.042 501.981 311.339 496.273 311.339 496.273C311.339 496.273 310.727 498.279 308.869 497.441C308.211 497.145 306.251 493.261 306.251 493.261C306.251 493.261 304.734 491.347 303.936 489.209C302.527 485.436 301.377 478.433 301.648 476.375C302.289 471.526 303.73 463.34 305.624 458.806C304.506 447.153 300.219 400.372 302.584 391.486C305.291 381.317 310.595 367.538 310.595 367.538L330.947 379.508L322.222 398.135L320.567 454.516Z" fill="#E576C6"/>
</g>
<path id="Path" fill-rule="evenodd" clip-rule="evenodd" d="M488.019 336.396C486.145 335.322 484.361 334.518 483.487 334.722C481.957 335.078 484.757 339.09 486.798 341.731L486.775 341.831C483.48 343.157 479.161 345.124 478.467 346.563C477.982 347.568 479.876 347.897 482.222 347.941C480.063 348.976 478.179 350.096 477.74 351.005C477.179 352.169 479.808 352.425 482.635 352.384C480.138 353.523 477.799 354.818 477.303 355.844C476.672 357.154 480.077 357.315 483.26 357.195L482.442 360.772C482.192 361.868 481.193 362.629 480.069 362.58L467.853 362.046C466.4 361.982 465.359 360.617 465.684 359.199L474.339 321.37C474.59 320.273 475.588 319.512 476.711 319.561L488.928 320.095C490.381 320.159 491.421 321.524 491.097 322.943L488.019 336.396Z" fill="#020101"/>
<g id="Phone color">
<path id="Phone" d="M490.508 337.931C487.917 336.24 484.75 334.427 483.486 334.722C481.943 335.082 484.806 339.161 486.852 341.801C483.547 343.127 479.166 345.113 478.466 346.563C477.981 347.568 479.875 347.897 482.221 347.941C480.062 348.977 478.178 350.096 477.74 351.005C477.178 352.169 479.807 352.425 482.634 352.384C480.137 353.523 477.798 354.818 477.303 355.845C476.467 357.578 482.708 357.299 486.141 357.021L485.254 360.894C485.004 361.991 484.005 362.752 482.881 362.703L470.666 362.169C469.212 362.106 468.172 360.74 468.496 359.321L477.151 321.493C477.402 320.396 478.4 319.635 479.524 319.684L491.74 320.218C493.194 320.282 494.234 321.648 493.91 323.066L490.508 337.931Z" fill="#5E93D1"/>
</g>
<path id="Fill 20_3" fill-rule="evenodd" clip-rule="evenodd" d="M480.302 324.696C480.017 325.936 479.286 326.816 478.669 326.662C478.052 326.507 477.782 325.377 478.066 324.137C478.351 322.897 479.082 322.017 479.699 322.172C480.317 322.326 480.587 323.457 480.302 324.696Z" fill="#020101"/>
<path id="Fill 22_2" fill-rule="evenodd" clip-rule="evenodd" d="M478.873 331.111C478.588 332.351 477.858 333.232 477.24 333.077C476.623 332.923 476.353 331.792 476.638 330.553C476.922 329.312 477.653 328.432 478.271 328.587C478.888 328.741 479.158 329.872 478.873 331.111Z" fill="#020101"/>
<g id="T-shirt color">
<path id="T-Shirt" d="M374.258 308.477L366.072 308.082C366.072 308.082 368.188 313.534 370.427 320.545C374.855 334.406 385.358 337.521 394.509 337.505C403.057 337.492 405.961 329.385 400.405 319.989C396.829 313.94 392.187 310.239 391.131 309.442C401.924 310.172 408.645 311.527 414.869 317.365C426.719 328.48 436.315 348.97 440.261 369.213L418.606 378.877L410.892 408.681L354.218 407.818C354.218 407.818 354.714 402.358 353.492 394.47C351.9 384.152 346.153 376.452 346.153 376.452L340.453 385.117L305.002 364.218C316.608 343.054 332.797 321.232 343.591 314.288C351.216 309.38 358.197 308.149 365.019 308.082C368.122 308.051 371.236 308.262 374.258 308.477Z" fill="#5E93D1"/>
</g>
<path id="Stroke 31" opacity="0.202962" d="M411.146 409.2C413.31 381.706 427.62 375.217 416.823 344.383" stroke="black" stroke-width="3"/>
<path id="Stroke 35" opacity="0.202055" d="M390.911 309.28C390.911 309.28 396.346 313.121 400.405 319.989C405.961 329.385 403.057 337.492 394.509 337.505C385.358 337.521 374.855 334.406 370.428 320.545C368.188 313.534 366.072 308.082 366.072 308.082" stroke="black" stroke-width="3"/>
<path id="Stroke 37" opacity="0.202962" d="M360.71 357.205L347.56 377.129" stroke="black" stroke-width="3"/>
</g>
</g>
<g id="Girl / Legs / 5">
<g id="Group 17_2">
<g id="Shoes">
<path id="Shoes_2" fill-rule="evenodd" clip-rule="evenodd" d="M369.569 774.921L353.148 775.744C353.148 775.744 340.742 778.796 332.172 795.651H371.325L369.569 774.921ZM489.605 795.845C477.987 783.795 447.079 775.692 447.079 775.692L435.496 775.336L433.983 795.945L489.605 795.845Z" fill="#0D0B6D"/>
</g>
<g id="Skin color_2">
<path id="Skin_2" fill-rule="evenodd" clip-rule="evenodd" d="M345.881 786.582C355.343 786.394 361.821 781.295 365.181 777.773L369.037 778.48L382.363 571.941L339.393 591.849L355.746 774.11C353.011 775.947 337.268 786.753 345.881 786.582ZM474.621 785.844L452.467 776.229C451.195 767.789 445.817 731.064 440.856 681.726C436.405 637.461 432.53 596.946 432.53 596.946L395.571 598.672L435.988 778.069H440.377C447.41 781.655 461.044 787.331 474.621 785.844Z" fill="#E576C6"/>
</g>
<g id="Skirt color">
<path id="Skirt" d="M355.154 406.913C355.154 406.913 343.701 412.389 333.734 442.115C320.395 481.901 316.487 602.41 316.487 602.41H444.926L411.827 407.776L355.154 406.913Z" fill="#2F2F3D"/>
</g>
</g>
</g>
</g>
<g id="Person / Robot / 2">
<g id="Robot / Legs / 3">
<g id="Group 13">
<g id="Legs color">
<path id="Legs" fill-rule="evenodd" clip-rule="evenodd" d="M816.73 583.175H827.407V545.291C827.407 539.646 831.971 535.07 837.6 535.07H870.502C876.131 535.07 880.694 539.646 880.694 545.291V582.131H890.08C893.413 582.131 896.114 584.84 896.114 588.181V711.074C896.114 714.416 893.413 717.125 890.08 717.125H870.998C867.665 717.125 864.964 714.416 864.964 711.074C864.964 707.733 867.665 705.024 870.998 705.024H884.046V678.553C880.47 673.076 875.975 669.813 871.091 669.813C859.435 669.813 849.987 688.397 849.987 711.322C849.987 734.246 859.435 752.831 871.091 752.831C881.751 752.831 890.565 737.286 891.993 717.092C894.436 716.319 896.208 714.028 896.208 711.322V642.365C907.112 657.757 914.216 682.908 914.216 711.322C914.216 758.167 894.908 796.142 871.091 796.142C870.518 796.142 869.948 796.12 869.381 796.076H837.58C837.012 796.12 836.442 796.142 835.869 796.142C812.052 796.142 792.745 758.167 792.745 711.322C792.745 682.957 799.823 657.844 810.696 642.445V589.226C810.696 585.884 813.397 583.175 816.73 583.175ZM827.407 602.44V595.276H822.764V630.49C826.896 627.9 831.3 626.502 835.869 626.502L836.004 626.503H870.956L871.091 626.502C875.605 626.502 879.957 627.866 884.046 630.396V594.232H880.694V602.44C880.694 608.085 876.131 612.662 870.502 612.662H837.6C831.971 612.662 827.407 608.085 827.407 602.44Z" fill="#3553E2"/>
</g>
<path id="Path_2" fill-rule="evenodd" clip-rule="evenodd" d="M891.887 716.849C891.316 717.028 890.71 717.125 890.081 717.125H870.998C867.666 717.125 864.964 714.416 864.964 711.074C864.964 707.733 867.666 705.024 870.998 705.024H884.047V678.428C880.454 672.855 875.919 669.529 870.988 669.529C859.332 669.529 849.884 688.113 849.884 711.037C849.884 733.962 859.332 752.546 870.988 752.546C881.64 752.546 890.45 737.022 891.887 716.849L891.887 716.849Z" fill="#19141E"/>
<path id="Fill 10_5" fill-rule="evenodd" clip-rule="evenodd" d="M880.872 574.164H827.585V555.863H880.872V574.164Z" fill="#19141E"/>
<g id="Overlay">
<path id="Shape" opacity="0.395764" fill-rule="evenodd" clip-rule="evenodd" d="M822.36 630.543C822.54 630.422 822.723 630.3 822.909 630.177V595.577H827.73V583.475H816.875C813.543 583.475 810.842 586.184 810.842 589.526C810.746 612.748 810.697 630.209 810.696 641.908C811.028 641.471 811.363 641.042 811.702 640.622C811.957 640.27 812.207 639.922 812.437 639.674C812.497 639.609 812.555 639.546 812.611 639.484C800.484 654.496 792.426 681.058 792.426 711.322C792.426 758.167 811.733 796.142 835.551 796.142C836.124 796.142 836.694 796.12 837.261 796.076H869.062C846.038 794.31 827.647 757.04 827.647 711.322C827.647 664.565 846.883 626.645 870.638 626.502L835.685 626.503C835.64 626.502 835.596 626.502 835.551 626.502C830.95 626.502 826.517 627.919 822.36 630.543ZM815.304 636.412C814.981 636.75 814.66 637.097 814.342 637.451C814.626 637.121 814.929 636.786 815.304 636.412ZM884.046 705.024H870.998C867.665 705.024 864.964 707.733 864.964 711.074C864.964 714.416 867.665 717.125 870.998 717.125H890.08C893.413 717.125 896.114 714.416 896.114 711.074V588.181C896.114 584.84 893.413 582.131 890.08 582.131H870.998C867.665 582.131 864.964 584.84 864.964 588.181C864.964 591.523 867.665 594.232 870.998 594.232H884.046V705.024Z" fill="black"/>
</g>
</g>
</g>
<g id="Robot / Body / 1">
<g id="Group 25">
<path id="Stroke 1_3" d="M755.252 536.125L770.955 420.996" stroke="#19141E" stroke-width="27" stroke-linecap="round"/>
<path id="Fill 9_4" fill-rule="evenodd" clip-rule="evenodd" d="M901.47 521.917H803.548L788.616 505.842H916.402L901.47 521.917Z" fill="#19141E"/>
<path id="Stroke 11_2" d="M959.707 532.298L943.153 417.288" stroke="#19141E" stroke-width="27" stroke-linecap="round"/>
<g id="Body color">
<path id="Body" fill-rule="evenodd" clip-rule="evenodd" d="M762.793 482.812V450.351C762.02 450.202 761.247 450.017 760.475 449.797C746.2 445.715 737.937 430.833 742.019 416.557C746.1 402.281 760.982 394.017 775.258 398.1C775.849 398.269 776.431 398.457 777.001 398.662C780.757 396.649 785.04 395.506 789.578 395.506H915.44C919.527 395.506 923.408 396.433 926.883 398.089C930.985 395.554 935.819 394.091 940.995 394.091C955.843 394.091 967.88 406.128 967.88 420.976C967.88 435.412 956.502 447.19 942.224 447.833V482.812C942.224 497.544 930.171 509.597 915.44 509.597H789.578C774.846 509.597 762.793 497.544 762.793 482.812ZM729.341 683.392C729.093 677.095 731.186 671.248 734.845 666.691C724.028 660.62 716.694 649.014 716.739 635.795L716.983 562.98C717.048 543.586 732.97 527.771 752.364 527.836C771.757 527.902 787.572 543.823 787.508 563.217L787.263 636.032C787.223 647.871 781.275 658.376 772.235 664.749C776.32 668.859 779.016 674.367 779.476 680.496C779.546 681.422 779.565 682.339 779.536 683.244C779.403 687.348 774.148 688.891 771.807 685.518C769.137 681.672 765.463 679.348 761.496 679.504C753.883 679.805 748.072 689.131 748.513 700.337L748.515 700.372L748.516 700.408C748.655 703.748 745.145 705.985 742.226 704.357C734.832 700.235 729.699 692.473 729.341 683.392ZM966.646 667.458C978.949 662.685 988.118 651.162 989.16 637.186L994.579 564.573C996.022 545.232 981.378 528.227 962.038 526.785C942.698 525.341 925.693 539.985 924.249 559.326L918.832 631.939C917.926 644.082 923.36 655.304 932.318 662.332C926.121 666.731 921.966 673.859 921.68 681.899C921.647 682.826 921.665 683.743 921.729 684.647C922.024 688.742 927.334 690.077 929.541 686.614C932.058 682.666 935.637 680.199 939.607 680.199C947.225 680.199 953.401 689.289 953.401 700.504V700.576C953.392 703.918 956.989 706.015 959.842 704.273C967.068 699.864 971.89 691.905 971.89 682.817C971.89 677.032 969.934 671.704 966.646 667.458ZM875.567 521.834V537.355H829.451V521.834H875.567Z" fill="#3553E2"/>
</g>
<g id="Overlay_2">
<path id="Shape_2" opacity="0.394764" fill-rule="evenodd" clip-rule="evenodd" d="M921.68 681.899C921.647 682.826 921.665 683.743 921.729 684.647C922.024 688.742 927.334 690.077 929.541 686.614C932.058 682.666 935.637 680.199 939.607 680.199C947.225 680.199 953.401 689.289 953.401 700.504V700.576C953.392 703.918 956.989 706.015 959.842 704.274C967.068 699.864 971.89 691.905 971.89 682.817C971.89 668.693 960.228 657.292 946.001 657.719C932.893 658.113 922.146 668.794 921.68 681.899ZM798.421 450.587C798.421 467.795 810.946 482.074 827.377 484.814C827.614 484.773 827.843 484.733 828.079 484.685C844.166 481.676 856.34 467.552 856.34 450.587C856.34 433.622 844.166 419.498 828.079 416.489C827.843 416.441 827.614 416.401 827.377 416.36C810.946 419.1 798.421 433.379 798.421 450.587ZM853.378 450.633C853.378 461.735 844.379 470.735 833.277 470.735C822.175 470.735 813.176 461.735 813.176 450.633C813.176 439.531 822.175 430.531 833.277 430.531C844.379 430.531 853.378 439.531 853.378 450.633ZM968.022 420.976C968.022 406.128 955.985 394.092 941.137 394.092C926.289 394.092 914.253 406.128 914.253 420.976C914.253 435.824 926.289 447.861 941.137 447.861C955.985 447.861 968.022 435.824 968.022 420.976ZM961.535 415.993C961.535 423.196 955.696 429.035 948.493 429.035C941.29 429.035 935.451 423.196 935.451 415.993C935.451 408.79 941.29 402.951 948.493 402.951C955.696 402.951 961.535 408.79 961.535 415.993ZM777.049 398.734C776.479 398.528 775.898 398.341 775.306 398.171C761.03 394.089 746.148 402.352 742.067 416.628C737.985 430.905 746.248 445.786 760.524 449.868C761.295 450.089 762.068 450.273 762.841 450.423V422.362C762.841 412.168 768.613 403.256 777.049 398.734ZM734.846 666.56C731.187 671.117 729.094 676.964 729.342 683.261C729.7 692.342 734.833 700.104 742.227 704.226C745.146 705.853 748.657 703.616 748.518 700.277C748.516 700.253 748.516 700.229 748.514 700.205C748.073 688.999 753.884 679.673 761.497 679.373C765.464 679.216 769.139 681.541 771.808 685.386C774.149 688.76 779.405 687.216 779.537 683.113C779.566 682.207 779.547 681.29 779.477 680.365C779.017 674.236 776.321 668.728 772.236 664.618C781.276 658.245 787.224 647.74 787.264 635.901L787.509 563.085C787.574 543.691 771.759 527.77 752.365 527.705C732.971 527.64 717.049 543.454 716.985 562.849L716.74 635.664C716.696 648.883 724.03 660.489 734.846 666.56ZM874.756 478.426C874.756 474.614 871.665 471.522 867.852 471.522C864.039 471.522 860.948 474.614 860.948 478.426C860.948 482.239 864.039 485.33 867.852 485.33C871.665 485.33 874.756 482.239 874.756 478.426ZM894.711 478.426C894.711 474.614 891.619 471.522 887.807 471.522C883.994 471.522 880.903 474.614 880.903 478.426C880.903 482.239 883.994 485.33 887.807 485.33C891.619 485.33 894.711 482.239 894.711 478.426ZM985.678 569.967C985.973 566.165 983.13 562.845 979.328 562.55C975.526 562.256 972.206 565.099 971.911 568.9C971.616 572.702 974.46 576.022 978.261 576.317C982.063 576.611 985.383 573.768 985.678 569.967ZM984.202 589.012C984.497 585.21 981.654 581.89 977.853 581.595C974.051 581.301 970.73 584.144 970.436 587.945C970.141 591.747 972.984 595.067 976.786 595.362C980.588 595.657 983.907 592.814 984.202 589.012ZM982.691 608.518C982.986 604.717 980.143 601.396 976.341 601.101C972.539 600.807 969.219 603.65 968.925 607.451C968.63 611.253 971.473 614.574 975.274 614.868C979.076 615.163 982.396 612.32 982.691 608.518ZM875.91 537.152V521.631H829.347V537.152H875.91Z" fill="black"/>
</g>
<path id="Path_3" fill-rule="evenodd" clip-rule="evenodd" d="M827.539 484.858C811.108 482.118 798.583 467.839 798.583 450.632C798.583 433.424 811.108 419.145 827.539 416.405C825.677 416.095 823.761 415.933 821.81 415.933C802.646 415.933 787.111 431.467 787.111 450.632C787.111 469.796 802.646 485.33 821.81 485.33C823.761 485.33 825.677 485.169 827.539 484.858Z" fill="#19141E"/>
</g>
</g>
<g id="Robot / Head / 3">
<g id="Group 15">
<path id="Stroke 1_4" d="M871.368 310.7C871.368 310.7 859.585 318.493 858.288 331.977" stroke="#19141E" stroke-width="5" stroke-linecap="round"/>
<g id="Face color_2">
<path id="Face_2" fill-rule="evenodd" clip-rule="evenodd" d="M872.483 316.54C868.556 316.54 865.372 313.355 865.372 309.428C865.372 305.5 868.556 302.317 872.483 302.317C876.411 302.317 879.595 305.5 879.595 309.428C879.595 313.355 876.411 316.54 872.483 316.54ZM906.36 367.402H870.677V395.661H850.19V367.402H816.383C808.635 367.402 802.296 361.063 802.296 353.315V343.819C802.296 336.071 808.635 329.732 816.383 329.732H906.36C914.107 329.732 920.446 336.071 920.446 343.819V353.315C920.446 361.063 914.107 367.402 906.36 367.402Z" fill="#3553E2"/>
</g>
<g id="Overlay_3">
<path id="Fill 5_3" opacity="0.399042" fill-rule="evenodd" clip-rule="evenodd" d="M870.677 395.661H850.19V367.319H870.677V395.661Z" fill="black"/>
</g>
<path id="Fill 7_6" opacity="0.400367" fill-rule="evenodd" clip-rule="evenodd" d="M870.677 386.494L850.19 379.746V367.205H870.677V386.494Z" fill="black"/>
<path id="Fill 9_5" fill-rule="evenodd" clip-rule="evenodd" d="M906.36 367.402C914.107 367.402 920.446 361.063 920.446 353.316V343.819C920.446 336.071 914.107 329.732 906.36 329.732C898.612 329.732 892.273 336.071 892.273 343.819V353.316C892.273 361.063 898.612 367.402 906.36 367.402Z" fill="#19141E"/>
<path id="Fill 10_6" fill-rule="evenodd" clip-rule="evenodd" d="M884.266 348.567C884.266 354.532 879.43 359.368 873.465 359.368C867.5 359.368 862.664 354.532 862.664 348.567C862.664 342.602 867.5 337.766 873.465 337.766C879.43 337.766 884.266 342.602 884.266 348.567Z" fill="white"/>
<path id="Fill 11_4" fill-rule="evenodd" clip-rule="evenodd" d="M877.028 347.05C877.028 349.79 874.807 352.012 872.066 352.012C869.326 352.012 867.105 349.79 867.105 347.05C867.105 344.309 869.326 342.088 872.066 342.088C874.807 342.088 877.028 344.309 877.028 347.05Z" fill="#19141E"/>
<path id="Fill 12_4" fill-rule="evenodd" clip-rule="evenodd" d="M831.597 348.567C831.597 354.532 826.761 359.368 820.796 359.368C814.83 359.368 809.995 354.532 809.995 348.567C809.995 342.602 814.83 337.766 820.796 337.766C826.761 337.766 831.597 342.602 831.597 348.567Z" fill="white"/>
<path id="Fill 13_3" fill-rule="evenodd" clip-rule="evenodd" d="M824.359 347.05C824.359 349.79 822.138 352.012 819.397 352.012C816.657 352.012 814.436 349.79 814.436 347.05C814.436 344.309 816.657 342.088 819.397 342.088C822.138 342.088 824.359 344.309 824.359 347.05Z" fill="#19141E"/>
<path id="Fill 14_4" fill-rule="evenodd" clip-rule="evenodd" d="M849.599 341.164L839.938 348.495L849.599 355.97" fill="#19141E"/>
</g>
</g>
</g>
</g>
</svg>
