<svg width="70" height="71" viewBox="0 0 70 71" fill="none" xmlns="http://www.w3.org/2000/svg">
<g filter="url(#filter0_d)">
<circle cx="35.0001" cy="22.3805" r="16.7999" fill="#0823A5"/>
</g>
<path d="M40.2502 22.3806C40.2502 23.773 39.6971 25.1083 38.7125 26.0929C37.7279 27.0774 36.3926 27.6306 35.0002 27.6306C33.6078 27.6306 32.2725 27.0774 31.2879 26.0929C30.3033 25.1083 29.7502 23.773 29.7502 22.3806C29.7502 22.0813 29.7817 21.7891 29.8359 21.5056H28.0002V28.5003C28.0002 28.9868 28.3939 29.3806 28.8804 29.3806H41.1217C41.3549 29.3801 41.5783 29.2872 41.743 29.1221C41.9077 28.9571 42.0002 28.7335 42.0002 28.5003V21.5056H40.1644C40.2187 21.7891 40.2502 22.0813 40.2502 22.3806ZM35.0002 25.8806C35.4599 25.8805 35.9152 25.7898 36.3399 25.6137C36.7646 25.4377 37.1504 25.1797 37.4754 24.8546C37.8004 24.5294 38.0582 24.1434 38.234 23.7186C38.4099 23.2938 38.5003 22.8386 38.5002 22.3788C38.5001 21.9191 38.4094 21.4639 38.2334 21.0392C38.0573 20.6145 37.7994 20.2286 37.4742 19.9036C37.149 19.5786 36.763 19.3208 36.3382 19.145C35.9135 18.9691 35.4582 18.8787 34.9984 18.8788C34.07 18.8791 33.1796 19.2481 32.5232 19.9048C31.8668 20.5615 31.4982 21.4521 31.4984 22.3806C31.4987 23.3091 31.8677 24.1994 32.5244 24.8558C33.1812 25.5122 34.0717 25.8808 35.0002 25.8806ZM39.2002 18.7056H41.2984C41.4378 18.7056 41.5716 18.6503 41.6703 18.5519C41.769 18.4535 41.8247 18.32 41.8252 18.1806V16.0823C41.8252 15.9426 41.7697 15.8086 41.6709 15.7098C41.5721 15.6111 41.4382 15.5556 41.2984 15.5556H39.2002C39.0605 15.5556 38.9265 15.6111 38.8277 15.7098C38.7289 15.8086 38.6734 15.9426 38.6734 16.0823V18.1806C38.6752 18.4693 38.9114 18.7056 39.2002 18.7056ZM35.0002 5.58057C30.5446 5.58057 26.2714 7.35056 23.1208 10.5012C19.9702 13.6518 18.2002 17.9249 18.2002 22.3806C18.2002 26.8362 19.9702 31.1094 23.1208 34.26C26.2714 37.4106 30.5446 39.1806 35.0002 39.1806C37.2064 39.1806 39.391 38.746 41.4293 37.9017C43.4676 37.0575 45.3196 35.82 46.8796 34.26C48.4396 32.6999 49.6771 30.8479 50.5214 28.8097C51.3657 26.7714 51.8002 24.5868 51.8002 22.3806C51.8002 20.1744 51.3657 17.9898 50.5214 15.9515C49.6771 13.9132 48.4396 12.0612 46.8796 10.5012C45.3196 8.94115 43.4676 7.70367 41.4293 6.85939C39.391 6.01511 37.2064 5.58057 35.0002 5.58057ZM43.7502 29.1863C43.7502 30.2556 42.8752 31.1306 41.8059 31.1306H28.1944C27.1252 31.1306 26.2502 30.2556 26.2502 29.1863V15.5748C26.2502 14.5056 27.1252 13.6306 28.1944 13.6306H41.8059C42.8752 13.6306 43.7502 14.5056 43.7502 15.5748V29.1863Z" fill="white"/>
<defs>
<filter id="filter0_d" x="0.200195" y="0.580566" width="69.5999" height="69.5999" filterUnits="userSpaceOnUse" color-interpolation-filters="sRGB">
<feFlood flood-opacity="0" result="BackgroundImageFix"/>
<feColorMatrix in="SourceAlpha" type="matrix" values="0 0 0 0 0 0 0 0 0 0 0 0 0 0 0 0 0 0 127 0"/>
<feOffset dy="13"/>
<feGaussianBlur stdDeviation="9"/>
<feColorMatrix type="matrix" values="0 0 0 0 0.0658854 0 0 0 0 0.0730469 0 0 0 0 0.1375 0 0 0 0.08 0"/>
<feBlend mode="normal" in2="BackgroundImageFix" result="effect1_dropShadow"/>
<feBlend mode="normal" in="SourceGraphic" in2="effect1_dropShadow" result="shape"/>
</filter>
</defs>
</svg>
