<svg width="48" height="48" viewBox="0 0 48 48" fill="none" xmlns="http://www.w3.org/2000/svg">
<path fill-rule="evenodd" clip-rule="evenodd" d="M34.7681 15.2244C34.7681 14.7202 35.1768 14.3115 35.681 14.3115H39.2816C40.943 14.3115 42.2182 14.9496 43.1533 16.0153C44.0556 17.0437 44.6017 18.4232 44.9625 19.8706C45.9512 23.8344 46.0191 26.9114 44.9428 30.1314C44.457 31.5934 43.9116 32.9643 43.0565 33.9643C42.1487 35.0261 40.9355 35.623 39.2815 35.623H25.8093V36.7565H34.4776C34.9818 36.7565 35.3905 37.1652 35.3905 37.6694V39.5862C35.3905 41.271 34.6508 42.5536 33.5874 43.4852C32.55 44.394 31.2092 44.9698 29.9367 45.3388L29.9358 45.3391C26.1191 46.4417 23.0234 46.2717 19.8357 45.3382L19.8345 45.3378C17.2275 44.5703 14.3843 42.8474 14.3843 39.5862V30.4448C14.3843 27.3286 16.9474 24.6559 20.0923 24.6559H29.6825C32.3681 24.6559 34.7681 22.2881 34.7681 19.4808V15.2244ZM36.5939 16.1373V19.4808C36.5939 23.2825 33.3903 26.4817 29.6825 26.4817H20.0923C17.9929 26.4817 16.21 28.2993 16.21 30.4448V39.5862C16.21 41.5326 17.8923 42.8627 20.3499 43.5863C23.2319 44.4302 25.9725 44.5836 29.429 43.5851C30.5718 43.2535 31.6282 42.7743 32.3843 42.1119C33.1146 41.4721 33.5648 40.667 33.5648 39.5862V38.5823H24.8965C24.3923 38.5823 23.9836 38.1736 23.9836 37.6694V34.7101C23.9836 34.206 24.3923 33.7973 24.8965 33.7973H39.2815C40.4204 33.7973 41.1198 33.4199 41.6689 32.7778C42.2706 32.074 42.7264 31.0116 43.2103 29.5554L43.2108 29.5538C44.1457 26.7578 44.1238 24.0522 43.1909 20.3123L43.1909 20.3121C42.8601 18.9849 42.4051 17.9309 41.7809 17.2194C41.1895 16.5454 40.4129 16.1373 39.2816 16.1373H36.5939Z" fill="white"/>
<path fill-rule="evenodd" clip-rule="evenodd" d="M29.3918 41.0678C29.3925 41.0775 29.3966 41.0879 29.4061 41.0975C29.4112 41.1026 29.4156 41.1051 29.4178 41.1061C29.4192 41.1067 29.4195 41.1067 29.4197 41.1066C29.4198 41.1066 29.4198 41.1066 29.4199 41.1066C29.424 41.1066 29.4257 41.106 29.4269 41.1055C29.4287 41.1047 29.4319 41.1029 29.4355 41.0993C29.4391 41.0956 29.4422 41.091 29.4444 41.0858C29.4463 41.0811 29.4482 41.0745 29.4482 41.0644C29.4482 41.0564 29.4467 41.0512 29.4451 41.0473C29.4432 41.0428 29.4403 41.0383 29.4366 41.0346C29.4328 41.0308 29.4294 41.0288 29.4273 41.0279C29.4259 41.0273 29.424 41.0267 29.4199 41.0267C29.4167 41.0267 29.4155 41.0271 29.4144 41.0276C29.4127 41.0283 29.4095 41.0301 29.4057 41.0339C29.4019 41.0377 29.3985 41.0426 29.3961 41.0484C29.3942 41.0528 29.3923 41.059 29.3918 41.0678ZM27.566 41.0563C27.5749 40.0396 28.3905 39.2009 29.4199 39.2009C30.4527 39.2009 31.2739 40.0447 31.2739 41.0644C31.2739 42.0856 30.4557 42.9324 29.4199 42.9324C28.3891 42.9324 27.5659 42.0812 27.5659 41.0644C27.5659 41.0617 27.5659 41.059 27.566 41.0563Z" fill="white"/>
<path fill-rule="evenodd" clip-rule="evenodd" d="M18.2681 3.00144C21.2565 2.47091 24.8537 2.44478 28.166 2.99072L28.1697 2.99133C31.0696 3.48131 33.7257 5.70334 33.7257 8.88404V18.0342C33.7257 21.1954 31.2075 23.8231 28.0176 23.8231H18.4275C15.6738 23.8231 13.3419 26.2054 13.342 28.8728V33.2547C13.342 33.7588 12.9333 34.1675 12.4292 34.1675H9.13359C7.49059 34.1675 6.15064 33.5605 5.13853 32.5227C4.14708 31.5061 3.51111 30.1209 3.14561 28.6012L3.14551 28.6008C2.19525 24.6412 2.23266 22.2141 3.14556 18.4227C4.01021 14.8122 6.82983 12.856 10.0316 12.856H22.3186V11.7643H13.6324C13.1282 11.7643 12.7195 11.3556 12.7195 10.8515V8.89308C12.7195 7.45775 12.9005 6.10464 13.813 5.03358C14.7146 3.97528 16.1766 3.3717 18.2679 3.00148M27.8673 4.79186C24.751 4.27846 21.363 4.30627 18.587 4.79911L18.5866 4.7992C16.6193 5.14742 15.6839 5.65287 15.2028 6.2176C14.7324 6.76966 14.5453 7.55372 14.5453 8.89308V9.93859H23.2315C23.7356 9.93859 24.1443 10.3473 24.1443 10.8515V13.7689C24.1443 14.2731 23.7356 14.6818 23.2315 14.6818H10.0316C7.6484 14.6818 5.58284 16.0837 4.92097 18.8484L4.92069 18.8496C4.07371 22.3671 4.03938 24.5016 4.92074 28.1743C5.23772 29.4923 5.75561 30.5405 6.44558 31.248C7.1149 31.9342 7.98392 32.3418 9.13359 32.3418H11.5163V28.8728C11.5162 25.2006 14.6619 21.9974 18.4275 21.9974H28.0176C30.1618 21.9974 31.8999 20.2248 31.8999 18.0342V8.88404C31.8999 6.85732 30.1747 5.18246 27.8673 4.79186Z" fill="white"/>
<path fill-rule="evenodd" clip-rule="evenodd" d="M17.7975 7.4092C17.7979 7.41513 17.7991 7.41931 17.8005 7.42258C17.8024 7.42707 17.8053 7.43149 17.809 7.43524C17.8127 7.43899 17.8161 7.44096 17.8182 7.44186C17.8197 7.44249 17.8215 7.44313 17.8256 7.44313C17.8297 7.44313 17.8316 7.44249 17.8331 7.44186C17.8352 7.44096 17.8386 7.43899 17.8423 7.43524C17.846 7.43149 17.8489 7.42707 17.8508 7.42258C17.8524 7.41868 17.8538 7.4135 17.8538 7.40561C17.8538 7.39472 17.85 7.38314 17.8394 7.37247C17.8344 7.36736 17.83 7.36486 17.8278 7.3639C17.8264 7.36332 17.8261 7.36333 17.8258 7.36334C17.8257 7.36334 17.8257 7.36335 17.8256 7.36335C17.8219 7.36335 17.8207 7.36387 17.8204 7.36404C17.8203 7.36405 17.8203 7.36406 17.8203 7.36407C17.8193 7.36448 17.8166 7.3659 17.8129 7.3696C17.8064 7.37627 17.7987 7.38849 17.7975 7.4092ZM15.9717 7.39758C15.9806 6.38977 16.7829 5.5376 17.8256 5.5376C18.8565 5.5376 19.6796 6.38874 19.6796 7.40561C19.6796 8.42533 18.8583 9.26888 17.8256 9.26888C16.793 9.26888 15.9717 8.42533 15.9717 7.40561C15.9717 7.40293 15.9717 7.40026 15.9717 7.39758Z" fill="white"/>
</svg>
