<svg width="17" height="33" viewBox="0 0 17 33" fill="none" xmlns="http://www.w3.org/2000/svg">
<path d="M3.62759 19.0197L2.16699 19.75V17.8026L3.62759 17.0723V19.0197Z" fill="#FEAF30"/>
<path opacity="0.2" d="M3.62759 19.0197L2.16699 19.75V18.4111L3.62759 19.0197Z" fill="#FEAF30"/>
<path opacity="0.45" d="M3.38416 17.194V18.898L2.16699 19.5066V19.75L3.62759 19.0197V17.0723L3.38416 17.194Z" fill="white"/>
<path d="M6.54849 17.559L5.08789 18.2893V16.3419L6.54849 15.6116V17.559Z" fill="#FEAF30"/>
<path opacity="0.45" d="M6.30506 15.7333V17.4373L5.08789 18.0459V18.2893L6.54849 17.559V15.6116L6.30506 15.7333Z" fill="white"/>
<path d="M9.46988 16.0986L8.00928 16.8289V14.8814L9.46988 14.1511V16.0986Z" fill="#FEAF30"/>
<path opacity="0.15" d="M9.46988 16.0986L8.00928 14.8814L9.46988 14.1511V16.0986Z" fill="white"/>
<path opacity="0.45" d="M9.22644 14.2728V15.9769L8.00928 16.5855V16.8289L9.46988 16.0986V14.1511L9.22644 14.2728Z" fill="white"/>
<path d="M12.3908 14.6379L10.9302 15.3682V13.4207L12.3908 12.6904V14.6379Z" fill="#FEAF30"/>
<path opacity="0.45" d="M12.1473 12.8121V14.5162L10.9302 15.1248V15.3682L12.3908 14.6379V12.6904L12.1473 12.8121Z" fill="white"/>
<path d="M15.3122 13.1772L13.8516 13.9075V11.96L15.3122 11.2297V13.1772Z" fill="#FEAF30"/>
<path opacity="0.45" d="M15.0687 11.3515V13.0555L13.8516 13.6641V13.9075L15.3122 13.1772V11.2297L15.0687 11.3515Z" fill="white"/>
<path d="M3.62759 22.4277L2.16699 23.158V21.2105L3.62759 20.4802V22.4277Z" fill="#FEAF30"/>
<path opacity="0.45" d="M3.38416 20.6019V22.306L2.16699 22.9146V23.158L3.62759 22.4277V20.4802L3.38416 20.6019Z" fill="white"/>
<path d="M6.54849 20.9672L5.08789 21.6975V19.7501L6.54849 19.0198V20.9672Z" fill="#FEAF30"/>
<path opacity="0.45" d="M6.30506 19.1415V20.8455L5.08789 21.4541V21.6975L6.54849 20.9672V19.0198L6.30506 19.1415Z" fill="white"/>
<path d="M9.46988 19.5065L8.00928 20.2368V18.2894L9.46988 17.5591V19.5065Z" fill="#FEAF30"/>
<path opacity="0.45" d="M9.22644 17.6808V19.3848L8.00928 19.9934V20.2368L9.46988 19.5065V17.5591L9.22644 17.6808Z" fill="white"/>
<path d="M12.3908 18.0458L10.9302 18.7761V16.8287L12.3908 16.0984V18.0458Z" fill="#FEAF30"/>
<path opacity="0.45" d="M12.1473 16.2201V17.9241L10.9302 18.5327V18.7761L12.3908 18.0458V16.0984L12.1473 16.2201Z" fill="white"/>
<path d="M15.3122 16.5854L13.8516 17.3157V15.3682L15.3122 14.6379V16.5854Z" fill="#FEAF30"/>
<path opacity="0.45" d="M15.0687 14.7597V16.4637L13.8516 17.0723V17.3157L15.3122 16.5854V14.6379L15.0687 14.7597Z" fill="white"/>
<path d="M3.62759 25.8359L2.16699 26.5662V24.6187L3.62759 23.8884V25.8359Z" fill="#FEAF30"/>
<path opacity="0.45" d="M3.38416 24.0101V25.7142L2.16699 26.3228V26.5662L3.62759 25.8359V23.8884L3.38416 24.0101Z" fill="white"/>
<path d="M6.54849 24.3752L5.08789 25.1055V23.158L6.54849 22.4277V24.3752Z" fill="#FEAF30"/>
<path opacity="0.45" d="M6.30506 22.5495V24.2535L5.08789 24.8621V25.1055L6.54849 24.3752V22.4277L6.30506 22.5495Z" fill="white"/>
<path d="M9.46988 22.9145L8.00928 23.6448V21.6973L9.46988 20.967V22.9145Z" fill="#FEAF30"/>
<path opacity="0.45" d="M9.22644 21.0888V22.7928L8.00928 23.4014V23.6448L9.46988 22.9145V20.967L9.22644 21.0888Z" fill="white"/>
<path d="M12.3908 21.4541L10.9302 22.1844V20.2369L12.3908 19.5066V21.4541Z" fill="#FEAF30"/>
<path opacity="0.45" d="M12.1473 19.6283V21.3323L10.9302 21.9409V22.1844L12.3908 21.4541V19.5066L12.1473 19.6283Z" fill="white"/>
<path d="M15.3122 19.9934L13.8516 20.7237V18.7762L15.3122 18.0459V19.9934Z" fill="#FEAF30"/>
<path opacity="0.2" d="M15.3122 19.9933L13.8516 20.7236V19.3848L15.3122 19.9933Z" fill="#FEAF30"/>
<path opacity="0.45" d="M15.0687 18.1676V19.8716L13.8516 20.4802V20.7237L15.3122 19.9934V18.0459L15.0687 18.1676Z" fill="white"/>
<path d="M3.62759 29.2439L2.16699 29.9742V28.0267L3.62759 27.2964V29.2439Z" fill="#FEAF30"/>
<path opacity="0.45" d="M3.38416 27.4181V29.1221L2.16699 29.7307V29.9742L3.62759 29.2439V27.2964L3.38416 27.4181Z" fill="white"/>
<path d="M6.54849 27.7832L5.08789 28.5135V26.566L6.54849 25.8357V27.7832Z" fill="#FEAF30"/>
<path opacity="0.45" d="M6.30506 25.9574V27.6614L5.08789 28.27V28.5135L6.54849 27.7832V25.8357L6.30506 25.9574Z" fill="white"/>
<path d="M9.46988 26.3227L8.00928 27.053V25.1055L9.46988 24.3752V26.3227Z" fill="#FEAF30"/>
<path opacity="0.15" d="M9.46988 26.3227L8.00928 25.1055L9.46988 24.3752V26.3227Z" fill="white"/>
<path opacity="0.45" d="M9.22644 24.497V26.201L8.00928 26.8096V27.053L9.46988 26.3227V24.3752L9.22644 24.497Z" fill="white"/>
<path d="M12.3908 24.862L10.9302 25.5923V23.6449L12.3908 22.9146V24.862Z" fill="#FEAF30"/>
<path opacity="0.45" d="M12.1473 23.0363V24.7403L10.9302 25.3489V25.5923L12.3908 24.862V22.9146L12.1473 23.0363Z" fill="white"/>
<path d="M15.3122 23.4016L13.8516 24.1319V22.1844L15.3122 21.4541V23.4016Z" fill="#FEAF30"/>
<path opacity="0.45" d="M15.0687 21.5758V23.2799L13.8516 23.8884V24.1319L15.3122 23.4016V21.4541L15.0687 21.5758Z" fill="white"/>
<path d="M3.62759 5.3874L2.16699 6.1177V4.17024L3.62759 3.43994V5.3874Z" fill="#FEAF30"/>
<path opacity="0.15" d="M3.62759 4.53539L2.16699 4.17024L3.62759 3.43994V4.53539Z" fill="white"/>
<path opacity="0.45" d="M3.38416 3.56166V5.26569L2.16699 5.87427V6.1177L3.62759 5.3874V3.43994L3.38416 3.56166Z" fill="white"/>
<path d="M6.54849 3.92671L5.08789 4.65701V2.70955L6.54849 1.97925V3.92671Z" fill="#FEAF30"/>
<path opacity="0.45" d="M6.30506 2.10096V3.80499L5.08789 4.41358V4.65701L6.54849 3.92671V1.97925L6.30506 2.10096Z" fill="white"/>
<path d="M9.46988 2.46626L8.00928 3.19656V1.2491L9.46988 0.518799V2.46626Z" fill="#FEAF30"/>
<path opacity="0.45" d="M9.22644 0.640515V2.34455L8.00928 2.95313V3.19656L9.46988 2.46626V0.518799L9.22644 0.640515Z" fill="white"/>
<path d="M12.3908 1.00557L10.9302 1.73587V-0.211596L12.3908 -0.941895V1.00557Z" fill="#FEAF30"/>
<path opacity="0.45" d="M12.1473 -0.820178V0.883852L10.9302 1.49243V1.73587L12.3908 1.00557V-0.941895L12.1473 -0.820178Z" fill="white"/>
<path d="M15.3122 -0.45488L13.8516 0.275419V-1.67204L15.3122 -2.40234V-0.45488Z" fill="#FEAF30"/>
<path opacity="0.45" d="M15.0687 -2.28063V-0.576597L13.8516 0.0319858V0.275419L15.3122 -0.45488V-2.40234L15.0687 -2.28063Z" fill="white"/>
<path d="M3.62759 1.97945L2.16699 2.70975V0.762281L3.62759 0.0319824V1.97945Z" fill="#FEAF30"/>
<path opacity="0.45" d="M3.38416 0.153699V1.85773L2.16699 2.46631V2.70975L3.62759 1.97945V0.0319824L3.38416 0.153699Z" fill="white"/>
<path d="M6.54849 0.518753L5.08789 1.24905V-0.698412L6.54849 -1.42871V0.518753Z" fill="#FEAF30"/>
<path opacity="0.2" d="M6.54849 0.518679L5.08789 1.24898V-0.698486L6.54849 0.518679Z" fill="#FEAF30"/>
<path opacity="0.45" d="M6.30506 -1.30699V0.397037L5.08789 1.00562V1.24905L6.54849 0.518753V-1.42871L6.30506 -1.30699Z" fill="white"/>
<path d="M3.62759 8.79561L2.16699 9.52591V7.57844L3.62759 6.84814V8.79561Z" fill="#FEAF30"/>
<path opacity="0.45" d="M3.38416 6.96986V8.67389L2.16699 9.28247V9.52591L3.62759 8.79561V6.84814L3.38416 6.96986Z" fill="white"/>
<path d="M6.54849 7.33491L5.08789 8.06521V6.11775L6.54849 5.38745V7.33491Z" fill="#FEAF30"/>
<path opacity="0.45" d="M6.30506 5.50917V7.2132L5.08789 7.82178V8.06521L6.54849 7.33491V5.38745L6.30506 5.50917Z" fill="white"/>
<path d="M9.46988 5.87422L8.00928 6.60452V4.65706L9.46988 3.92676V5.87422Z" fill="#FEAF30"/>
<path opacity="0.45" d="M9.22644 4.04847V5.7525L8.00928 6.36109V6.60452L9.46988 5.87422V3.92676L9.22644 4.04847Z" fill="white"/>
<path d="M12.3908 4.41377L10.9302 5.14407V3.19661L12.3908 2.46631V4.41377Z" fill="#FEAF30"/>
<path opacity="0.45" d="M12.1473 2.58803V4.29206L10.9302 4.90064V5.14407L12.3908 4.41377V2.46631L12.1473 2.58803Z" fill="white"/>
<path d="M15.3122 2.95308L13.8516 3.68338V1.73591L15.3122 1.00562V2.95308Z" fill="#FEAF30"/>
<path opacity="0.45" d="M15.0687 1.12733V2.83136L13.8516 3.43994V3.68338L15.3122 2.95308V1.00562L15.0687 1.12733Z" fill="white"/>
<path d="M3.62759 12.2036L2.16699 12.9339V10.9864L3.62759 10.2561V12.2036Z" fill="#FEAF30"/>
<path opacity="0.45" d="M3.38416 10.3778V12.0819L2.16699 12.6904V12.9339L3.62759 12.2036V10.2561L3.38416 10.3778Z" fill="white"/>
<path d="M6.54849 10.7429L5.08789 11.4732V9.52571L6.54849 8.79541V10.7429Z" fill="#FEAF30"/>
<path opacity="0.45" d="M6.30506 8.91713V10.6212L5.08789 11.2297V11.4732L6.54849 10.7429V8.79541L6.30506 8.91713Z" fill="white"/>
<path d="M9.46988 9.28243L8.00928 10.0127V8.06526L9.46988 7.33496V9.28243Z" fill="#FEAF30"/>
<path opacity="0.45" d="M9.22644 7.45668V9.16071L8.00928 9.76929V10.0127L9.46988 9.28243V7.33496L9.22644 7.45668Z" fill="white"/>
<path d="M12.3908 7.82173L10.9302 8.55203V6.60457L12.3908 5.87427V7.82173Z" fill="#FEAF30"/>
<path opacity="0.15" d="M12.3908 7.82173L10.9302 6.60457L12.3908 5.87427V7.82173Z" fill="white"/>
<path opacity="0.45" d="M12.1473 5.99598V7.70002L10.9302 8.3086V8.55203L12.3908 7.82173V5.87427L12.1473 5.99598Z" fill="white"/>
<path d="M15.3122 6.36104L13.8516 7.09134V5.14387L15.3122 4.41357V6.36104Z" fill="#FEAF30"/>
<path opacity="0.15" d="M15.3122 5.50902L13.8516 5.14387L15.3122 4.41357V5.50902Z" fill="white"/>
<path opacity="0.45" d="M15.0687 4.53529V6.23932L13.8516 6.8479V7.09134L15.3122 6.36104V4.41357L15.0687 4.53529Z" fill="white"/>
<path d="M3.62759 15.6115L2.16699 16.3418V14.3944L3.62759 13.6641V15.6115Z" fill="#FEAF30"/>
<path opacity="0.45" d="M3.38416 13.7858V15.4898L2.16699 16.0984V16.3418L3.62759 15.6115V13.6641L3.38416 13.7858Z" fill="white"/>
<path d="M6.54849 14.1511L5.08789 14.8814V12.9339L6.54849 12.2036V14.1511Z" fill="#FEAF30"/>
<path opacity="0.45" d="M6.30506 12.3253V14.0294L5.08789 14.6379V14.8814L6.54849 14.1511V12.2036L6.30506 12.3253Z" fill="white"/>
<path d="M9.46988 12.6904L8.00928 13.4207V11.4732L9.46988 10.7429V12.6904Z" fill="#FEAF30"/>
<path opacity="0.45" d="M9.22644 10.8646V12.5687L8.00928 13.1773V13.4207L9.46988 12.6904V10.7429L9.22644 10.8646Z" fill="white"/>
<path d="M12.3908 11.2297L10.9302 11.96V10.0125L12.3908 9.28223V11.2297Z" fill="#FEAF30"/>
<path opacity="0.45" d="M12.1473 9.40394V11.108L10.9302 11.7166V11.96L12.3908 11.2297V9.28223L12.1473 9.40394Z" fill="white"/>
<path d="M15.3122 9.76924L13.8516 10.4995V8.55208L15.3122 7.82178V9.76924Z" fill="#FEAF30"/>
<path opacity="0.45" d="M15.0687 7.94349V9.64752L13.8516 10.2561V10.4995L15.3122 9.76924V7.82178L15.0687 7.94349Z" fill="white"/>
<path opacity="0.25" d="M4.60112 30.2175L4.11426 30.461V-0.698462L4.60112 -0.941895V30.2175Z" fill="white"/>
<path opacity="0.25" d="M1.68001 31.6782L0.949707 32.0434V0.883948L1.68001 0.518799V31.6782Z" fill="white"/>
<path opacity="0.25" d="M7.52251 28.7571L7.03564 29.0005V-2.15891L7.52251 -2.40234V28.7571Z" fill="white"/>
<path opacity="0.25" d="M10.4434 27.2964L9.95654 27.5398V-3.6196L10.4434 -3.86304V27.2964Z" fill="white"/>
<path opacity="0.25" d="M13.3648 25.8357L12.8779 26.0791V-5.0803L13.3648 -5.32373V25.8357Z" fill="white"/>
<path opacity="0.25" d="M16.5296 24.2778L15.7993 24.6186V-6.54079L16.5296 -6.88159V24.2778Z" fill="white"/>
</svg>
