<svg width="1234" height="842" viewBox="0 0 1234 842" fill="none" xmlns="http://www.w3.org/2000/svg">
<g id="Illustration 20">
<g id="Background">
<g id="Background Object / Window / 5">
<g id="Group 31">
<path id="Fill 1" fill-rule="evenodd" clip-rule="evenodd" d="M397.651 441.257H413.449V110.559H397.651V441.257Z" fill="#ECF6FF"/>
<path id="Fill 2" fill-rule="evenodd" clip-rule="evenodd" d="M556.084 449.809H561.195V102.764H556.084V449.809Z" fill="#3553E2"/>
<path id="Stroke 3" d="M498.42 102.882V275.908" stroke="#3553E2" stroke-width="15"/>
<path id="Stroke 4" d="M446.129 102.882V275.908" stroke="#3553E2" stroke-width="15"/>
<path id="Stroke 5" d="M556.083 276.286H408.552" stroke="#3553E2" stroke-width="15"/>
<path id="Fill 6" fill-rule="evenodd" clip-rule="evenodd" d="M389.046 449.809H556.084V102.764H389.046V449.809ZM404.488 432.637H540.642V119.935H404.488V432.637Z" fill="#3553E2"/>
<path id="Fill 7" fill-rule="evenodd" clip-rule="evenodd" d="M384.85 432.667H560.279V424.825H384.85V432.667Z" fill="#ECF6FF"/>
<path id="Fill 8" fill-rule="evenodd" clip-rule="evenodd" d="M560.278 432.667H564.609V424.825H560.278V432.667Z" fill="#3553E2"/>
<path id="Fill 9" fill-rule="evenodd" clip-rule="evenodd" d="M504.128 382.767C505.597 396.958 500.82 409.083 500.82 409.083C500.82 409.083 493.663 398.201 492.195 384.01C490.726 369.82 495.502 357.694 495.502 357.694C495.502 357.694 502.659 368.577 504.128 382.767Z" fill="#D2E9FC"/>
<path id="Fill 11" fill-rule="evenodd" clip-rule="evenodd" d="M463.932 393.864C463.473 408.14 457.118 419.332 457.118 419.332C457.118 419.332 451.507 407.382 451.965 393.106C452.424 378.831 458.778 367.638 458.778 367.638C458.778 367.638 464.39 379.589 463.932 393.864Z" fill="#D2E9FC"/>
<path id="Fill 13" fill-rule="evenodd" clip-rule="evenodd" d="M501.029 394.154C507.415 406.901 507.232 419.938 507.232 419.938C507.232 419.938 496.695 412.306 490.308 399.558C483.922 386.811 484.105 373.774 484.105 373.774C484.105 373.774 494.642 381.406 501.029 394.154Z" fill="#D2E9FC"/>
<path id="Fill 15" fill-rule="evenodd" clip-rule="evenodd" d="M510.02 384.29C508.387 398.462 501.103 409.26 501.103 409.26C501.103 409.26 496.467 397.08 498.101 382.908C499.734 368.735 507.018 357.938 507.018 357.938C507.018 357.938 511.653 370.117 510.02 384.29Z" fill="#D2E9FC"/>
<path id="Fill 17" fill-rule="evenodd" clip-rule="evenodd" d="M515.337 394.534C510.078 407.789 500.241 416.31 500.241 416.31C500.241 416.31 498.93 403.34 504.189 390.083C509.448 376.828 519.285 368.307 519.285 368.307C519.285 368.307 520.595 381.278 515.337 394.534Z" fill="#D2E9FC"/>
<path id="Fill 19" fill-rule="evenodd" clip-rule="evenodd" d="M357.299 86.5973H588.552V74.6074H357.299V86.5973Z" fill="#3553E2"/>
<path id="Fill 21" fill-rule="evenodd" clip-rule="evenodd" d="M586.618 86.5973H592.089V74.6074H586.618V86.5973Z" fill="#3553E2"/>
<path id="Fill 22" fill-rule="evenodd" clip-rule="evenodd" d="M586.548 160.453H589.946V152.758H586.548V160.453Z" fill="#3553E2"/>
<path id="Fill 23" fill-rule="evenodd" clip-rule="evenodd" d="M363.232 152.758H584.051V86.5977H363.232V152.758Z" fill="#3553E2"/>
<path id="Fill 24" fill-rule="evenodd" clip-rule="evenodd" d="M359.645 160.453H587.311V152.758H359.645V160.453Z" fill="#3553E2"/>
<path id="Fill 25" fill-rule="evenodd" clip-rule="evenodd" d="M363.232 96.6584H584.051V86.5977H363.232V96.6584Z" fill="#3553E2"/>
<path id="Fill 26" fill-rule="evenodd" clip-rule="evenodd" d="M486.846 398.379H517.031L513.844 424.826H490.032L486.846 398.379Z" fill="#3553E2"/>
<path id="Fill 27" fill-rule="evenodd" clip-rule="evenodd" d="M459.848 397.615C465.123 410.128 464.098 422.886 464.098 422.886C464.098 422.886 454.52 415.354 449.246 402.84C443.97 390.326 444.994 377.569 444.994 377.569C444.994 377.569 454.573 385.101 459.848 397.615Z" fill="#D2E9FC"/>
<path id="Fill 28" fill-rule="evenodd" clip-rule="evenodd" d="M467.807 403.73C463.147 416.546 453.945 424.66 453.945 424.66C453.945 424.66 452.299 411.996 456.959 399.179C461.62 386.363 470.821 378.248 470.821 378.248C470.821 378.248 472.467 390.913 467.807 403.73Z" fill="#D2E9FC"/>
<path id="Fill 29" fill-rule="evenodd" clip-rule="evenodd" d="M447.115 404.408H470.42L467.959 424.825H449.576L447.115 404.408Z" fill="#3553E2"/>
</g>
</g>
<g id="Background Object / Window / 5_2">
<g id="Group 31_2">
<path id="Fill 1_2" fill-rule="evenodd" clip-rule="evenodd" d="M853.46 441.257H869.258V110.559H853.46V441.257Z" fill="#ECF6FF"/>
<path id="Fill 2_2" fill-rule="evenodd" clip-rule="evenodd" d="M1011.89 449.809H1017V102.764H1011.89V449.809Z" fill="#3553E2"/>
<path id="Stroke 3_2" d="M954.228 102.882V275.908" stroke="#3553E2" stroke-width="15"/>
<path id="Stroke 4_2" d="M901.937 102.882V275.908" stroke="#3553E2" stroke-width="15"/>
<path id="Stroke 5_2" d="M1011.89 276.286H864.36" stroke="#3553E2" stroke-width="15"/>
<path id="Fill 6_2" fill-rule="evenodd" clip-rule="evenodd" d="M844.854 449.809H1011.89V102.764H844.854V449.809ZM860.296 432.637H996.45V119.935H860.296V432.637Z" fill="#3553E2"/>
<path id="Fill 7_2" fill-rule="evenodd" clip-rule="evenodd" d="M840.658 432.667H1016.09V424.825H840.658V432.667Z" fill="#ECF6FF"/>
<path id="Fill 8_2" fill-rule="evenodd" clip-rule="evenodd" d="M1016.09 432.667H1020.42V424.825H1016.09V432.667Z" fill="#3553E2"/>
<path id="Fill 9_2" fill-rule="evenodd" clip-rule="evenodd" d="M959.937 382.767C961.405 396.958 956.629 409.083 956.629 409.083C956.629 409.083 949.472 398.201 948.003 384.01C946.534 369.82 951.311 357.694 951.311 357.694C951.311 357.694 958.468 368.577 959.937 382.767Z" fill="#D2E9FC"/>
<path id="Fill 11_2" fill-rule="evenodd" clip-rule="evenodd" d="M919.74 393.864C919.282 408.14 912.927 419.332 912.927 419.332C912.927 419.332 907.315 407.382 907.774 393.106C908.232 378.831 914.587 367.638 914.587 367.638C914.587 367.638 920.199 379.589 919.74 393.864Z" fill="#D2E9FC"/>
<path id="Fill 13_2" fill-rule="evenodd" clip-rule="evenodd" d="M956.838 394.154C963.224 406.901 963.041 419.938 963.041 419.938C963.041 419.938 952.504 412.306 946.117 399.558C939.731 386.811 939.914 373.774 939.914 373.774C939.914 373.774 950.451 381.406 956.838 394.154Z" fill="#D2E9FC"/>
<path id="Fill 15_2" fill-rule="evenodd" clip-rule="evenodd" d="M965.828 384.29C964.195 398.462 956.911 409.26 956.911 409.26C956.911 409.26 952.276 397.08 953.909 382.908C955.543 368.735 962.826 357.938 962.826 357.938C962.826 357.938 967.461 370.117 965.828 384.29Z" fill="#D2E9FC"/>
<path id="Fill 17_2" fill-rule="evenodd" clip-rule="evenodd" d="M971.145 394.534C965.887 407.789 956.049 416.31 956.049 416.31C956.049 416.31 954.738 403.34 959.997 390.083C965.256 376.828 975.093 368.307 975.093 368.307C975.093 368.307 976.404 381.278 971.145 394.534Z" fill="#D2E9FC"/>
<path id="Fill 19_2" fill-rule="evenodd" clip-rule="evenodd" d="M813.107 86.5973H1044.36V74.6074H813.107V86.5973Z" fill="#3553E2"/>
<path id="Fill 21_2" fill-rule="evenodd" clip-rule="evenodd" d="M1042.43 86.5973H1047.9V74.6074H1042.43V86.5973Z" fill="#3553E2"/>
<path id="Fill 22_2" fill-rule="evenodd" clip-rule="evenodd" d="M1042.36 160.453H1045.75V152.758H1042.36V160.453Z" fill="#3553E2"/>
<path id="Fill 23_2" fill-rule="evenodd" clip-rule="evenodd" d="M819.041 152.758H1039.86V86.5977H819.041V152.758Z" fill="#3553E2"/>
<path id="Fill 24_2" fill-rule="evenodd" clip-rule="evenodd" d="M815.453 160.453H1043.12V152.758H815.453V160.453Z" fill="#3553E2"/>
<path id="Fill 25_2" fill-rule="evenodd" clip-rule="evenodd" d="M819.041 96.6584H1039.86V86.5977H819.041V96.6584Z" fill="#3553E2"/>
<path id="Fill 26_2" fill-rule="evenodd" clip-rule="evenodd" d="M942.654 398.379H972.84L969.653 424.826H945.841L942.654 398.379Z" fill="#3553E2"/>
<path id="Fill 27_2" fill-rule="evenodd" clip-rule="evenodd" d="M915.656 397.615C920.931 410.128 919.907 422.886 919.907 422.886C919.907 422.886 910.329 415.354 905.054 402.84C899.779 390.326 900.803 377.569 900.803 377.569C900.803 377.569 910.381 385.101 915.656 397.615Z" fill="#D2E9FC"/>
<path id="Fill 28_2" fill-rule="evenodd" clip-rule="evenodd" d="M923.616 403.73C918.956 416.546 909.754 424.66 909.754 424.66C909.754 424.66 908.107 411.996 912.768 399.179C917.428 386.363 926.629 378.248 926.629 378.248C926.629 378.248 928.276 390.913 923.616 403.73Z" fill="#D2E9FC"/>
<path id="Fill 29_2" fill-rule="evenodd" clip-rule="evenodd" d="M902.924 404.408H926.229L923.768 424.825H905.384L902.924 404.408Z" fill="#3553E2"/>
</g>
</g>
<g id="Background Object / Clock">
<g id="Group 14">
<path id="Fill 1_3" fill-rule="evenodd" clip-rule="evenodd" d="M741.436 104.073C741.436 127.214 724.566 145.974 703.755 145.974C682.945 145.974 666.075 127.214 666.075 104.073C666.075 80.9319 682.945 62.1729 703.755 62.1729C724.566 62.1729 741.436 80.9319 741.436 104.073Z" fill="#3553E2"/>
<path id="Fill 4" fill-rule="evenodd" clip-rule="evenodd" d="M734.047 104.073C734.047 127.214 717.177 145.974 696.366 145.974C675.556 145.974 658.687 127.214 658.687 104.073C658.687 80.9319 675.556 62.1729 696.366 62.1729C717.177 62.1729 734.047 80.9319 734.047 104.073Z" fill="#3553E2"/>
<path id="Fill 6_3" fill-rule="evenodd" clip-rule="evenodd" d="M724.921 104.07C724.921 120.426 713.804 133.89 699.52 135.635C698.483 135.762 697.435 135.825 696.37 135.825C680.596 135.825 667.812 121.61 667.812 104.07C667.812 86.537 680.596 72.3213 696.37 72.3213C697.435 72.3213 698.483 72.3852 699.52 72.5125C713.804 74.2575 724.921 87.7212 724.921 104.07Z" fill="#3553E2"/>
<path id="Fill 8_3" fill-rule="evenodd" clip-rule="evenodd" d="M724.921 104.071C724.921 120.426 713.804 133.89 699.52 135.635C685.23 133.89 674.113 120.426 674.113 104.071C674.113 87.7214 685.23 74.2577 699.52 72.5127C713.804 74.2577 724.921 87.7214 724.921 104.071Z" fill="#ECF6FF"/>
<path id="Stroke 10" d="M697.605 86.416L706.857 108.855" stroke="#3553E2" stroke-width="8"/>
<path id="Stroke 12" d="M707.738 99.4473L687.472 123.943" stroke="#3553E2" stroke-width="8"/>
</g>
</g>
<g id="Background Object / Bedside-table / 3">
<g id="Group 34">
<path id="Fill 1_4" fill-rule="evenodd" clip-rule="evenodd" d="M722.505 558.264H693.057V492.192C693.057 489.385 695.102 487.111 697.625 487.111H717.937C720.46 487.111 722.505 489.385 722.505 492.192V558.264Z" fill="#3553E2"/>
<path id="Fill 3" fill-rule="evenodd" clip-rule="evenodd" d="M760.894 549.714C760.894 552.965 759.851 555.946 758.113 558.263H739.646C737.908 555.946 736.864 552.965 736.864 549.714C736.864 542.332 742.245 536.347 748.881 536.347C755.514 536.347 760.894 542.332 760.894 549.714Z" fill="#3553E2"/>
<path id="Fill 5" fill-rule="evenodd" clip-rule="evenodd" d="M744.729 540.237H753.03V532.363H744.729V540.237Z" fill="#3553E2"/>
<path id="Fill 7_3" fill-rule="evenodd" clip-rule="evenodd" d="M742.544 532.363H755.215V528.28H742.544V532.363Z" fill="#3553E2"/>
<path id="Fill 8_4" fill-rule="evenodd" clip-rule="evenodd" d="M743.983 558.264H726.25L735.117 542.84L743.983 558.264Z" fill="#3553E2"/>
<path id="Fill 9_3" fill-rule="evenodd" clip-rule="evenodd" d="M693.057 549.603H722.505V510.905H693.057V549.603Z" fill="#3553E2"/>
<path id="Fill 10" fill-rule="evenodd" clip-rule="evenodd" d="M697.339 555.643H707.443V553.019H697.339V555.643Z" fill="#3553E2"/>
<path id="Fill 11_3" fill-rule="evenodd" clip-rule="evenodd" d="M693.057 495.025H722.505V494.139H693.057V495.025Z" fill="#3553E2"/>
<path id="Stroke 13" d="M785.175 631.021V653.647" stroke="#3553E2" stroke-width="11"/>
<path id="Stroke 16" d="M752.931 631.021V653.647" stroke="#3553E2" stroke-width="11"/>
<path id="Stroke 19" d="M612.42 631.021V653.647" stroke="#3553E2" stroke-width="11"/>
<path id="Stroke 22" d="M580.176 631.021V653.647" stroke="#3553E2" stroke-width="11"/>
<path id="Fill 24_3" fill-rule="evenodd" clip-rule="evenodd" d="M565.714 631.02H738.731V558.264H565.714V631.02Z" fill="#3553E2"/>
<path id="Fill 25_3" fill-rule="evenodd" clip-rule="evenodd" d="M575.675 622.91H647.853V566.338H575.675V622.91Z" fill="#3553E2"/>
<path id="Fill 26_3" fill-rule="evenodd" clip-rule="evenodd" d="M656.591 622.91H728.769V566.338H656.591V622.91Z" fill="#3553E2"/>
<path id="Fill 27_3" fill-rule="evenodd" clip-rule="evenodd" d="M738.731 631.02H799.374V558.264H738.731V631.02Z" fill="#3553E2"/>
<path id="Fill 28_3" fill-rule="evenodd" clip-rule="evenodd" d="M608.446 540.493V540.493C608.446 543.764 610.831 546.416 613.772 546.416H661.682V534.569H613.772C610.831 534.569 608.446 537.222 608.446 540.493Z" fill="#3553E2"/>
<path id="Fill 29_3" fill-rule="evenodd" clip-rule="evenodd" d="M640.67 540.492V540.493C640.67 542.386 642.05 543.922 643.752 543.922H661.553C661.624 543.922 661.681 543.858 661.681 543.78V537.206C661.681 537.127 661.624 537.063 661.553 537.063H643.752C642.05 537.063 640.67 538.599 640.67 540.492Z" fill="#3553E2"/>
<path id="Fill 30" fill-rule="evenodd" clip-rule="evenodd" d="M601.759 546.416V558.263H654.053C656.994 558.263 659.378 555.611 659.378 552.34C659.378 549.068 656.994 546.416 654.053 546.416H601.759Z" fill="#3553E2"/>
<path id="Fill 31" fill-rule="evenodd" clip-rule="evenodd" d="M601.759 548.943V555.736H623.26C624.947 555.736 626.314 554.216 626.314 552.34C626.314 550.464 624.947 548.943 623.26 548.943H601.759Z" fill="#3553E2"/>
<path id="Fill 32" fill-rule="evenodd" clip-rule="evenodd" d="M626.565 566.338C626.565 570.66 623.416 574.163 619.531 574.163H603.998C600.113 574.163 596.964 570.66 596.964 566.338H626.565Z" fill="#3553E2"/>
<path id="Fill 33" fill-rule="evenodd" clip-rule="evenodd" d="M707.481 566.338C707.481 570.66 704.332 574.163 700.447 574.163H684.914C681.029 574.163 677.88 570.66 677.88 566.338H707.481Z" fill="#3553E2"/>
</g>
</g>
<g id="Background Object / Sofa / 3">
<g id="Group 20">
<path id="Fill 1_5" fill-rule="evenodd" clip-rule="evenodd" d="M392.915 595.287H152.497V531.967H392.915V595.287Z" fill="#3553E2"/>
<path id="Fill 2_3" fill-rule="evenodd" clip-rule="evenodd" d="M325.467 545.367H152.137C143.115 545.367 135.586 537.706 134.787 527.713L129.366 459.968C128.459 448.638 136.487 438.882 146.716 438.882H320.046C329.068 438.882 336.597 446.542 337.397 456.535L342.817 524.28C343.723 535.611 335.696 545.367 325.467 545.367Z" fill="#3553E2"/>
<path id="Fill 4_2" fill-rule="evenodd" clip-rule="evenodd" d="M468.131 626.051H400.671C390.692 626.051 382.853 616.551 383.711 605.495L389.295 533.469C390.054 523.681 397.421 516.165 406.255 516.165H473.715C483.694 516.165 491.533 525.666 490.676 536.721L485.091 608.748C484.332 618.536 476.966 626.051 468.131 626.051Z" fill="#3553E2"/>
<path id="Fill 7_4" fill-rule="evenodd" clip-rule="evenodd" d="M377.617 545.367H185.057C176.035 545.367 168.506 537.706 167.707 527.713L162.287 459.968C161.38 448.638 169.407 438.882 179.637 438.882H372.196C381.218 438.882 388.747 446.542 389.547 456.535L394.967 524.28C395.873 535.611 387.846 545.367 377.617 545.367Z" fill="#3553E2"/>
<path id="Fill 9_4" fill-rule="evenodd" clip-rule="evenodd" d="M461.009 626.052H166.974V592.892H461.009V626.052Z" fill="#3553E2"/>
<path id="Fill 11_4" fill-rule="evenodd" clip-rule="evenodd" d="M420.865 592.891H213.99C203.716 592.891 195.387 583.63 195.387 572.205C195.387 560.78 203.716 551.519 213.99 551.519H420.865C431.139 551.519 439.468 560.78 439.468 572.205C439.468 583.63 431.139 592.891 420.865 592.891Z" fill="#3553E2"/>
<path id="Fill 12" fill-rule="evenodd" clip-rule="evenodd" d="M111.096 652.918H104.04L107.022 626.052H120.042L111.096 652.918Z" fill="#3553E2"/>
<path id="Fill 13_3" fill-rule="evenodd" clip-rule="evenodd" d="M171.74 652.918H164.684L167.666 626.052H180.686L171.74 652.918Z" fill="#3553E2"/>
<path id="Fill 14" fill-rule="evenodd" clip-rule="evenodd" d="M459.895 652.918H466.95L463.968 626.052H450.949L459.895 652.918Z" fill="#3553E2"/>
<path id="Fill 15_3" fill-rule="evenodd" clip-rule="evenodd" d="M399.251 652.918H406.307L403.325 626.052H390.305L399.251 652.918Z" fill="#3553E2"/>
<path id="Fill 16" fill-rule="evenodd" clip-rule="evenodd" d="M468.131 626.051H458.023C448.044 626.051 440.205 616.551 441.062 605.495L446.646 533.469C447.405 523.681 454.772 516.165 463.607 516.165H473.715C483.694 516.165 491.533 525.666 490.676 536.721L485.091 608.748C484.332 618.536 476.966 626.051 468.131 626.051Z" fill="#3553E2"/>
<path id="Fill 17_3" fill-rule="evenodd" clip-rule="evenodd" d="M176.833 626.051H100.853C92.0184 626.051 84.6518 618.536 83.8931 608.748L78.3088 536.721C77.4513 525.666 85.2899 516.165 95.2687 516.165H171.249C180.084 516.165 187.45 523.681 188.209 533.469L193.793 605.495C194.651 616.551 186.812 626.051 176.833 626.051Z" fill="#3553E2"/>
<path id="Fill 18" fill-rule="evenodd" clip-rule="evenodd" d="M176.833 626.051H166.725C157.89 626.051 150.523 618.536 149.764 608.748L144.18 536.721C143.323 525.666 151.161 516.165 161.14 516.165H171.249C180.084 516.165 187.45 523.681 188.209 533.469L193.793 605.495C194.651 616.551 186.812 626.051 176.833 626.051Z" fill="#3553E2"/>
</g>
</g>
<g id="Background Object / Chair / 5">
<g id="Group 14_2">
<path id="Fill 1_6" fill-rule="evenodd" clip-rule="evenodd" d="M1113.24 611.678L1129.32 653.711H1136.61L1126.94 609.617L1113.24 611.678Z" fill="#3553E2"/>
<path id="Fill 2_4" fill-rule="evenodd" clip-rule="evenodd" d="M1031.11 611.678L1047.18 653.711H1054.48L1044.8 609.617L1031.11 611.678Z" fill="#3553E2"/>
<path id="Fill 3_2" fill-rule="evenodd" clip-rule="evenodd" d="M908.422 653.711H915.713L931.791 611.678L918.095 609.617L908.422 653.711Z" fill="#3553E2"/>
<path id="Fill 4_3" fill-rule="evenodd" clip-rule="evenodd" d="M990.559 653.711H997.85L1013.93 611.678L1000.23 609.617L990.559 653.711Z" fill="#3553E2"/>
<path id="Fill 5_2" fill-rule="evenodd" clip-rule="evenodd" d="M917.388 513.308V615.084L1012.47 615.31L1028.11 514.633L917.388 513.308ZM924.63 521.451L1019.53 522.586L1006.38 607.24L924.63 607.046V521.451Z" fill="#3553E2"/>
<path id="Fill 6_4" fill-rule="evenodd" clip-rule="evenodd" d="M1042.16 450.748L1016.61 615.311H1128.11L1153.67 450.748H1042.16Z" fill="#3553E2"/>
<path id="Fill 7_5" fill-rule="evenodd" clip-rule="evenodd" d="M1012.18 450.748L986.622 615.311H1096.77L1122.33 450.748H1012.18Z" fill="#3553E2"/>
<path id="Fill 8_5" fill-rule="evenodd" clip-rule="evenodd" d="M984.87 615.31H1115.99C1122.68 615.31 1128.11 609.274 1128.11 601.827V570.753C1128.11 563.306 1122.68 557.27 1115.99 557.27H984.87C978.176 557.27 972.749 563.306 972.749 570.753V601.827C972.749 609.274 978.176 615.31 984.87 615.31Z" fill="#3553E2"/>
<path id="Fill 10_2" fill-rule="evenodd" clip-rule="evenodd" d="M916.896 615.31H1033.02V557.27H916.896V615.31Z" fill="#3553E2"/>
<path id="Fill 12_2" fill-rule="evenodd" clip-rule="evenodd" d="M1033.02 513.308V615.084L1128.11 615.31L1143.75 514.633L1033.02 513.308ZM1040.26 521.451L1135.16 522.586L1122.01 607.24L1040.26 607.046V521.451Z" fill="#3553E2"/>
</g>
</g>
</g>
<g id="Person / Man / 4">
<g id="Man / Head / 1">
<g id="Group 29">
<path id="Fill 1_7" fill-rule="evenodd" clip-rule="evenodd" d="M429.307 268.455L374.364 270.002L374.321 269.023L373.667 254.044L373.169 242.643C373.008 238.99 375.763 236.006 379.048 236.275L423.229 239.875C425.998 240.096 428.174 242.58 428.311 245.654L428.548 251.038L429.203 266.118L429.307 268.455Z" fill="#2437A8"/>
<path id="Fill 3_3" fill-rule="evenodd" clip-rule="evenodd" d="M429.202 266.118C421.256 267.302 411.987 268.234 402.079 268.765C391.952 269.313 382.456 269.37 374.32 269.023L373.666 254.044C381.73 252.823 391.189 251.859 401.32 251.317C411.229 250.786 420.531 250.717 428.548 251.038L429.202 266.118Z" fill="#5E93D1"/>
<g id="Face color">
<path id="Face" d="M405.46 325.344L405.009 308.062C405.009 308.062 423.924 309.734 427.97 307.4C427.97 307.4 432.915 279.112 427.017 263.446L426.898 262.835L386.982 258.704L384.312 282.444C382.967 278.04 372.303 273.686 369.402 279.992C363.117 293.655 385.593 302.854 385.593 302.854L383.311 325.552" fill="#E576C6"/>
</g>
<path id="Fill 8_6" opacity="0.398112" fill-rule="evenodd" clip-rule="evenodd" d="M405.009 308.062L392.255 305.025L404.948 314.546L405.009 308.062Z" fill="black"/>
<path id="Fill 10_3" fill-rule="evenodd" clip-rule="evenodd" d="M415.53 279.82L419.938 291.784L414.655 291.859L415.53 279.82Z" fill="#405FD3"/>
<path id="Fill 12_3" fill-rule="evenodd" clip-rule="evenodd" d="M410.505 283.22C410.767 284.831 409.804 286.373 408.353 286.664C406.901 286.956 405.513 285.887 405.25 284.275C404.988 282.664 405.951 281.123 407.402 280.831C408.853 280.54 410.242 281.609 410.505 283.22Z" fill="#0D0B6D"/>
<path id="Fill 14_2" fill-rule="evenodd" clip-rule="evenodd" d="M424.367 283.22C424.63 284.831 423.666 286.373 422.215 286.664C420.764 286.956 419.375 285.887 419.112 284.275C418.85 282.664 419.814 281.123 421.264 280.831C422.716 280.54 424.105 281.609 424.367 283.22Z" fill="#0D0B6D"/>
<g id="Group 19">
<path id="Fill 16_2" fill-rule="evenodd" clip-rule="evenodd" d="M410.05 295.246C410.05 295.246 411.895 298.57 415.552 298.288L410.05 295.246Z" fill="white"/>
<path id="Stroke 18" d="M410.05 295.246C410.05 295.246 411.895 298.57 415.552 298.288" stroke="#252535" stroke-width="4"/>
</g>
<path id="Path" fill-rule="evenodd" clip-rule="evenodd" d="M429.141 272.243L428.513 268.651C427.429 263.873 394.841 265.697 394.841 265.697L395.286 272.124L394.738 275.196C368.369 276.035 347.908 273.477 347.715 269.06C347.505 264.241 371.504 259.034 401.318 257.429C431.133 255.825 455.473 258.431 455.683 263.25C455.824 266.472 445.145 269.867 429.141 272.243L429.141 272.243Z" fill="#2437A8"/>
<path id="Path_2" fill-rule="evenodd" clip-rule="evenodd" d="M388.84 289.865C388.8 289.764 388.758 289.661 388.715 289.557C384.552 279.667 377.255 277.611 375.24 277.224C374.896 274.023 374.634 271.465 374.634 271.465C374.312 267.091 394.841 265.696 394.841 265.696C394.841 265.696 396.845 286.299 395.579 288.056C394.792 289.152 392.021 289.659 388.84 289.865Z" fill="#19141E"/>
</g>
</g>
<g id="Man / Legs / 1">
<g id="Group 17">
<g id="Shoes">
<path id="Shoes_2" fill-rule="evenodd" clip-rule="evenodd" d="M419.002 715.799L419.151 701.581L402.639 692.348L400.243 732.991H457.45C447.716 720.819 419.002 715.799 419.002 715.799ZM347.308 716.353L347.457 700.384L330.618 699.496L329.086 715.47L325.17 732.991H364.325C359.402 718.106 347.308 716.353 347.308 716.353Z" fill="#0D0B6D"/>
</g>
<g id="Legs skin">
<path id="Skin" fill-rule="evenodd" clip-rule="evenodd" d="M347.457 700.384L330.945 694.875L329.086 715.469L347.308 716.352L347.457 700.384ZM419.151 701.582L402.639 696.073L401.308 714.916L419.003 715.799L419.151 701.582Z" fill="#E576C6"/>
</g>
<g id="Pants">
<path id="Pants_2" d="M393.275 497.158L354.527 709.788H324.817L360.353 428.825H430.639L428.193 708.702L419.075 708.848L401.716 709.134H401.653L397.226 709.204L393.275 497.158Z" fill="#2F2F3D"/>
</g>
<path id="Fill 15_4" opacity="0.200893" fill-rule="evenodd" clip-rule="evenodd" d="M393.381 495.582L400.064 462.688L395.035 562.415L393.381 495.582Z" fill="black"/>
</g>
</g>
<g id="Man / Body / 5">
<g id="Group 17_2">
<g id="Hands">
<path id="Hands_2" fill-rule="evenodd" clip-rule="evenodd" d="M447.909 438.417C447.909 438.417 440.736 439.386 439.372 442.837C435.466 452.708 443.558 470.356 443.558 470.356C443.558 470.356 440.13 468.107 439.448 470.074C439.143 470.949 438.455 477.94 451.299 478.411C452.664 478.461 455.944 475.479 455.944 475.479C455.944 475.479 453.552 480.388 457.215 481.353C457.215 481.353 463.117 471.846 463.208 469.731C463.298 467.615 461.403 456.907 460.379 454.744C459.355 452.581 447.909 438.417 447.909 438.417ZM348.481 450.599L346.153 445.684L333.03 444.06C332.083 445.679 330.296 449.476 329.475 451.988C327.886 456.854 327.713 458.897 327.446 462.055C327.379 462.85 327.305 463.714 327.202 464.712C326.777 468.822 326.748 472.954 328.193 478.453C329.122 481.987 330.114 484.991 330.63 484.865C331.931 484.546 331.981 482.745 331.981 482.745L331.367 479.399L331.089 476.132C331.089 476.132 335.71 490.596 336.101 490.517C337.486 490.235 337.707 487.7 337.707 487.7C337.707 487.7 339.154 492.692 339.883 492.511C341.737 492.051 341.561 489.739 341.561 489.739C341.561 489.739 342.146 490.291 342.596 490.151C344.276 489.629 344.225 486.422 344.195 484.543C344.192 484.393 344.19 484.251 344.189 484.12C344.189 484.12 343.446 478.207 343.598 476.384C344.371 467.097 345.705 464.888 346.436 463.678C346.505 463.563 346.569 463.458 346.626 463.356C347.773 464.198 348.198 465.64 348.649 467.171C348.977 468.284 349.319 469.444 349.963 470.455C351.922 473.53 357.384 476.435 354.33 469.39C352.634 465.477 352.213 463.071 351.821 460.836C351.592 459.526 351.373 458.275 350.913 456.814C349.669 452.863 348.481 450.599 348.481 450.599Z" fill="#E576C6"/>
</g>
<path id="Stroke 4_3" opacity="0.145089" d="M446.181 451.17C446.181 451.17 447.983 458.489 454.169 460.77C456.331 461.567 455.792 470.981 461.093 469.855" stroke="black" stroke-width="3"/>
<g id="Sweater">
<path id="Sweater_2" d="M380.105 326.231L380.742 314.902L410.321 316.933L409.744 327.21C426.343 334.277 427.777 341.18 431.752 350.253C436.104 360.192 440.617 390.712 440.617 390.712L459.52 443.396L436.347 457.653L430.648 445.452L430.791 429.171L359.978 429.168L359.483 409.119L353.45 449.336L326.964 450.719C326.964 450.719 326.439 408.835 331.482 384.606C334.693 369.172 350.38 340.494 365.234 330.632C368.861 328.223 374.306 326.904 380.105 326.231Z" fill="#72A065"/>
</g>
<path id="Stroke 11" opacity="0.203544" d="M359.594 413.648L364.468 385.512L376.525 362.932" stroke="black" stroke-width="5"/>
<path id="Stroke 13_2" opacity="0.1988" d="M429.725 429.288L432.028 388.29" stroke="black" stroke-width="5"/>
</g>
</g>
</g>
<g id="Person / Robot / 2">
<g id="Robot / Legs / 2">
<g id="Group 27">
<path id="Stroke 1" d="M920.729 454.951L911.139 572.847" stroke="#19141E" stroke-width="16" stroke-linecap="round"/>
<path id="Stroke 6" d="M911.139 583.496L915.127 719.025" stroke="#19141E" stroke-width="16" stroke-linecap="round"/>
<path id="Stroke 8" d="M958.847 454.092L959.376 571.688" stroke="#19141E" stroke-width="16" stroke-linecap="round"/>
<path id="Stroke 10_2" d="M959.376 576.719L973.605 722.836" stroke="#19141E" stroke-width="16" stroke-linecap="round"/>
<g id="Legs color">
<path id="Legs" fill-rule="evenodd" clip-rule="evenodd" d="M963.689 449.998C963.689 454.576 960.331 458.321 956.225 458.321H922.592C918.486 458.321 915.127 454.576 915.127 449.998C915.127 445.42 918.486 441.674 922.592 441.674H956.225C960.331 441.674 963.689 445.42 963.689 449.998ZM956.796 559.506L956.725 559.506C951.098 559.506 946.537 566.007 946.537 574.027C946.537 582.046 951.097 588.547 956.724 588.548L962.326 588.548V588.542C967.824 588.333 972.236 581.914 972.236 574.027C972.236 566.139 967.824 559.721 962.326 559.511V559.506H962.121L962.049 559.506L961.977 559.506H956.796ZM909.095 559.506L909.023 559.506C903.397 559.506 898.836 566.007 898.836 574.027C898.836 582.047 903.397 588.547 909.023 588.548L914.625 588.548V588.542C920.123 588.332 924.535 581.914 924.535 574.027C924.535 566.14 920.123 559.721 914.625 559.511V559.506H914.419L914.347 559.506L914.275 559.506H909.095ZM942.216 733.44H984.457L977.783 714.381L942.216 733.44ZM923.363 733.44H881.122L916.689 714.381L923.363 733.44Z" fill="#6CA1FF"/>
</g>
<path id="Shape" opacity="0.403041" fill-rule="evenodd" clip-rule="evenodd" d="M914.767 588.458C920.265 588.248 924.676 581.829 924.676 573.942C924.676 566.055 920.265 559.636 914.767 559.426V559.421H914.561C914.537 559.421 914.513 559.421 914.489 559.421C914.465 559.421 914.441 559.421 914.417 559.421H909.237C909.213 559.421 909.189 559.421 909.165 559.421C903.539 559.421 898.978 565.922 898.978 573.942C898.978 581.962 903.539 588.463 909.165 588.463L914.767 588.463V588.458ZM921.17 573.942C921.17 578.637 918.889 582.443 916.076 582.443C913.263 582.443 910.983 578.637 910.983 573.942C910.983 569.247 913.263 565.441 916.076 565.441C918.889 565.441 921.17 569.247 921.17 573.942ZM962.38 588.517C967.878 588.307 972.289 581.889 972.289 574.001C972.289 566.114 967.878 559.695 962.38 559.485V559.48H962.174C962.15 559.48 962.126 559.48 962.102 559.48C962.078 559.48 962.054 559.48 962.03 559.48H956.85C956.826 559.48 956.802 559.48 956.778 559.48C951.151 559.48 946.59 565.981 946.59 574.001C946.59 582.021 951.151 588.521 956.777 588.522L962.38 588.522V588.517ZM968.783 574.001C968.783 578.696 966.502 582.502 963.689 582.502C960.876 582.502 958.596 578.696 958.596 574.001C958.596 569.306 960.876 565.5 963.689 565.5C966.502 565.5 968.783 569.306 968.783 574.001Z" fill="black"/>
<path id="Fill 26_4" opacity="0.602888" fill-rule="evenodd" clip-rule="evenodd" d="M968.771 574.057C968.771 578.751 966.491 582.558 963.678 582.558C960.865 582.558 958.584 578.751 958.584 574.057C958.584 569.362 960.865 565.556 963.678 565.556C966.491 565.556 968.771 569.362 968.771 574.057Z" fill="black"/>
<path id="Fill 22_3" opacity="0.603864" fill-rule="evenodd" clip-rule="evenodd" d="M921.133 573.939C921.133 578.633 918.852 582.439 916.039 582.439C913.226 582.439 910.946 578.633 910.946 573.939C910.946 569.244 913.226 565.438 916.039 565.438C918.852 565.438 921.133 569.244 921.133 573.939Z" fill="black"/>
<path id="Fill 14_3" opacity="0.39588" fill-rule="evenodd" clip-rule="evenodd" d="M942.216 733.569H984.457L977.783 714.51L942.216 733.569Z" fill="black"/>
<path id="Fill 16_3" opacity="0.39588" fill-rule="evenodd" clip-rule="evenodd" d="M881.122 733.569H923.363L916.69 714.51L881.122 733.569Z" fill="black"/>
</g>
</g>
<g id="Robot / Body / 3">
<g id="Group 24">
<path id="Stroke 1_2" d="M1007.42 549.123L1018.65 535.591L1002.38 512.341L982.844 531.184L989.889 547.727" stroke="#19141E" stroke-width="15"/>
<path id="Stroke 3_3" d="M885.561 548.008L895.62 533.39L877.503 511.896L859.606 532.649L867.984 548.405" stroke="#19141E" stroke-width="15"/>
<path id="Stroke 5_3" d="M877.303 450.433L885.367 384.685" stroke="#19141E" stroke-width="27" stroke-linecap="round"/>
<path id="Stroke 13_3" d="M1006.1 448.43L997.602 382.75" stroke="#19141E" stroke-width="27" stroke-linecap="round"/>
<path id="Fill 17_4" fill-rule="evenodd" clip-rule="evenodd" d="M911.083 411.776H934.042C937.463 411.776 940.236 408.692 940.236 404.888V379.357C940.236 375.554 937.463 372.47 934.042 372.47H911.083C907.662 372.47 904.889 375.554 904.889 379.357V404.888C904.889 408.692 907.662 411.776 911.083 411.776Z" fill="#19141E"/>
<path id="Fill 18_2" fill-rule="evenodd" clip-rule="evenodd" d="M916.94 411.776H934.042C937.463 411.776 940.236 408.692 940.236 404.888V379.357C940.236 375.554 937.463 372.47 934.042 372.47H916.94C913.519 372.47 910.746 375.554 910.746 379.357V404.888C910.746 408.692 913.519 411.776 916.94 411.776Z" fill="#405FD3"/>
<g id="Body color">
<path id="Body" fill-rule="evenodd" clip-rule="evenodd" d="M996.664 403.755C996.825 403.759 996.987 403.762 997.149 403.762C1007.82 403.762 1016.47 394.141 1016.47 382.273C1016.47 370.406 1007.82 360.785 997.149 360.785C994.87 360.785 992.682 361.224 990.652 362.03C981.13 342.978 962.847 330.086 941.856 330.086C921.832 330.086 904.272 341.817 894.431 359.435C892.479 358.697 890.387 358.297 888.211 358.297C877.539 358.297 868.887 367.918 868.887 379.785C868.887 391.072 876.713 400.327 886.661 401.205C890.612 431.161 913.818 454.159 941.856 454.159C969.091 454.159 991.768 432.456 996.664 403.755ZM1030.32 463.091C1030.91 454.358 1025.02 446.751 1017.16 446.099L997.436 444.462C989.583 443.81 982.742 450.362 982.156 459.094L978.8 509.102C978.214 517.835 984.105 525.442 991.958 526.094L1011.69 527.731C1019.54 528.382 1026.38 521.831 1026.97 513.099L1030.32 463.091ZM887.319 443.388C895.193 443.341 901.612 450.401 901.653 459.158L901.893 509.305C901.935 518.062 895.585 525.198 887.711 525.245L867.927 525.362C860.053 525.409 853.634 518.348 853.593 509.591L853.353 459.444C853.311 450.688 859.661 443.552 867.535 443.504L887.319 443.388Z" fill="#6CA1FF"/>
</g>
<path id="Fill 11_5" fill-rule="evenodd" clip-rule="evenodd" d="M963.158 334.823H920.552V319.155H963.158V334.823Z" fill="#19141E"/>
<path id="Path_3" fill-rule="evenodd" clip-rule="evenodd" d="M916.939 411.776C913.519 411.776 910.746 408.692 910.746 404.888V379.357C910.746 375.554 913.519 372.47 916.939 372.47H911.082C907.661 372.47 904.888 375.554 904.888 379.357V404.888C904.888 408.692 907.661 411.776 911.082 411.776H916.939Z" fill="#19141E"/>
<g id="Overlay">
<path id="Shape_2" opacity="0.401762" d="M1012.87 461.463L1021.84 462.099L1012.87 461.463ZM1022.48 453.122L1023.11 444.144H1023.11L1022.48 453.122ZM1009.32 511.486L1000.35 510.85L1009.32 511.486ZM1017.67 521.099L1017.03 530.077H1017.03L1017.67 521.099ZM1027.28 512.757L1018.3 512.122L1027.28 512.757ZM1030.82 462.735L1039.8 463.371L1030.82 462.735ZM1004.09 460.629L1013.06 461.265V461.265L1004.09 460.629ZM1013.7 452.288L1013.06 461.265H1013.06L1013.7 452.288ZM1000.54 510.652L1009.52 511.288V511.288L1000.54 510.652ZM1008.89 520.265L1008.25 529.243H1008.25L1008.89 520.265ZM1018.5 511.923L1027.48 512.559L1018.5 511.923ZM1022.04 461.901L1013.06 461.265V461.265L1022.04 461.901ZM1003.89 460.828C1004.59 450.911 1013.2 443.442 1023.11 444.144L1021.84 462.099H1021.84L1003.89 460.828ZM1000.35 510.85L1003.89 460.828L1021.84 462.099L1018.3 512.122L1000.35 510.85ZM1017.03 530.077C1007.11 529.375 999.644 520.767 1000.35 510.85L1018.3 512.122H1018.3L1017.03 530.077ZM1036.26 513.393C1035.55 523.309 1026.95 530.779 1017.03 530.077L1018.3 512.122H1018.3L1036.26 513.393ZM1039.8 463.371L1036.26 513.393L1018.3 512.122L1021.84 462.099L1039.8 463.371ZM1023.11 444.144C1033.03 444.846 1040.5 453.454 1039.8 463.371L1021.84 462.099L1023.11 444.144ZM995.109 459.994C995.811 450.077 1004.42 442.608 1014.34 443.31L1013.06 461.265V461.265L995.109 459.994ZM991.567 510.016L995.109 459.994L1013.06 461.265L1009.52 511.288L991.567 510.016ZM1008.25 529.243C998.334 528.541 990.864 519.933 991.567 510.016L1009.52 511.288L1009.52 511.288L1008.25 529.243ZM1027.48 512.559C1026.77 522.475 1018.17 529.945 1008.25 529.243L1009.52 511.288H1009.52L1027.48 512.559ZM1031.02 462.536L1027.48 512.559L1009.52 511.288L1013.06 461.265L1031.02 462.536ZM1014.34 443.31C1024.25 444.012 1031.72 452.62 1031.02 462.536L1013.06 461.265L1013.06 461.265L1014.34 443.31Z" fill="black"/>
<path id="Shape_3" opacity="0.397763" fill-rule="evenodd" clip-rule="evenodd" d="M916.917 411.753H934.018C937.44 411.753 940.213 408.669 940.213 404.864V379.334C940.213 375.53 937.44 372.446 934.018 372.446H916.917C913.496 372.446 910.723 375.53 910.723 379.334V404.864C910.723 408.669 913.496 411.753 916.917 411.753ZM931.093 390.124C928.615 390.124 926.605 387.89 926.605 385.134C926.605 382.378 928.615 380.144 931.093 380.144C933.571 380.144 935.58 382.378 935.58 385.134C935.58 387.89 933.571 390.124 931.093 390.124ZM918.34 390.124C915.862 390.124 913.852 387.89 913.852 385.134C913.852 382.378 915.862 380.144 918.34 380.144C920.819 380.144 922.828 382.378 922.828 385.134C922.828 387.89 920.819 390.124 918.34 390.124ZM931.093 404.547C928.615 404.547 926.605 402.313 926.605 399.557C926.605 396.801 928.615 394.567 931.093 394.567C933.571 394.567 935.58 396.801 935.58 399.557C935.58 402.313 933.571 404.547 931.093 404.547Z" fill="black"/>
<path id="Fill 14_4" opacity="0.404204" fill-rule="evenodd" clip-rule="evenodd" d="M1017.05 382.092C1017.05 393.959 1008.4 403.58 997.727 403.58C987.055 403.58 978.403 393.959 978.403 382.092C978.403 370.224 987.055 360.604 997.727 360.604C1008.4 360.604 1017.05 370.224 1017.05 382.092Z" fill="black"/>
<path id="Fill 16_4" opacity="0.398763" fill-rule="evenodd" clip-rule="evenodd" d="M901.261 459.272L901.501 509.418C901.543 518.175 895.193 525.311 887.319 525.358L867.535 525.475C859.66 525.522 853.242 518.461 853.201 509.704L852.96 459.558C852.918 450.801 859.268 443.665 867.143 443.618L886.927 443.501C894.801 443.454 901.219 450.515 901.261 459.272Z" fill="black"/>
<path id="Path_4" opacity="0.397856" fill-rule="evenodd" clip-rule="evenodd" d="M894.579 359.669C892.627 358.931 890.535 358.531 888.359 358.531C877.687 358.531 869.035 368.152 869.035 380.019C869.035 391.306 876.862 400.561 886.809 401.439C886.418 398.474 886.215 395.442 886.215 392.357C886.215 380.361 889.277 369.161 894.579 359.669H894.579Z" fill="black"/>
<path id="Fill 19_3" opacity="0.598121" fill-rule="evenodd" clip-rule="evenodd" d="M931.093 404.542C928.615 404.542 926.605 402.308 926.605 399.551C926.605 396.796 928.615 394.562 931.093 394.562C933.571 394.562 935.58 396.796 935.58 399.551C935.58 402.308 933.571 404.542 931.093 404.542Z" fill="black"/>
</g>
</g>
</g>
<g id="Robot / Head / 1">
<g id="Group 23">
<path id="Fill 1_8" fill-rule="evenodd" clip-rule="evenodd" d="M915.953 287.955H908.844C906.017 287.955 903.704 285.383 903.704 282.239C903.704 279.095 906.017 276.522 908.844 276.522H915.953C918.781 276.522 921.094 279.095 921.094 282.239C921.094 285.383 918.781 287.955 915.953 287.955Z" fill="#19141E"/>
<path id="Stroke 4_4" d="M943.75 298.759C942.676 295.529 938.606 293.622 934.657 294.5C930.709 295.378 928.378 298.708 929.451 301.939L934.865 318.235C935.938 321.465 936.298 322.391 941.171 322.391C943.233 322.391 946.379 322.391 948.158 322.391C950.703 322.391 951.484 320.562 949.163 315.056L943.75 298.759Z" fill="#19141E"/>
<g id="Face color_2">
<path id="Face_2" fill-rule="evenodd" clip-rule="evenodd" d="M918.162 231.521C921.217 231.521 923.692 234.274 923.692 237.67C923.692 241.066 921.217 243.819 918.162 243.819C915.108 243.819 912.632 241.066 912.632 237.67C912.632 234.274 915.108 231.521 918.162 231.521ZM959.819 289.504C959.819 303.056 949.847 314.145 937.66 314.145H935.53C923.342 314.145 913.37 303.056 913.37 289.504V276.204C913.37 262.651 923.342 251.562 935.53 251.562H937.66C949.847 251.562 959.819 262.651 959.819 276.204V289.504Z" fill="#6CA1FF"/>
</g>
<path id="Path_5" d="M920.384 243.303C924.009 246.814 926.073 250.696 926.695 255.984C926.81 256.956 927.612 257.642 928.487 257.514C929.361 257.387 929.978 256.495 929.863 255.522C929.146 249.433 926.797 244.922 922.831 240.966C922.245 241.991 921.393 242.81 920.384 243.303Z" fill="#19141E"/>
<path id="Fill 12_4" fill-rule="evenodd" clip-rule="evenodd" d="M929.34 277.932C929.061 279.688 930.115 281.363 931.694 281.673C933.273 281.984 934.78 280.812 935.059 279.055C935.338 277.3 934.284 275.625 932.705 275.314C931.126 275.004 929.619 276.176 929.34 277.932Z" fill="#19141E"/>
<path id="Fill 14_5" fill-rule="evenodd" clip-rule="evenodd" d="M914.265 278.001C913.986 279.757 915.04 281.431 916.619 281.742C918.199 282.052 919.705 280.88 919.984 279.124C920.263 277.368 919.209 275.693 917.629 275.383C916.051 275.073 914.544 276.245 914.265 278.001Z" fill="#19141E"/>
<g id="Overlay_2">
<path id="Fill 16_5" opacity="0.403971" fill-rule="evenodd" clip-rule="evenodd" d="M925.932 274.445L918.605 287.374L926.491 287.586L925.932 274.445Z" fill="black"/>
</g>
<path id="Fill 18_3" fill-rule="evenodd" clip-rule="evenodd" d="M962.921 286.732H956.024V275.299H962.921C965.748 275.299 968.062 277.872 968.062 281.015C968.062 284.159 965.748 286.732 962.921 286.732Z" fill="#19141E"/>
<path id="Stroke 21" d="M927.421 293.617C930.91 294.274 934.171 292.059 934.525 289.736" stroke="#19141E" stroke-width="4"/>
</g>
</g>
</g>
</g>
</svg>
