<svg width="13" height="17" viewBox="0 0 13 17" fill="none" xmlns="http://www.w3.org/2000/svg">
<path d="M10.9177 5.72815H10.1529V4.17426C10.1529 2.0299 8.43973 0.289551 6.32887 0.289551C4.21802 0.289551 2.50486 2.0299 2.50486 4.17426V5.72815H1.74005C0.898772 5.72815 0.210449 6.4274 0.210449 7.28203V15.0515C0.210449 15.9061 0.898772 16.6053 1.74005 16.6053H10.9177C11.759 16.6053 12.4473 15.9061 12.4473 15.0515V7.28203C12.4473 6.4274 11.759 5.72815 10.9177 5.72815ZM6.32887 12.7206C5.48759 12.7206 4.79926 12.0214 4.79926 11.1667C4.79926 10.3121 5.48759 9.61286 6.32887 9.61286C7.17015 9.61286 7.85848 10.3121 7.85848 11.1667C7.85848 12.0214 7.17015 12.7206 6.32887 12.7206ZM8.69976 5.72815H3.95798V4.17426C3.95798 2.84569 5.02106 1.76574 6.32887 1.76574C7.63668 1.76574 8.69976 2.84569 8.69976 4.17426V5.72815Z" fill="#0869FB"/>
</svg>
