<svg width="147" height="167" viewBox="0 0 147 167" fill="none" xmlns="http://www.w3.org/2000/svg">
<path fill-rule="evenodd" clip-rule="evenodd" d="M52.4767 40.5121C53.1335 39.0863 53.9027 37.9788 54.4111 37.3948C54.4211 38.7722 54.2088 40.0077 53.8801 41.0815C54.8915 41.5694 55.9425 42.2525 56.9468 43.1952C56.1729 43.1718 54.8375 42.9843 53.345 42.4982C52.657 44.0154 51.7873 45.063 51.217 45.5507C51.2557 44.2739 51.5243 43.0502 51.9017 41.9463C50.8351 41.4737 49.7544 40.8399 48.7909 40.0011C49.5361 39.9138 50.8957 39.9868 52.4767 40.5121Z" fill="url(#paint0_linear)"/>
<path fill-rule="evenodd" clip-rule="evenodd" d="M47.2857 26.2294C47.7229 25.2804 48.2349 24.5432 48.5733 24.1545C48.58 25.0713 48.4386 25.8937 48.2199 26.6084C48.8931 26.9331 49.5927 27.3879 50.2611 28.0153C49.746 27.9998 48.8572 27.875 47.8637 27.5514C47.4057 28.5613 46.8268 29.2586 46.4473 29.5833C46.473 28.7334 46.6518 27.9188 46.903 27.1841C46.193 26.8695 45.4737 26.4476 44.8323 25.8893C45.3284 25.8311 46.2334 25.8797 47.2857 26.2294Z" fill="url(#paint1_linear)"/>
<path fill-rule="evenodd" clip-rule="evenodd" d="M33.235 12.0318C33.8918 10.6061 34.661 9.49854 35.1694 8.91458C35.1794 10.2919 34.9671 11.5274 34.6384 12.6012C35.6498 13.0891 36.7008 13.7723 37.7051 14.7149C36.9312 14.6915 35.5959 14.5041 34.1033 14.018C33.4153 15.5352 32.5455 16.5828 31.9753 17.0705C32.014 15.7936 32.2826 14.5699 32.66 13.466C31.5934 12.9934 30.5127 12.3596 29.5492 11.5209C30.2944 11.4335 31.654 11.5065 33.235 12.0318Z" fill="url(#paint2_linear)"/>
<path fill-rule="evenodd" clip-rule="evenodd" d="M31.0083 43.997C31.9745 41.8994 33.1063 40.2699 33.8542 39.4108C33.8689 41.4372 33.5565 43.2549 33.073 44.8346C34.561 45.5525 36.1073 46.5576 37.5848 47.9445C36.4463 47.91 34.4816 47.6343 32.2857 46.9191C31.2735 49.1513 29.9939 50.6925 29.155 51.41C29.2118 49.5315 29.6071 47.7311 30.1623 46.1071C28.5931 45.4118 27.0031 44.4793 25.5856 43.2453C26.682 43.1167 28.6823 43.2241 31.0083 43.997Z" fill="url(#paint3_linear)"/>
<circle cx="36.8213" cy="29.6409" r="0.846528" transform="rotate(21.3865 36.8213 29.6409)" fill="#2F235A"/>
<circle cx="57.7818" cy="18.9968" r="0.846528" transform="rotate(21.3865 57.7818 18.9968)" fill="#0F56B3"/>
<circle cx="17.5464" cy="23.6211" r="0.846528" transform="rotate(21.3865 17.5464 23.6211)" fill="#FFA400"/>
<circle cx="35.7247" cy="57.7066" r="0.846528" transform="rotate(21.3865 35.7247 57.7066)" fill="#23BB86"/>
<path d="M57.1389 14.9508C56.3153 11.8053 53.3427 4.61149 48.0407 0.999956" stroke="#0F56B3" stroke-width="0.736823" stroke-linecap="round"/>
<path d="M15.048 20.206C12.9987 17.6816 7.32008 12.358 0.999785 11.2589" stroke="#FFA400" stroke-width="0.736823" stroke-linecap="round"/>
<path d="M32.1226 58.9368C30.3065 59.5991 25.7347 61.7096 21.9763 64.8529" stroke="#23BB86" stroke-width="0.736823" stroke-linecap="round"/>
<path fill-rule="evenodd" clip-rule="evenodd" d="M94.4276 40.5121C93.7708 39.0863 93.0016 37.9788 92.4932 37.3948C92.4832 38.7722 92.6955 40.0077 93.0242 41.0815C92.0128 41.5694 90.9618 42.2525 89.9575 43.1952C90.7314 43.1718 92.0668 42.9843 93.5593 42.4982C94.2473 44.0154 95.117 45.063 95.6873 45.5507C95.6486 44.2739 95.38 43.0502 95.0026 41.9463C96.0692 41.4737 97.1499 40.8399 98.1134 40.0011C97.3682 39.9138 96.0086 39.9868 94.4276 40.5121Z" fill="url(#paint4_linear)"/>
<path fill-rule="evenodd" clip-rule="evenodd" d="M99.6186 26.2294C99.1814 25.2804 98.6694 24.5432 98.331 24.1545C98.3243 25.0713 98.4656 25.8937 98.6844 26.6084C98.0112 26.9331 97.3116 27.3879 96.6432 28.0153C97.1583 27.9998 98.0471 27.875 99.0406 27.5514C99.4986 28.5613 100.077 29.2586 100.457 29.5833C100.431 28.7334 100.252 27.9188 100.001 27.1841C100.711 26.8695 101.431 26.4476 102.072 25.8893C101.576 25.8311 100.671 25.8797 99.6186 26.2294Z" fill="url(#paint5_linear)"/>
<path fill-rule="evenodd" clip-rule="evenodd" d="M113.669 12.0318C113.013 10.6061 112.243 9.49854 111.735 8.91458C111.725 10.2919 111.937 11.5274 112.266 12.6012C111.255 13.0891 110.203 13.7723 109.199 14.7149C109.973 14.6915 111.308 14.5041 112.801 14.018C113.489 15.5352 114.359 16.5828 114.929 17.0705C114.89 15.7936 114.622 14.5699 114.244 13.466C115.311 12.9934 116.392 12.3596 117.355 11.5209C116.61 11.4335 115.25 11.5065 113.669 12.0318Z" fill="url(#paint6_linear)"/>
<path fill-rule="evenodd" clip-rule="evenodd" d="M115.896 43.997C114.93 41.8994 113.798 40.2699 113.05 39.4108C113.035 41.4372 113.348 43.2549 113.831 44.8346C112.343 45.5525 110.797 46.5576 109.319 47.9445C110.458 47.91 112.423 47.6343 114.619 46.9191C115.631 49.1513 116.91 50.6925 117.749 51.41C117.692 49.5315 117.297 47.7311 116.742 46.1071C118.311 45.4118 119.901 44.4793 121.319 43.2453C120.222 43.1167 118.222 43.2241 115.896 43.997Z" fill="url(#paint7_linear)"/>
<circle r="0.846528" transform="matrix(-0.931142 0.364658 0.364658 0.931142 110.083 29.6409)" fill="#2F235A"/>
<circle r="0.846528" transform="matrix(-0.931142 0.364658 0.364658 0.931142 89.1225 18.9968)" fill="#0F56B3"/>
<circle r="0.846528" transform="matrix(-0.931142 0.364658 0.364658 0.931142 129.358 23.6211)" fill="#FFA400"/>
<circle r="0.846528" transform="matrix(-0.931142 0.364658 0.364658 0.931142 111.18 57.7065)" fill="#23BB86"/>
<path d="M89.7654 14.9508C90.589 11.8053 93.5616 4.61149 98.8636 0.999956" stroke="#0F56B3" stroke-width="0.736823" stroke-linecap="round"/>
<path d="M131.856 20.206C133.906 17.6816 139.584 12.358 145.905 11.2589" stroke="#FFA400" stroke-width="0.736823" stroke-linecap="round"/>
<path d="M114.782 58.9368C116.598 59.5991 121.17 61.7096 124.928 64.8529" stroke="#23BB86" stroke-width="0.736823" stroke-linecap="round"/>
<rect x="27.2676" y="104.264" width="89.8505" height="62.1103" fill="url(#paint8_linear)"/>
<mask id="mask0" mask-type="alpha" maskUnits="userSpaceOnUse" x="27" y="104" width="91" height="63">
<rect x="27.2676" y="104.264" width="89.8505" height="62.1103" fill="#C4C4C4"/>
</mask>
<g mask="url(#mask0)">
<path d="M31.519 102.683L92.701 102.683L78.8724 126.694L17.6904 126.694L31.519 102.683Z" fill="black" fill-opacity="0.07"/>
<rect x="88.3696" y="104.264" width="89.8505" height="62.1103" fill="url(#paint9_linear)"/>
</g>
<path d="M27.1881 104.264L88.3701 104.264L76.5516 123.987L15.3696 123.987L27.1881 104.264Z" fill="url(#paint10_linear)"/>
<mask id="mask1" mask-type="alpha" maskUnits="userSpaceOnUse" x="88" y="104" width="30" height="63">
<rect x="88.3701" y="104.264" width="28.7479" height="62.1103" fill="#C4C4C4"/>
</mask>
<g mask="url(#mask1)">
<path d="M113.618 104.161L84.8253 104.161L98.3545 126.868L127.147 126.868L113.618 104.161Z" fill="black" fill-opacity="0.07"/>
</g>
<path d="M117.163 104.264L88.37 104.264L100.189 123.987L128.981 123.987L117.163 104.264Z" fill="url(#paint11_linear)"/>
<circle cx="57.1954" cy="88.4442" r="8.49082" fill="url(#paint12_linear)"/>
<circle cx="89.8249" cy="67.5111" r="8.20473" fill="url(#paint13_linear)"/>
<circle cx="59.0699" cy="56.9276" r="6.61631" fill="url(#paint14_linear)"/>
<circle cx="77.4432" cy="41.8182" r="5.98519" fill="url(#paint15_linear)"/>
<circle cx="65.6863" cy="25.1951" r="4.6365" fill="url(#paint16_linear)"/>
<circle cx="73.6529" cy="65.8612" r="1.65" fill="#FFA800" fill-opacity="0.23"/>
<circle cx="101.094" cy="51.9613" r="1.65" fill="#FFA800" fill-opacity="0.23"/>
<circle cx="102.744" cy="25.1952" r="1.65" fill="#FFA800" fill-opacity="0.23"/>
<circle cx="47.0548" cy="28.1817" r="1.65" fill="#FFA800" fill-opacity="0.23"/>
<circle cx="80.6529" cy="92.1087" r="1.65" fill="#FFA800" fill-opacity="0.23"/>
<circle cx="39.2486" cy="62.5611" r="1.65" fill="#FFA800" fill-opacity="0.23"/>
<path d="M117.33 104.558H27.1963L13.354 19.21H133.952L117.33 104.558Z" fill="url(#paint17_linear)"/>
<defs>
<linearGradient id="paint0_linear" x1="54.1612" y1="38.2982" x2="51.1622" y2="45.956" gradientUnits="userSpaceOnUse">
<stop stop-color="#FFE89E"/>
<stop offset="1" stop-color="#FFBF1A"/>
</linearGradient>
<linearGradient id="paint1_linear" x1="48.407" y1="24.7558" x2="46.4107" y2="29.8531" gradientUnits="userSpaceOnUse">
<stop stop-color="#FFE89E"/>
<stop offset="1" stop-color="#FFBF1A"/>
</linearGradient>
<linearGradient id="paint2_linear" x1="34.9195" y1="9.81794" x2="31.9205" y2="17.4758" gradientUnits="userSpaceOnUse">
<stop stop-color="#FFE89E"/>
<stop offset="1" stop-color="#FFBF1A"/>
</linearGradient>
<linearGradient id="paint3_linear" x1="33.4865" y1="40.7398" x2="29.0743" y2="52.0063" gradientUnits="userSpaceOnUse">
<stop stop-color="#FFE89E"/>
<stop offset="1" stop-color="#FFBF1A"/>
</linearGradient>
<linearGradient id="paint4_linear" x1="92.7431" y1="38.2982" x2="95.7421" y2="45.956" gradientUnits="userSpaceOnUse">
<stop stop-color="#FFE89E"/>
<stop offset="1" stop-color="#FFBF1A"/>
</linearGradient>
<linearGradient id="paint5_linear" x1="98.4973" y1="24.7558" x2="100.494" y2="29.8531" gradientUnits="userSpaceOnUse">
<stop stop-color="#FFE89E"/>
<stop offset="1" stop-color="#FFBF1A"/>
</linearGradient>
<linearGradient id="paint6_linear" x1="111.985" y1="9.81794" x2="114.984" y2="17.4758" gradientUnits="userSpaceOnUse">
<stop stop-color="#FFE89E"/>
<stop offset="1" stop-color="#FFBF1A"/>
</linearGradient>
<linearGradient id="paint7_linear" x1="113.418" y1="40.7398" x2="117.83" y2="52.0063" gradientUnits="userSpaceOnUse">
<stop stop-color="#FFE89E"/>
<stop offset="1" stop-color="#FFBF1A"/>
</linearGradient>
<linearGradient id="paint8_linear" x1="57.2818" y1="92.7651" x2="21.4716" y2="191.397" gradientUnits="userSpaceOnUse">
<stop stop-color="#FFD481"/>
<stop offset="1" stop-color="#FA620C"/>
</linearGradient>
<linearGradient id="paint9_linear" x1="42.5975" y1="100.325" x2="151.278" y2="216.464" gradientUnits="userSpaceOnUse">
<stop stop-color="#FFD481"/>
<stop offset="0.83311" stop-color="#FA620C"/>
</linearGradient>
<linearGradient id="paint10_linear" x1="28.4472" y1="97.2153" x2="25.5396" y2="139.238" gradientUnits="userSpaceOnUse">
<stop stop-color="#FFD481"/>
<stop offset="1" stop-color="#FA620C"/>
</linearGradient>
<linearGradient id="paint11_linear" x1="121.706" y1="97.2153" x2="126.878" y2="138.796" gradientUnits="userSpaceOnUse">
<stop stop-color="#FFD481"/>
<stop offset="1" stop-color="#FA620C"/>
</linearGradient>
<linearGradient id="paint12_linear" x1="57.8384" y1="77.1511" x2="56.2233" y2="100.07" gradientUnits="userSpaceOnUse">
<stop stop-color="#FF9F81"/>
<stop offset="1" stop-color="#F53838"/>
</linearGradient>
<linearGradient id="paint13_linear" x1="90.4461" y1="56.5986" x2="88.8855" y2="78.7451" gradientUnits="userSpaceOnUse">
<stop stop-color="#FF9F81"/>
<stop offset="1" stop-color="#F53838"/>
</linearGradient>
<linearGradient id="paint14_linear" x1="59.5709" y1="48.1277" x2="58.3124" y2="65.9867" gradientUnits="userSpaceOnUse">
<stop stop-color="#FF9F81"/>
<stop offset="1" stop-color="#F53838"/>
</linearGradient>
<linearGradient id="paint15_linear" x1="77.8964" y1="33.8577" x2="76.7579" y2="50.0132" gradientUnits="userSpaceOnUse">
<stop stop-color="#FF9F81"/>
<stop offset="1" stop-color="#F53838"/>
</linearGradient>
<linearGradient id="paint16_linear" x1="66.0374" y1="19.0284" x2="65.1555" y2="31.5434" gradientUnits="userSpaceOnUse">
<stop stop-color="#FF9F81"/>
<stop offset="1" stop-color="#F53838"/>
</linearGradient>
<linearGradient id="paint17_linear" x1="72.662" y1="19.21" x2="72.6621" y2="200.534" gradientUnits="userSpaceOnUse">
<stop stop-color="white" stop-opacity="0"/>
<stop offset="1" stop-color="#FE9277"/>
</linearGradient>
</defs>
</svg>
