<svg width="1136" height="918" viewBox="0 0 1136 918" fill="none" xmlns="http://www.w3.org/2000/svg">
<g id="Illustration 5">
<g id="Background">
<g id="Background Object / Closet / 3">
<g id="Group 55">
<path id="Fill 1" fill-rule="evenodd" clip-rule="evenodd" d="M843.984 283.391H842.946C828.603 283.391 816.975 271.763 816.975 257.42V241.972H869.956V257.42C869.956 271.763 858.328 283.391 843.984 283.391Z" fill="#3553E2"/>
<path id="Fill 4" fill-rule="evenodd" clip-rule="evenodd" d="M652.243 703.342H640.255V674.321H658.427L652.243 703.342Z" fill="#3553E2"/>
<path id="Fill 6" fill-rule="evenodd" clip-rule="evenodd" d="M628.266 674.321H836.483V291.018H628.266V674.321Z" fill="#ECF6FF"/>
<path id="Fill 8" fill-rule="evenodd" clip-rule="evenodd" d="M640.255 703.342H628.267V674.321H645.877L640.255 703.342Z" fill="#ECF6FF"/>
<path id="Fill 9" fill-rule="evenodd" clip-rule="evenodd" d="M846.122 703.342H836.483V674.321H850.642L846.122 703.342Z" fill="#3553E2"/>
<path id="Fill 10" fill-rule="evenodd" clip-rule="evenodd" d="M824.496 703.342H836.484V674.321H818.874L824.496 703.342Z" fill="#ECF6FF"/>
<path id="Fill 11" fill-rule="evenodd" clip-rule="evenodd" d="M725.224 703.342H713.235V674.321H729.722L725.224 703.342Z" fill="#3553E2"/>
<path id="Fill 12" fill-rule="evenodd" clip-rule="evenodd" d="M898.425 703.342H887.383L883.24 674.321H898.425V703.342Z" fill="#3553E2"/>
<path id="Fill 13" fill-rule="evenodd" clip-rule="evenodd" d="M909.466 703.342H898.424L894.8 674.321H909.466V703.342Z" fill="#3553E2"/>
<path id="Fill 14" fill-rule="evenodd" clip-rule="evenodd" d="M713.236 703.342H701.248L696.75 674.321H713.236V703.342Z" fill="#C5E0FC"/>
<path id="Fill 15" fill-rule="evenodd" clip-rule="evenodd" d="M637.071 511.244H827.679V443.503H637.071V511.244Z" fill="#3553E2"/>
<path id="Fill 16" fill-rule="evenodd" clip-rule="evenodd" d="M637.071 511.244H696.038V443.503H637.071V511.244Z" fill="#3553E2"/>
<path id="Fill 17" fill-rule="evenodd" clip-rule="evenodd" d="M637.071 585.507H827.679V517.765H637.071V585.507Z" fill="#3553E2"/>
<path id="Fill 18" fill-rule="evenodd" clip-rule="evenodd" d="M637.071 585.507H696.038V517.765H637.071V585.507Z" fill="#3553E2"/>
<path id="Fill 19" fill-rule="evenodd" clip-rule="evenodd" d="M637.071 659.769H827.679V592.028H637.071V659.769Z" fill="#3553E2"/>
<path id="Fill 20" fill-rule="evenodd" clip-rule="evenodd" d="M637.071 659.769H696.038V592.028H637.071V659.769Z" fill="#3553E2"/>
<path id="Fill 21" fill-rule="evenodd" clip-rule="evenodd" d="M637.071 365.383H827.679V297.642H637.071V365.383Z" fill="#3553E2"/>
<path id="Fill 22" fill-rule="evenodd" clip-rule="evenodd" d="M637.071 365.383H696.038V297.642H637.071V365.383Z" fill="#3553E2"/>
<path id="Fill 23" fill-rule="evenodd" clip-rule="evenodd" d="M637.071 436.982H827.679V372.367H637.071V436.982Z" fill="#3553E2"/>
<path id="Fill 24" fill-rule="evenodd" clip-rule="evenodd" d="M637.071 436.982H696.038V372.367H637.071V436.982Z" fill="#3553E2"/>
<path id="Fill 25" fill-rule="evenodd" clip-rule="evenodd" d="M836.484 674.321H909.466V291.018H836.484V674.321Z" fill="#3553E2"/>
<path id="Fill 26" fill-rule="evenodd" clip-rule="evenodd" d="M623.362 291.018H829.595V278.583H623.362V291.018Z" fill="#E6F4FF"/>
<path id="Fill 27" fill-rule="evenodd" clip-rule="evenodd" d="M829.595 291.018H914.245V278.583H829.595V291.018Z" fill="#3553E2"/>
<path id="Fill 28" fill-rule="evenodd" clip-rule="evenodd" d="M801.688 567.586V567.587C801.688 570.885 799.013 573.56 795.714 573.56H747.724V561.613H795.714C799.013 561.613 801.688 564.288 801.688 567.586Z" fill="#3553E2"/>
<path id="Fill 29" fill-rule="evenodd" clip-rule="evenodd" d="M769.023 567.586V567.587C769.023 569.497 767.475 571.045 765.566 571.045H747.796C747.756 571.045 747.725 571.012 747.725 570.973V564.2C747.725 564.161 747.756 564.128 747.796 564.128H765.566C767.475 564.128 769.023 565.676 769.023 567.586Z" fill="#3553E2"/>
<path id="Fill 30" fill-rule="evenodd" clip-rule="evenodd" d="M808.467 573.56V585.507H756.032C752.733 585.507 750.059 582.833 750.059 579.534C750.059 576.234 752.733 573.56 756.032 573.56H808.467Z" fill="#3553E2"/>
<path id="Fill 31" fill-rule="evenodd" clip-rule="evenodd" d="M808.467 576.109V582.958H787.001C785.109 582.958 783.576 581.425 783.576 579.534C783.576 577.642 785.109 576.109 787.001 576.109H808.467Z" fill="#3553E2"/>
<path id="Fill 32" fill-rule="evenodd" clip-rule="evenodd" d="M808.244 549.667V561.614H759.25C755.951 561.614 753.276 558.939 753.276 555.64C753.276 552.341 755.951 549.667 759.25 549.667H808.244Z" fill="#3553E2"/>
<path id="Fill 33" fill-rule="evenodd" clip-rule="evenodd" d="M808.244 552.215V559.065H790.219C788.328 559.065 786.794 557.532 786.794 555.64C786.794 553.749 788.328 552.215 790.219 552.215H808.244Z" fill="#3553E2"/>
<path id="Fill 34" fill-rule="evenodd" clip-rule="evenodd" d="M682.368 511.377H715.219V465.449H682.368V511.377Z" fill="#3553E2"/>
<path id="Fill 35" fill-rule="evenodd" clip-rule="evenodd" d="M682.368 463.827H715.219V460.989H682.368V463.827Z" fill="#3553E2"/>
<path id="Fill 36" fill-rule="evenodd" clip-rule="evenodd" d="M716.461 471.773H681.125C679.171 471.773 677.587 470.189 677.587 468.234V467.365C677.587 465.411 679.171 463.827 681.125 463.827H716.461C718.415 463.827 719.999 465.411 719.999 467.365V468.234C719.999 470.189 718.415 471.773 716.461 471.773Z" fill="#E6F4FF"/>
<path id="Fill 37" fill-rule="evenodd" clip-rule="evenodd" d="M656.348 659.769H707.09V624.188H656.348V659.769Z" fill="#ECF6FF"/>
<path id="Fill 38" fill-rule="evenodd" clip-rule="evenodd" d="M707.09 659.769H744.497V624.188H707.09V659.769Z" fill="#3553E2"/>
<path id="Fill 39" fill-rule="evenodd" clip-rule="evenodd" d="M697.128 641.978H666.777C666.777 638.863 669.302 636.338 672.417 636.338H691.488C694.603 636.338 697.128 638.863 697.128 641.978Z" fill="#3553E2"/>
<path id="Fill 40" fill-rule="evenodd" clip-rule="evenodd" d="M728.505 659.769H779.247V624.188H728.505V659.769Z" fill="#ECF6FF"/>
<path id="Fill 41" fill-rule="evenodd" clip-rule="evenodd" d="M779.246 659.769H816.653V624.188H779.246V659.769Z" fill="#3553E2"/>
<path id="Fill 42" fill-rule="evenodd" clip-rule="evenodd" d="M769.285 641.978H738.935C738.935 638.863 741.459 636.338 744.574 636.338H763.645C766.76 636.338 769.285 638.863 769.285 641.978Z" fill="#3553E2"/>
<path id="Fill 43" fill-rule="evenodd" clip-rule="evenodd" d="M670.053 365.383H720.795V329.801H670.053V365.383Z" fill="#ECF6FF"/>
<path id="Fill 44" fill-rule="evenodd" clip-rule="evenodd" d="M720.795 365.383H758.202V329.801H720.795V365.383Z" fill="#3553E2"/>
<path id="Fill 45" fill-rule="evenodd" clip-rule="evenodd" d="M710.833 347.593H680.482C680.482 344.478 683.007 341.953 686.122 341.953H705.193C708.308 341.953 710.833 344.478 710.833 347.593Z" fill="#3553E2"/>
<path id="Fill 46" fill-rule="evenodd" clip-rule="evenodd" d="M777.69 428.062L782.362 382.53H796.972L801.645 428.062C802.134 432.833 798.39 436.982 793.594 436.982H785.741C780.944 436.982 777.2 432.833 777.69 428.062Z" fill="#3553E2"/>
<path id="Fill 47" fill-rule="evenodd" clip-rule="evenodd" d="M664.358 585.507H676.135V540.521H664.358V585.507Z" fill="#3553E2"/>
<path id="Fill 48" fill-rule="evenodd" clip-rule="evenodd" d="M652.582 585.507H664.358V540.521H652.582V585.507Z" fill="#ECF6FF"/>
<path id="Fill 49" fill-rule="evenodd" clip-rule="evenodd" d="M676.135 585.507H687.911V540.521H676.135V585.507Z" fill="#ECF6FF"/>
<path id="Fill 50" fill-rule="evenodd" clip-rule="evenodd" d="M718.937 585.507H687.911V540.522H718.937C720.595 540.522 721.938 541.866 721.938 543.523V582.506C721.938 584.164 720.595 585.507 718.937 585.507Z" fill="#3553E2"/>
<path id="Fill 51" fill-rule="evenodd" clip-rule="evenodd" d="M692.953 551.529H716.896V547.076H692.953V551.529Z" fill="#3553E2"/>
<path id="Fill 52" fill-rule="evenodd" clip-rule="evenodd" d="M698.288 558.401H711.561V553.947H698.288V558.401Z" fill="#3553E2"/>
<path id="Fill 53" fill-rule="evenodd" clip-rule="evenodd" d="M757.493 514.942C743.149 514.942 731.521 503.314 731.521 488.97V481.515H783.464V488.97C783.464 503.314 771.837 514.942 757.493 514.942Z" fill="#ECF6FF"/>
<path id="Fill 54" fill-rule="evenodd" clip-rule="evenodd" d="M784.67 416.276C784.67 425.025 780.049 432.702 773.116 436.982H747.664C740.731 432.702 736.109 425.025 736.109 416.276C736.109 412.205 737.111 408.372 738.877 405.005H781.903C783.669 408.372 784.67 412.205 784.67 416.276Z" fill="#3553E2"/>
</g>
</g>
<g id="Background Object / Chair / 5">
<g id="Group 14">
<path id="Fill 1_2" fill-rule="evenodd" clip-rule="evenodd" d="M208.726 651.029L186.639 702.954H176.623L189.91 648.484L208.726 651.029Z" fill="#3553E2"/>
<path id="Fill 2" fill-rule="evenodd" clip-rule="evenodd" d="M321.557 651.029L299.47 702.954H289.454L302.742 648.484L321.557 651.029Z" fill="#3553E2"/>
<path id="Fill 3" fill-rule="evenodd" clip-rule="evenodd" d="M490.088 702.954H480.072L457.986 651.029L476.8 648.484L490.088 702.954Z" fill="#3553E2"/>
<path id="Fill 4_2" fill-rule="evenodd" clip-rule="evenodd" d="M377.258 702.954H367.242L345.155 651.029L363.97 648.484L377.258 702.954Z" fill="#3553E2"/>
<path id="Fill 5" fill-rule="evenodd" clip-rule="evenodd" d="M477.771 529.509V655.238L347.152 655.517L325.672 531.146L477.771 529.509ZM467.823 539.568L337.464 540.971L355.526 645.548L467.823 645.308V539.568Z" fill="#3553E2"/>
<path id="Fill 6_2" fill-rule="evenodd" clip-rule="evenodd" d="M306.366 452.227L341.477 655.517H188.306L153.195 452.227H306.366Z" fill="#3553E2"/>
<path id="Fill 7" fill-rule="evenodd" clip-rule="evenodd" d="M347.554 452.227L382.665 655.517H231.352L196.242 452.227H347.554Z" fill="#3553E2"/>
<path id="Fill 8_2" fill-rule="evenodd" clip-rule="evenodd" d="M385.071 655.518H204.956C195.761 655.518 188.306 648.06 188.306 638.861V600.474C188.306 591.275 195.761 583.817 204.956 583.817H385.071C394.267 583.817 401.722 591.275 401.722 600.474V638.861C401.722 648.06 394.267 655.518 385.071 655.518Z" fill="#3553E2"/>
<path id="Fill 10_2" fill-rule="evenodd" clip-rule="evenodd" d="M478.448 655.517H318.926V583.817H478.448V655.517Z" fill="#3553E2"/>
<path id="Fill 12_2" fill-rule="evenodd" clip-rule="evenodd" d="M318.926 529.509V655.238L188.306 655.517L166.825 531.146L318.926 529.509ZM308.978 539.568L178.618 540.971L196.68 645.548L308.978 645.308V539.568Z" fill="#3553E2"/>
</g>
</g>
<g id="Background Object / Pluteus / 2">
<g id="Group 21">
<path id="Fill 1_3" fill-rule="evenodd" clip-rule="evenodd" d="M167.061 179.206C169.096 196.293 183.64 209.55 201.278 209.55C218.916 209.55 233.46 196.293 235.496 179.206H167.061Z" fill="#ECF6FF"/>
<g id="Group 5">
<path id="Fill 3_2" fill-rule="evenodd" clip-rule="evenodd" d="M299.539 158.437C301.575 175.524 316.119 188.781 333.757 188.781C351.395 188.781 365.939 175.524 367.975 158.437H299.539Z" fill="#ECF6FF"/>
</g>
<path id="Fill 6_3" fill-rule="evenodd" clip-rule="evenodd" d="M299.539 179.206C301.575 196.293 316.119 209.55 333.757 209.55C351.395 209.55 365.939 196.293 367.975 179.206H299.539Z" fill="#ECF6FF"/>
<path id="Fill 8_3" fill-rule="evenodd" clip-rule="evenodd" d="M278.066 184.018H250.127L257.65 208.765H270.543L278.066 184.018Z" fill="#3553E2"/>
<path id="Fill 10_3" fill-rule="evenodd" clip-rule="evenodd" d="M413.468 184.018H385.528L393.051 208.765H405.945L413.468 184.018Z" fill="#3553E2"/>
<path id="Fill 12_3" fill-rule="evenodd" clip-rule="evenodd" d="M278.066 167.858H250.127L257.65 192.606H270.543L278.066 167.858Z" fill="#3553E2"/>
<path id="Fill 14_2" fill-rule="evenodd" clip-rule="evenodd" d="M436.544 214.66H188.909V204.258H436.544V214.66Z" fill="#3553E2"/>
<path id="Fill 16_2" fill-rule="evenodd" clip-rule="evenodd" d="M188.909 214.66H148.171V204.258H188.909V214.66Z" fill="#3553E2"/>
<path id="Fill 17_2" fill-rule="evenodd" clip-rule="evenodd" d="M376.188 214.66L356.85 244.999V214.66H376.188Z" fill="#3553E2"/>
<path id="Fill 18_2" fill-rule="evenodd" clip-rule="evenodd" d="M386.89 214.66L367.551 244.999H356.849L376.188 214.66H386.89Z" fill="#3553E2"/>
<path id="Fill 19_2" fill-rule="evenodd" clip-rule="evenodd" d="M234.354 214.66L215.016 244.999V214.66H234.354Z" fill="#3553E2"/>
<path id="Fill 20_2" fill-rule="evenodd" clip-rule="evenodd" d="M245.056 214.66L225.717 244.999H215.016L234.354 214.66H245.056Z" fill="#3553E2"/>
</g>
</g>
<g id="Background Object / Picture / 5">
<g id="Group 8">
<path id="Fill 1_4" fill-rule="evenodd" clip-rule="evenodd" d="M637.824 188.676H780.519V67.6611H637.824V188.676Z" fill="#3553E2"/>
<path id="Stroke 2" fill-rule="evenodd" clip-rule="evenodd" d="M637.824 188.676H780.519V67.6611H637.824V188.676Z" stroke="#3553E2" stroke-width="5"/>
<path id="Fill 4_3" fill-rule="evenodd" clip-rule="evenodd" d="M629.434 188.838H772.128V67.8228H629.434V188.838Z" fill="white"/>
<path id="Stroke 5" fill-rule="evenodd" clip-rule="evenodd" d="M629.434 188.838H772.128V67.8228H629.434V188.838Z" stroke="#3553E2" stroke-width="5"/>
<path id="Fill 7_2" fill-rule="evenodd" clip-rule="evenodd" d="M653.737 163.838H745.791V92.5H653.737V163.838Z" fill="#3553E2"/>
</g>
</g>
<g id="Background Object / Picture / 1">
<g id="Group 8_2">
<path id="Fill 1_5" fill-rule="evenodd" clip-rule="evenodd" d="M908.393 189.998H1000.01V113.012H908.393V189.998Z" fill="#3553E2"/>
<path id="Stroke 2_2" fill-rule="evenodd" clip-rule="evenodd" d="M908.393 189.998H1000.01V113.012H908.393V189.998Z" stroke="#3553E2" stroke-width="5"/>
<path id="Fill 4_4" fill-rule="evenodd" clip-rule="evenodd" d="M903.005 190.102H994.625V113.116H903.005V190.102Z" fill="white"/>
<path id="Stroke 5_2" fill-rule="evenodd" clip-rule="evenodd" d="M903.005 190.102H994.625V113.116H903.005V190.102Z" stroke="#3553E2" stroke-width="5"/>
<path id="Fill 7_3" fill-rule="evenodd" clip-rule="evenodd" d="M918.609 174.197H977.715V128.814H918.609V174.197Z" fill="#3553E2"/>
</g>
</g>
</g>
<g id="Person / Man / 5">
<g id="Man / Head / 1">
<g id="Group 23">
<g id="Face color">
<path id="Face" d="M455.957 356.051L455.333 334.617C455.333 334.617 481.518 336.691 487.119 333.797C487.119 333.797 493.965 298.712 485.8 279.283L485.634 278.526L430.377 272.097L427.867 304.462C426.006 299.001 410.056 291.983 406.041 299.804C397.339 316.749 428.454 328.159 428.454 328.159L425.294 356.309" fill="#CE3D29"/>
</g>
<path id="Fill 4_5" opacity="0.403344" fill-rule="evenodd" clip-rule="evenodd" d="M455.333 334.617L437.676 330.851L455.248 342.658L455.333 334.617Z" fill="black"/>
<path id="Fill 6_4" fill-rule="evenodd" clip-rule="evenodd" d="M469.897 299.591L475.999 314.428L468.687 314.521L469.897 299.591Z" fill="#405FD3"/>
<path id="Fill 8_4" fill-rule="evenodd" clip-rule="evenodd" d="M462.941 303.807C463.305 305.805 461.97 307.718 459.962 308.079C457.953 308.44 456.03 307.114 455.667 305.116C455.304 303.118 456.638 301.206 458.646 300.844C460.655 300.482 462.578 301.809 462.941 303.807Z" fill="#0D0B6D"/>
<path id="Fill 10_4" fill-rule="evenodd" clip-rule="evenodd" d="M482.132 303.807C482.495 305.805 481.161 307.718 479.153 308.079C477.144 308.44 475.221 307.114 474.858 305.116C474.494 303.118 475.828 301.206 477.837 300.844C479.846 300.482 481.769 301.809 482.132 303.807Z" fill="#0D0B6D"/>
<path id="Hair" d="M433.116 312.44C433.014 312.191 432.901 311.933 432.776 311.667C428.557 302.689 422.014 298.916 417.716 297.35C415.367 293.894 413.515 290.03 412.9 285.959C410.951 273.08 414.359 261.308 421.964 257.935C429.661 254.52 447.894 256.232 468.366 256.232C492.948 256.232 494.302 253.822 494.302 253.822C494.302 253.822 515.97 284.23 475.965 283.347C455 282.883 443.071 283.406 443.071 283.406L433.116 312.44Z" fill="#19141E"/>
<g id="Group 22">
<path id="Fill 19_3" fill-rule="evenodd" clip-rule="evenodd" d="M465.183 323.974C465.183 323.974 468.947 327.046 473.62 325.077L465.183 323.974Z" fill="white"/>
<path id="Stroke 21" d="M465.183 323.974C465.183 323.974 468.947 327.046 473.62 325.077" stroke="#252535" stroke-width="4"/>
<path id="Fill 17_3" fill-rule="evenodd" clip-rule="evenodd" d="M458.827 320.768C458.827 320.768 460.863 315.475 470.506 315.872C480.148 316.268 481.344 322.827 481.344 322.827L458.827 320.768Z" fill="#19141E"/>
</g>
</g>
</g>
<g id="Man / Legs / 1">
<g id="Group 18">
<g id="Shoes">
<path id="Shoes_2" fill-rule="evenodd" clip-rule="evenodd" d="M302.806 771.395L326.061 751.995L319.292 730.957L269.915 764.151L305.382 833.413C305.382 833.413 307.413 816.708 306.268 798.045C305.476 785.151 302.806 771.395 302.806 771.395ZM538.9 831.475L533.803 815.046L512.224 816.186L530.184 861.305L599.169 821.34C578.697 815.143 538.9 831.475 538.9 831.475Z" fill="#0D0B6D"/>
</g>
<g id="Leg skin">
<path id="Skin" fill-rule="evenodd" clip-rule="evenodd" d="M320.196 756.942L318.967 730.923L290.528 750.42L302.806 771.396L320.196 756.942ZM532.501 810.524L511.9 816.095L521.242 838.839L538.9 831.474L532.501 810.524Z" fill="#E576C6"/>
</g>
<g id="Pants">
<path id="Pants_2" d="M408.315 559.852C402.627 541.11 398.61 527.152 397.29 521.057C391.42 493.957 391.432 481.005 391.432 480.021H411.783L488.451 480.021C488.033 487.269 489.242 506.493 486.511 533.109L546.041 798.662L552.048 797.614L557.274 818.254L492.161 831.25L484.228 809.441L488.118 808.762C479.427 782.603 460.447 724.532 442.032 667.085C439.733 670.912 437.322 674.752 434.791 678.601C400.475 730.785 366.225 760.977 347.462 775.162L350.236 779.128L331.414 791.102L290.022 732.213L308.284 719.128L311.363 723.532C333.638 703.043 378.134 654.865 404.366 577.464C406.124 572.279 407.392 566.309 408.315 559.852Z" fill="#19141E"/>
</g>
<g id="Overlay">
<path id="Overlay_2" fill-rule="evenodd" clip-rule="evenodd" d="M488.117 808.762C469.477 752.655 403.504 549.748 397.289 521.057C391.431 494.013 391.432 481.059 391.432 480.027C391.432 480.025 391.432 480.023 391.432 480.021H474.609L546.04 798.662L552.047 797.614L557.274 818.255L492.16 831.25L484.227 809.441L488.117 808.762Z" fill="white" fill-opacity="0.1"/>
</g>
</g>
</g>
<g id="Man / Body / 5">
<g id="Group 36">
<g id="Skin color">
<path id="Mask" fill-rule="evenodd" clip-rule="evenodd" d="M420.164 351.312C421.854 354.265 429.264 365.18 446.827 366.212C463.789 367.201 462.531 358.22 461.646 355.217C461.25 355.109 460.852 354.999 460.452 354.888C456.722 353.855 452.752 352.756 447.315 352.193C432.472 350.656 431.308 350.543 420.164 351.312ZM554.615 398.928C546.543 414.779 518.204 466.813 498.001 458.514C482.875 452.299 464.766 400.779 464.766 400.779L494.202 383.261L507.428 418.666L534.435 389.326C533.518 383.512 532.784 375.913 534.612 373.233C537.724 368.673 553.471 354.623 553.471 354.623L556.338 378.428L556.839 376.422C556.839 376.31 556.866 376.189 556.922 376.058L556.939 376.02L558.099 371.375C557.612 371.13 557.413 370.779 557.623 370.295C557.794 369.902 558.166 369.471 558.687 369.018L562.645 353.158C562.645 353.158 563.944 353.736 565.848 354.601C568.911 353.97 580.003 361.51 580.171 361.625L580.173 361.626C582.432 363.085 577.06 387.194 572.697 391.673C569.593 394.859 559.934 397.607 554.615 398.928ZM374.285 506.436L376.088 509.859C376.088 509.859 377.72 512.655 379.428 517.537C380.06 519.341 380.361 520.887 380.676 522.505C381.214 525.265 381.793 528.238 384.122 533.071C388.317 541.774 380.814 538.185 378.124 534.387C377.239 533.138 376.77 531.705 376.319 530.33C375.699 528.439 375.116 526.657 373.539 525.617C373.461 525.743 373.373 525.874 373.278 526.015C372.274 527.511 370.442 530.24 369.379 541.711C369.171 543.964 370.192 551.269 370.192 551.269C370.194 551.432 370.197 551.608 370.2 551.794C370.241 554.116 370.31 558.074 368.003 558.719C367.385 558.892 366.582 558.209 366.582 558.209C366.582 558.209 366.823 561.065 364.277 561.634C363.275 561.857 361.286 555.69 361.286 555.69C361.286 555.69 360.984 558.822 359.082 559.17C358.544 559.269 352.196 541.4 352.196 541.4L352.578 545.436L353.421 549.569C353.421 549.569 353.353 551.795 351.566 552.188C350.856 552.344 349.494 548.633 348.218 544.267C346.233 537.474 346.273 532.369 346.857 527.293C346.999 526.062 347.099 524.994 347.192 524.014L347.192 524.014C347.559 520.111 347.797 517.588 349.979 511.575C350.306 510.675 350.744 509.642 351.234 508.58C349.735 495.647 345.514 457.79 346.031 446.168C346.658 432.072 361.593 400.779 361.593 400.779L391.915 417.73L375.202 448.182L374.285 506.436Z" fill="#E576C6"/>
</g>
<g id="T-Shirt">
<path id="T-Shirt_2" fill-rule="evenodd" clip-rule="evenodd" d="M391 480.38H488.279L491.843 420.335L508.917 410.384L496.954 382.883L496.849 382.903C496.351 381.904 495.804 380.866 495.206 379.789C487.782 366.416 475.083 358.875 461.646 355.217C461.429 355.158 461.341 355.115 461.331 355.129C461.305 355.165 461.771 355.557 461.904 356.929C462.091 358.846 461.486 361.447 460.848 362.239C459.346 364.104 457.077 365.162 456.164 365.411C455.251 365.66 454.528 365.805 453.721 365.966C453.155 366.078 449.936 366.317 449.38 366.288C444.8 366.049 442.554 365.837 439.67 365.152C438.649 364.909 437.593 364.633 436.34 364.106C436.105 364.007 435.848 363.901 435.572 363.788C434.218 363.232 432.415 362.491 430.583 361.467C428.647 360.385 426.674 358.958 425.245 357.501C425.107 357.36 424.973 357.223 424.842 357.09C423.342 355.562 422.319 354.519 421.61 353.474C421.13 352.766 420.949 352.531 420.843 352.393C420.778 352.309 420.741 352.261 420.682 352.165C420.525 351.911 420.389 351.687 420.351 351.537C420.309 351.375 420.458 351.307 420.452 351.29C420.449 351.28 420.383 351.291 420.164 351.312C413.318 351.988 405.959 353.756 397.934 357.501C373.115 369.077 358.61 398.165 358.61 398.165L389.369 421.166L391 480.38Z" fill="#5E93D1"/>
</g>
<path id="Stroke 16" opacity="0.200521" d="M389.368 421.163L397.171 426.443L415.927 404.665" stroke="black" stroke-width="5"/>
<path id="Phone" d="M567.502 382.667L566.143 389.316H544.134L554.516 336.384H576.525C575.954 339.293 574.611 346.143 572.494 356.936L568.166 354.936L566.818 354.564L565.757 354.623L565.297 354.936V356.222L570.002 362.97L566.403 364.533L560.865 367.43L559.265 368.535L558.646 369.107L558.139 369.559L557.817 369.948L557.623 370.295L557.54 370.746L557.623 370.945L557.719 371.099L557.859 371.237L559.674 371.877L563.815 370.746H567.907L562.445 371.877L558.846 374.024L557.623 375.174L556.932 376.018V376.791L558.139 377.333L565.757 376.461L563.235 377.83L561.563 378.863L560.031 379.651L558.846 381.176V381.928L559.265 382.37L560.329 382.935H561.952H565.22L567.502 382.667Z" fill="#5E93D1"/>
<path id="Fill 23_2" fill-rule="evenodd" clip-rule="evenodd" d="M544.131 389.316H540.489L550.871 336.384H554.512L544.131 389.316Z" fill="#020101"/>
<path id="Fill 34_2" fill-rule="evenodd" clip-rule="evenodd" d="M558.303 342.53C557.998 344.076 557.096 345.202 556.288 345.044C555.481 344.887 555.072 343.506 555.376 341.96C555.68 340.413 556.582 339.288 557.391 339.445C558.199 339.603 558.607 340.984 558.303 342.53Z" fill="#020101"/>
</g>
</g>
</g>
<g id="Person / Girl / 4">
<g id="Girl / Head / 1">
<g id="Group 21_2">
<g id="Hair color">
<path id="Hair_2" d="M792.632 287.242C792.632 292.809 793.21 298.244 794.315 303.488C801.797 339.199 833.47 351.385 871.411 351.385C914.913 351.385 950.185 330.75 950.185 287.242C950.185 243.734 914.913 208.47 871.411 208.47C841.502 208.47 815.483 225.133 802.141 249.688C796.078 260.851 792.632 273.644 792.632 287.242Z" fill="#F6B852"/>
<mask id="mask0" mask-type="alpha" maskUnits="userSpaceOnUse" x="792" y="208" width="159" height="144">
<path id="Hair_3" d="M792.632 287.242C792.632 292.809 793.21 298.244 794.315 303.488C801.797 339.199 833.47 351.385 871.411 351.385C914.913 351.385 950.185 330.75 950.185 287.242C950.185 243.734 914.913 208.47 871.411 208.47C841.502 208.47 815.483 225.133 802.141 249.688C796.078 260.851 792.632 273.644 792.632 287.242Z" fill="white"/>
</mask>
<g mask="url(#mask0)">
</g>
</g>
<path id="Fill 4_6" fill-rule="evenodd" clip-rule="evenodd" d="M857.903 339.653C857.903 339.653 867.361 339.932 871.393 337.729L858.405 345.884L857.903 339.653Z" fill="#CF3E83"/>
<g id="Face color_2">
<path id="Face_2" d="M861.064 279.858C851.853 287.782 838.219 295.15 822.214 300.16C823.233 311.004 826.616 329.694 836.822 336.483C841.643 339.689 850.423 340.084 857.902 339.653L859.618 360.897L881.849 352.19C881.849 352.19 876.3 326.371 879.272 321.625C883.262 315.233 893.938 313.173 893.95 304.339C893.955 301.723 892.425 297.193 886.777 297.184C879.196 297.173 880.277 306.255 880.277 306.255C873.303 308.968 866.195 290.386 861.064 279.858V279.858Z" fill="#5E93D1"/>
</g>
<path id="Fill 9_2" fill-rule="evenodd" clip-rule="evenodd" d="M837.342 306.238L831.929 319.36L838.209 319.235L837.342 306.238Z" fill="#2437A8"/>
<path id="Fill 11_2" fill-rule="evenodd" clip-rule="evenodd" d="M843.105 306.807C843.24 309.429 844.781 311.471 846.548 311.369C848.316 311.268 849.639 309.06 849.504 306.439C849.369 303.817 847.827 301.774 846.06 301.876C844.293 301.978 842.969 304.186 843.105 306.807Z" fill="#1D1D23"/>
<path id="Fill 13_2" fill-rule="evenodd" clip-rule="evenodd" d="M826.51 306.388C826.646 309.01 828.187 311.052 829.954 310.95C831.722 310.849 833.045 308.641 832.909 306.019C832.774 303.398 831.233 301.355 829.466 301.457C827.698 301.559 826.375 303.767 826.51 306.388Z" fill="#1D1D23"/>
<path id="Stroke 15" d="M839.75 325.52C839.75 325.52 843.841 326.841 847.941 322.282" stroke="#24242B" stroke-width="3"/>
<path id="Fill 17_4" opacity="0.399019" fill-rule="evenodd" clip-rule="evenodd" d="M857.918 339.652C857.918 339.652 867.377 339.932 871.408 337.73L858.421 345.884L857.918 339.652Z" fill="black"/>
</g>
</g>
<g id="Girl / Body / 2">
<g id="Group 39">
<g id="Skin color_2">
<path id="Skin_2" fill-rule="evenodd" clip-rule="evenodd" d="M846.787 363.681C851.188 356.236 857.079 352.072 857.079 352.072L884.003 350.773C884.003 350.773 881.71 356.683 879.282 364.283C874.483 379.308 863.098 382.684 853.179 382.667C843.913 382.653 840.765 373.866 846.787 363.681ZM780.46 407.329C780.943 402.598 781.131 396.937 779.628 394.91C776.87 391.19 763.231 379.943 763.231 379.943L762.504 389.329L759.276 378.311C759.276 378.311 755.701 379.37 752.24 381.181C749.745 382.486 747.354 384.257 745.852 385.368C745.495 385.632 745.188 385.859 744.943 386.034C743.109 387.337 748.44 407.393 752.24 411.002C754.849 413.479 762.542 415.4 767.108 416.36C775.827 430.442 799.066 465.626 811.905 462.723C825.242 459.708 837.617 413.085 837.617 413.085L815.12 402.126L805.325 432.316L780.46 407.329ZM933.328 509.503L927.853 523.506C927.853 523.506 927.021 527.111 926.556 531.372L926.494 531.941C926.07 535.875 925.786 538.514 923.092 544.617C921.126 549.072 927.489 547.742 929.293 545.253C929.959 544.334 930.507 542.397 931.077 540.383C932.099 536.77 933.191 532.91 935.157 534.247C938.22 536.329 939.143 546.918 938.458 556.917C938.351 558.487 939.441 559.769 940.221 560.221C941.486 560.953 943.331 554.766 943.331 554.766C943.331 554.766 943.995 556.94 946.009 556.032C946.722 555.71 948.846 551.5 948.846 551.5C948.846 551.5 950.491 549.426 951.356 547.109C952.883 543.019 954.13 535.428 953.836 533.197C953.141 527.941 951.579 519.068 949.526 514.152C950.738 501.522 955.385 450.813 952.822 441.18C949.888 430.158 944.138 415.222 944.138 415.222L922.077 428.197L931.534 448.388L933.328 509.503Z" fill="#E576C6"/>
</g>
<path id="Path" fill-rule="evenodd" clip-rule="evenodd" d="M751.817 381.465C753.849 380.301 755.783 379.429 756.73 379.65C758.388 380.037 755.354 384.385 753.14 387.248L753.165 387.357C756.738 388.794 761.419 390.925 762.172 392.486C762.697 393.575 760.645 393.931 758.101 393.979C760.442 395.102 762.484 396.315 762.959 397.3C763.568 398.562 760.718 398.84 757.654 398.795C760.36 400.03 762.896 401.433 763.433 402.546C764.117 403.965 760.426 404.14 756.976 404.011L757.863 407.887C758.134 409.076 759.217 409.901 760.435 409.848L773.676 409.268C775.252 409.199 776.38 407.72 776.028 406.182L766.646 365.177C766.374 363.989 765.292 363.163 764.074 363.217L750.833 363.795C749.257 363.865 748.13 365.345 748.481 366.882L751.817 381.465Z" fill="#020101"/>
<g id="Phone color">
<path id="Phone_2" d="M749.118 383.129C751.927 381.297 755.359 379.331 756.73 379.65C758.402 380.041 755.299 384.462 753.081 387.324C756.664 388.761 761.413 390.914 762.172 392.486C762.697 393.576 760.644 393.932 758.101 393.98C760.441 395.102 762.484 396.315 762.959 397.301C763.567 398.562 760.718 398.84 757.653 398.796C760.36 400.03 762.896 401.434 763.432 402.547C764.338 404.426 757.574 404.123 753.852 403.822L754.813 408.02C755.084 409.209 756.167 410.034 757.386 409.981L770.627 409.402C772.202 409.333 773.33 407.853 772.978 406.315L763.596 365.31C763.324 364.122 762.243 363.297 761.025 363.35L747.783 363.929C746.207 363.998 745.08 365.479 745.431 367.015L749.118 383.129Z" fill="#5E93D1"/>
</g>
<path id="Fill 20_3" fill-rule="evenodd" clip-rule="evenodd" d="M760.182 368.783C760.49 370.127 761.283 371.081 761.952 370.914C762.62 370.746 762.913 369.521 762.605 368.177C762.296 366.833 761.503 365.879 760.835 366.046C760.166 366.214 759.873 367.439 760.182 368.783Z" fill="#020101"/>
<path id="Fill 22_2" fill-rule="evenodd" clip-rule="evenodd" d="M761.73 375.736C762.039 377.08 762.831 378.035 763.501 377.867C764.17 377.7 764.462 376.475 764.154 375.131C763.845 373.786 763.053 372.833 762.384 373C761.714 373.168 761.422 374.393 761.73 375.736Z" fill="#020101"/>
<g id="T-shirt color">
<path id="T-Shirt_3" d="M875.129 351.201L884.002 350.773C884.002 350.773 881.709 356.684 879.282 364.284C874.482 379.308 863.098 382.684 853.178 382.668C843.913 382.653 840.764 373.866 846.787 363.681C850.662 357.123 855.695 353.112 856.84 352.248C845.14 353.039 837.855 354.508 831.108 360.836C818.263 372.884 807.861 395.095 803.584 417.037L827.058 427.513L835.419 459.82L896.852 458.884C896.852 458.884 896.314 452.966 897.639 444.415C899.364 433.231 905.593 424.885 905.593 424.885L911.772 434.277L950.2 411.623C937.62 388.682 920.072 365.027 908.372 357.501C900.106 352.181 892.538 350.846 885.144 350.773C881.781 350.74 878.405 350.969 875.129 351.201Z" fill="#5E93D1"/>
</g>
<path id="Stroke 31" opacity="0.202962" d="M835.145 460.381C832.798 430.579 817.287 423.546 828.991 390.123" stroke="black" stroke-width="3"/>
<path id="Stroke 35" opacity="0.202055" d="M857.079 352.072C857.079 352.072 851.188 356.236 846.787 363.681C840.765 373.866 843.913 382.653 853.179 382.667C863.098 382.684 874.483 379.308 879.282 364.283C881.71 356.683 884.003 350.773 884.003 350.773" stroke="black" stroke-width="3"/>
<path id="Stroke 37" opacity="0.202962" d="M889.816 404.021L904.07 425.618" stroke="black" stroke-width="3"/>
</g>
</g>
<g id="Girl / Legs / 2">
<g id="Group 19">
<g id="Shoes_3">
<path id="Shoes_4" fill-rule="evenodd" clip-rule="evenodd" d="M831.664 839.2L829.908 823.869L845.338 816.706L846.937 860.614L786.7 860.509C798.985 847.767 831.664 839.2 831.664 839.2ZM921.347 819.681L938.42 820.051L938.247 839.567C938.247 839.567 954.719 842.423 960.426 860.614H917.602L919.457 838.696L921.347 819.681Z" fill="#0D0B6D"/>
</g>
<g id="Skin color_3">
<path id="Skin_3" fill-rule="evenodd" clip-rule="evenodd" d="M919.495 820.765L936.149 814.914L938.379 838.696L919.589 839.567L919.495 820.765ZM829.506 826.474L845.692 820.04L846.189 838.592L829.645 839.2L829.506 826.474Z" fill="#E576C6"/>
</g>
<g id="Pants_3">
<path id="Pants_4" d="M942.087 823.946C941.324 800.165 936.393 649.948 931.328 560.577C927.817 498.632 901.547 464.527 896.617 458.634H834.022C833.908 459.426 825.483 519.067 823.941 643.862C822.557 755.623 823.984 816.712 824.162 823.896L824.162 823.9L822.163 823.896L822.15 833.518L854.563 833.57L854.576 823.949L853.458 823.947L853.458 823.946L869.918 628.372L874.848 569.838L912.27 823.896L912.271 823.898L910.652 823.895L911.217 833.516L944.775 833.571L944.21 823.95L942.087 823.947L942.087 823.946Z" fill="#2F2F3D"/>
</g>
<path id="Fill 17_5" opacity="0.398065" fill-rule="evenodd" clip-rule="evenodd" d="M874.849 569.84L868.114 512.58L869.921 628.371L874.849 569.84Z" fill="#0A0A0F"/>
</g>
</g>
</g>
</g>
</svg>
