<svg width="16" height="17" viewBox="0 0 16 17" fill="none" xmlns="http://www.w3.org/2000/svg">
<path d="M14.1892 6.16534L10.222 5.58878L8.44859 1.99346C8.40015 1.89503 8.32046 1.81534 8.22203 1.7669C7.97515 1.64503 7.67515 1.74659 7.55171 1.99346L5.77828 5.58878L1.81109 6.16534C1.70171 6.18096 1.60171 6.23253 1.52515 6.31065C1.43259 6.40579 1.38159 6.53378 1.38334 6.6665C1.3851 6.79922 1.43948 6.92581 1.53453 7.01846L4.40484 9.8169L3.72671 13.7685C3.71081 13.8604 3.72098 13.9549 3.75608 14.0414C3.79117 14.1278 3.84978 14.2027 3.92526 14.2575C4.00074 14.3123 4.09007 14.3449 4.18312 14.3515C4.27617 14.3582 4.36922 14.3386 4.45171 14.295L8.00015 12.4294L11.5486 14.295C11.6455 14.3466 11.758 14.3638 11.8658 14.345C12.1377 14.2982 12.3205 14.0403 12.2736 13.7685L11.5955 9.8169L14.4658 7.01846C14.5439 6.9419 14.5955 6.8419 14.6111 6.73253C14.6533 6.45909 14.4627 6.20596 14.1892 6.16534Z" fill="#FEA250"/>
</svg>
