<svg width="48" height="48" viewBox="0 0 48 48" fill="none" xmlns="http://www.w3.org/2000/svg">
<g clip-path="url(#clip0)">
<path d="M36.0593 39.8789H14.2219V4.48224H36.0593V39.8789ZM23.4413 43.4731C23.4413 42.4999 24.2228 41.7104 25.1871 41.7104C26.1517 41.7104 26.9329 42.4999 26.9329 43.4731C26.9329 44.4459 26.1517 45.2367 25.1871 45.2367C24.2228 45.2354 23.4413 44.4459 23.4413 43.4731ZM37.5245 45.0728H37.5275V2.65267V2.65234V2.64376H37.5268C37.5222 1.67522 36.7363 0.891357 35.7661 0.891357C35.7592 0.891357 35.7536 0.892017 35.7474 0.892017V0.891357H31.7911H20.2491H14.515C13.5462 0.892017 12.761 1.67588 12.7557 2.64376H12.7554V45.0725H12.758C12.7574 45.0909 12.7554 45.1091 12.7554 45.1282C12.7554 46.0773 13.5531 46.847 14.5375 46.847C14.552 46.847 14.5661 46.845 14.5807 46.8446V46.847H35.7902C36.7479 46.847 37.5271 46.0776 37.5271 45.1282C37.5275 45.1094 37.5251 45.0909 37.5245 45.0728Z" fill="white"/>
</g>
<defs>
<clipPath id="clip0">
<rect width="46.7391" height="46.7391" fill="white" transform="translate(0.369629 0.891357)"/>
</clipPath>
</defs>
</svg>
