<svg width="71" height="71" viewBox="0 0 71 71" fill="none" xmlns="http://www.w3.org/2000/svg">
<g filter="url(#filter0_d)">
<circle cx="35.4" cy="22.3805" r="16.7999" fill="#0823A5"/>
</g>
<path d="M35.4001 5.58057C26.1216 5.58057 18.6001 13.1021 18.6001 22.3806C18.6001 31.6591 26.1216 39.1806 35.4001 39.1806C44.6786 39.1806 52.2001 31.6591 52.2001 22.3806C52.2001 13.1021 44.6786 5.58057 35.4001 5.58057ZM42.2339 19.3426C42.2409 19.4861 42.2426 19.6296 42.2426 19.7696C42.2426 24.1446 38.9159 29.1863 32.8294 29.1863C31.0309 29.1893 29.2698 28.6728 27.7578 27.6988C28.0151 27.7303 28.2793 27.7426 28.5471 27.7426C30.0976 27.7426 31.5239 27.2158 32.6561 26.3268C31.9661 26.3133 31.2975 26.0848 30.7435 25.6732C30.1896 25.2617 29.7778 24.6875 29.5656 24.0308C30.0611 24.125 30.5716 24.1053 31.0583 23.9731C30.3094 23.8216 29.6359 23.4158 29.1521 22.8245C28.6682 22.2331 28.4038 21.4926 28.4036 20.7286V20.6883C28.8498 20.9351 29.3608 21.0856 29.9033 21.1031C29.2012 20.6357 28.7042 19.9177 28.5139 19.0961C28.3236 18.2744 28.4544 17.411 28.8796 16.6826C29.7108 17.7046 30.7473 18.5406 31.9221 19.1366C33.0969 19.7326 34.3837 20.0752 35.6994 20.1423C35.5321 19.4324 35.6041 18.687 35.9041 18.0222C36.2042 17.3574 36.7154 16.8103 37.3585 16.466C38.0015 16.1218 38.7403 15.9996 39.4599 16.1185C40.1796 16.2374 40.8397 16.5907 41.3379 17.1236C42.0784 16.9771 42.7886 16.7054 43.4379 16.3203C43.191 17.0871 42.6743 17.7381 41.9836 18.1526C42.6396 18.0736 43.2801 17.8972 43.8841 17.6293C43.4405 18.2941 42.8816 18.8743 42.2339 19.3426Z" fill="white"/>
<defs>
<filter id="filter0_d" x="0.600098" y="0.580566" width="69.5999" height="69.5999" filterUnits="userSpaceOnUse" color-interpolation-filters="sRGB">
<feFlood flood-opacity="0" result="BackgroundImageFix"/>
<feColorMatrix in="SourceAlpha" type="matrix" values="0 0 0 0 0 0 0 0 0 0 0 0 0 0 0 0 0 0 127 0"/>
<feOffset dy="13"/>
<feGaussianBlur stdDeviation="9"/>
<feColorMatrix type="matrix" values="0 0 0 0 0.0658854 0 0 0 0 0.0730469 0 0 0 0 0.1375 0 0 0 0.08 0"/>
<feBlend mode="normal" in2="BackgroundImageFix" result="effect1_dropShadow"/>
<feBlend mode="normal" in="SourceGraphic" in2="effect1_dropShadow" result="shape"/>
</filter>
</defs>
</svg>
